M48
METRIC,LZ,000.000
;FILE_FORMAT=3:3
;TYPE=PLATED
;Layer: PTH_Through
;EasyEDA v6.5.42, 2024-06-07 11:44:59
;8452c85e2a7e40808aef99803c7b0139,2402692d15bd446891542ced5281a4ad,10
;Gerber Generator version 0.2
;Holesize 1 = 0.701 mm
T01C0.701
;Holesize 2 = 0.712 mm
T02C0.712
;Holesize 3 = 0.813 mm
T03C0.813
;Holesize 4 = 0.901 mm
T04C0.901
;Holesize 5 = 0.915 mm
T05C0.915
;Holesize 6 = 1.000 mm
T06C1.000
;Holesize 7 = 1.016 mm
T07C1.016
;Holesize 8 = 1.083 mm
T08C1.083
;Holesize 9 = 1.101 mm
T09C1.101
;Holesize 10 = 1.301 mm
T10C1.301
;Holesize 11 = 1.400 mm
T11C1.400
%
G05
G90
T01
X019969Y005850
X019969Y004580
X019969Y003310
X020162Y014218
X020162Y012948
X020162Y011678
T02
X-024620Y-000310
X-022080Y-000310
X-019540Y-000310
X-017000Y-000310
X-014460Y-000310
X-011920Y-000310
X-009380Y-000310
X-009380Y007310
X-011920Y007310
X-014460Y007310
X-017000Y007310
X-019540Y007310
X-022080Y007310
X-024620Y007310
T03
X009525Y021971
X-000635Y021971
X009525Y019177
X-000635Y019177
X-000079Y-006500
X010081Y-006500
X001397Y008636
X001397Y-001524
X025500Y-006080
X025500Y004080
X023972Y007868
X023972Y018028
X-016383Y-009525
X-006223Y-009525
X-006223Y-006556
X-016383Y-006556
X-006223Y-003556
X-016383Y-003556
X-000080Y-009500
X010080Y-009500
T04
X-003937Y002647
X-003937Y000147
X018750Y-002500
X021250Y-002500
X012969Y006330
X012969Y003830
X012969Y015093
X012969Y012593
X021250Y-012000
X018750Y-012000
T05
X008000Y-002000
X013000Y-002000
T06
X-021717Y025400G85X-021717Y025400
X-019217Y025400G85X-019217Y025400
X018730Y-017000
X021270Y-017000
X005969Y012573
X005969Y015113
X005969Y003810
X005969Y006350
T07
X-031750Y024130
X-031750Y021590
X-031750Y019050
X-031750Y016510
X-031750Y013970
X-031750Y011430
X-029210Y024130
X-029210Y021590
X-029210Y019050
X-029210Y016510
X-029210Y013970
X-029210Y011430
X-031750Y008890
X-029210Y008890
X-031750Y006350
X-031750Y003810
X-031750Y001270
X-031750Y-001270
X-031750Y-003810
X-031750Y-006350
X-029210Y006350
X-029210Y003810
X-029210Y001270
X-029210Y-001270
X-029210Y-003810
X-029210Y-006350
X-031750Y-008890
X-029210Y-008890
X-031750Y-011430
X-031750Y-013970
X-031750Y-016510
X-031750Y-019050
X-031750Y-021590
X-031750Y-024130
X-029210Y-011430
X-029210Y-013970
X-029210Y-016510
X-029210Y-019050
X-029210Y-021590
X-029210Y-024130
X029210Y024130
X029210Y021590
X029210Y019050
X029210Y016510
X029210Y013970
X029210Y011430
X031750Y024130
X031750Y021590
X031750Y019050
X031750Y016510
X031750Y013970
X031750Y011430
X029210Y008890
X031750Y008890
X029210Y006350
X029210Y003810
X029210Y001270
X029210Y-001270
X029210Y-003810
X029210Y-006350
X031750Y006350
X031750Y003810
X031750Y001270
X031750Y-001270
X031750Y-003810
X031750Y-006350
X029210Y-008890
X031750Y-008890
X029210Y-011430
X029210Y-013970
X029210Y-016510
X029210Y-019050
X029210Y-021590
X029210Y-024130
X031750Y-011430
X031750Y-013970
X031750Y-016510
X031750Y-019050
X031750Y-021590
X031750Y-024130
T08
X-024217Y025398G85X-024217Y025403
T09
X020828Y026416
X018288Y026416
X015748Y026416
X013208Y026416
T10
X016500Y-023500
X021500Y-023500
T11
X005970Y-020500
X000890Y-020500
X-021970Y-020500
M30
