G04 Layer: BottomLayer*
G04 EasyEDA v6.5.42, 2024-06-07 11:44:59*
G04 8452c85e2a7e40808aef99803c7b0139,2402692d15bd446891542ced5281a4ad,10*
G04 Gerber Generator version 0.2*
G04 Scale: 100 percent, Rotated: No, Reflected: No *
G04 Dimensions in millimeters *
G04 leading zeros omitted , absolute positions ,4 integer and 5 decimal *
%FSLAX45Y45*%
%MOMM*%

%ADD10C,1.0000*%
%ADD11C,1.5000*%
%ADD12R,1.2116X1.2116*%
%ADD13R,1.7000X1.7000*%
%ADD14C,1.7000*%
%ADD15C,1.8001*%
%ADD16C,1.5240*%
%ADD17R,1.5000X1.5240*%
%ADD18R,1.5240X1.5000*%
%ADD19O,1.5999968X0.8999982*%
%ADD20R,1.6000X0.9000*%
%ADD21C,2.0000*%
%ADD22C,2.5000*%
%ADD23R,1.4148X1.4148*%
%ADD24R,1.3970X1.3970*%
%ADD25C,1.3970*%
%ADD26C,0.0129*%

%LPD*%
G36*
X-3393084Y-2692501D02*
G01*
X-3404412Y-2691485D01*
X-3415537Y-2689047D01*
X-3426256Y-2685186D01*
X-3436416Y-2680004D01*
X-3445814Y-2673553D01*
X-3454298Y-2665984D01*
X-3461765Y-2657348D01*
X-3468065Y-2647899D01*
X-3473094Y-2637688D01*
X-3476751Y-2626918D01*
X-3479037Y-2615742D01*
X-3479901Y-2604414D01*
X-3479292Y-2590596D01*
X-3479292Y2895396D01*
X-3479037Y2909824D01*
X-3477260Y2921914D01*
X-3473907Y2933649D01*
X-3469081Y2944876D01*
X-3462883Y2955391D01*
X-3455365Y2964992D01*
X-3446627Y2973578D01*
X-3436924Y2980994D01*
X-3426307Y2987040D01*
X-3415029Y2991713D01*
X-3403244Y2994914D01*
X-3391103Y2996539D01*
X-3377996Y2996692D01*
X3363518Y2996692D01*
X3377996Y2995066D01*
X3390849Y2991967D01*
X3403193Y2987294D01*
X3414877Y2981147D01*
X3425748Y2973628D01*
X3435604Y2964840D01*
X3444290Y2954883D01*
X3451707Y2943910D01*
X3457701Y2932176D01*
X3462223Y2919730D01*
X3465169Y2906877D01*
X3466592Y2893618D01*
X3466592Y-2603296D01*
X3467150Y-2617876D01*
X3466084Y-2628544D01*
X3463544Y-2638907D01*
X3459581Y-2648813D01*
X3454298Y-2658110D01*
X3447796Y-2666542D01*
X3440176Y-2674061D01*
X3431590Y-2680411D01*
X3422243Y-2685491D01*
X3412236Y-2689250D01*
X3401822Y-2691587D01*
X3391204Y-2692501D01*
X3377996Y-2691892D01*
X1038961Y-2691892D01*
X1035151Y-2691130D01*
X1031900Y-2688996D01*
X1029665Y-2685796D01*
X1028801Y-2682036D01*
X1029462Y-2678176D01*
X1031494Y-2674874D01*
X1034643Y-2672537D01*
X1038707Y-2670606D01*
X1046226Y-2666085D01*
X1055065Y-2659024D01*
X1350924Y-2363165D01*
X1357985Y-2354326D01*
X1362608Y-2346706D01*
X1363726Y-2344521D01*
X1367129Y-2336292D01*
X1367891Y-2333955D01*
X1370025Y-2325319D01*
X1370431Y-2322880D01*
X1371244Y-2314041D01*
X1371295Y-721461D01*
X1372057Y-717550D01*
X1374292Y-714248D01*
X1592224Y-496265D01*
X1599285Y-487426D01*
X1603908Y-479806D01*
X1605026Y-477621D01*
X1608429Y-469392D01*
X1609191Y-467055D01*
X1611325Y-458419D01*
X1611731Y-455980D01*
X1612544Y-447141D01*
X1612595Y-48361D01*
X1613357Y-44450D01*
X1615592Y-41148D01*
X1768348Y111607D01*
X1771650Y113842D01*
X1775561Y114604D01*
X2085441Y114655D01*
X2094280Y115468D01*
X2096719Y115874D01*
X2105355Y118008D01*
X2107692Y118770D01*
X2115921Y122174D01*
X2118106Y123291D01*
X2125726Y127914D01*
X2134565Y134975D01*
X2290724Y291134D01*
X2297785Y299974D01*
X2302408Y307594D01*
X2303526Y309778D01*
X2306929Y318008D01*
X2307691Y320344D01*
X2309825Y328980D01*
X2310231Y331419D01*
X2311044Y340258D01*
X2311095Y573938D01*
X2311857Y577850D01*
X2314092Y581152D01*
X2430272Y697331D01*
X2433574Y699566D01*
X2437485Y700328D01*
X2457196Y700328D01*
X2463546Y701040D01*
X2468981Y702919D01*
X2473909Y706018D01*
X2477973Y710133D01*
X2481072Y715010D01*
X2482951Y720496D01*
X2483713Y726795D01*
X2483713Y846836D01*
X2482951Y853135D01*
X2481072Y858570D01*
X2477770Y863853D01*
X2476601Y866444D01*
X2476195Y869238D01*
X2476195Y952144D01*
X2475331Y963828D01*
X2472791Y974852D01*
X2468676Y985418D01*
X2462987Y995222D01*
X2455926Y1004112D01*
X2447594Y1011834D01*
X2438247Y1018235D01*
X2428036Y1023112D01*
X2417165Y1026464D01*
X2405989Y1028192D01*
X2394610Y1028192D01*
X2383434Y1026464D01*
X2372563Y1023112D01*
X2362352Y1018235D01*
X2353005Y1011834D01*
X2344674Y1004112D01*
X2337612Y995222D01*
X2331923Y985418D01*
X2327808Y974852D01*
X2325268Y963828D01*
X2324404Y952144D01*
X2324404Y875639D01*
X2323592Y871728D01*
X2321407Y868426D01*
X2316429Y863498D01*
X2313330Y858570D01*
X2311450Y853135D01*
X2310739Y846836D01*
X2310739Y796696D01*
X2309926Y792784D01*
X2307742Y789482D01*
X2179675Y661365D01*
X2172614Y652526D01*
X2167991Y644906D01*
X2166874Y642721D01*
X2163470Y634492D01*
X2162708Y632155D01*
X2160574Y623519D01*
X2160168Y621080D01*
X2159355Y612241D01*
X2159304Y378561D01*
X2158542Y374650D01*
X2156307Y371348D01*
X2090064Y305104D01*
X2086762Y302920D01*
X2082901Y302158D01*
X2043226Y302158D01*
X2043226Y276555D01*
X2042464Y272694D01*
X2040280Y269392D01*
X2036978Y267157D01*
X2033066Y266395D01*
X1960727Y266395D01*
X1956816Y267157D01*
X1953514Y269392D01*
X1951329Y272694D01*
X1950567Y276555D01*
X1950567Y302158D01*
X1890979Y302158D01*
X1890979Y286562D01*
X1892350Y276098D01*
X1891487Y272389D01*
X1889252Y269240D01*
X1886000Y267157D01*
X1882241Y266395D01*
X1737258Y266344D01*
X1728419Y265531D01*
X1725980Y265125D01*
X1717344Y262991D01*
X1715007Y262229D01*
X1706778Y258825D01*
X1704593Y257708D01*
X1696974Y253085D01*
X1688134Y246024D01*
X1481175Y39065D01*
X1474114Y30226D01*
X1469491Y22606D01*
X1468374Y20421D01*
X1464970Y12192D01*
X1464208Y9855D01*
X1462074Y1219D01*
X1461668Y-1219D01*
X1460855Y-10058D01*
X1460804Y-408838D01*
X1460042Y-412750D01*
X1457807Y-416051D01*
X1239875Y-634034D01*
X1232814Y-642874D01*
X1228191Y-650494D01*
X1227074Y-652678D01*
X1223670Y-660908D01*
X1222908Y-663244D01*
X1220774Y-671880D01*
X1220368Y-674319D01*
X1219555Y-683158D01*
X1219504Y-2275738D01*
X1218742Y-2279650D01*
X1216507Y-2282952D01*
X974852Y-2524607D01*
X971550Y-2526842D01*
X967638Y-2527604D01*
X-2838043Y-2527604D01*
X-2842006Y-2526792D01*
X-2845308Y-2524506D01*
X-2847492Y-2521102D01*
X-2848203Y-2517089D01*
X-2847238Y-2513177D01*
X-2844850Y-2509926D01*
X-2841396Y-2507843D01*
X-2839059Y-2507030D01*
X-2834132Y-2503932D01*
X-2830068Y-2499868D01*
X-2826969Y-2494940D01*
X-2825089Y-2489504D01*
X-2824327Y-2483154D01*
X-2824327Y-2342845D01*
X-2825089Y-2336495D01*
X-2826969Y-2331059D01*
X-2830068Y-2326132D01*
X-2834132Y-2322068D01*
X-2839059Y-2318969D01*
X-2844495Y-2317089D01*
X-2850845Y-2316378D01*
X-2991154Y-2316378D01*
X-2997504Y-2317089D01*
X-3002940Y-2318969D01*
X-3007868Y-2322068D01*
X-3011932Y-2326132D01*
X-3015030Y-2331059D01*
X-3016910Y-2336495D01*
X-3017621Y-2342845D01*
X-3017621Y-2483154D01*
X-3016910Y-2489504D01*
X-3015030Y-2494940D01*
X-3011932Y-2499868D01*
X-3007868Y-2503932D01*
X-3002940Y-2507030D01*
X-3000603Y-2507843D01*
X-2997149Y-2509926D01*
X-2994761Y-2513177D01*
X-2993796Y-2517089D01*
X-2994507Y-2521102D01*
X-2996692Y-2524506D01*
X-2999994Y-2526792D01*
X-3003956Y-2527604D01*
X-3092043Y-2527604D01*
X-3096006Y-2526792D01*
X-3099308Y-2524506D01*
X-3101492Y-2521102D01*
X-3102203Y-2517089D01*
X-3101238Y-2513177D01*
X-3098850Y-2509926D01*
X-3095396Y-2507843D01*
X-3093059Y-2507030D01*
X-3088132Y-2503932D01*
X-3084068Y-2499868D01*
X-3080969Y-2494940D01*
X-3079089Y-2489504D01*
X-3078327Y-2483154D01*
X-3078327Y-2342845D01*
X-3079089Y-2336495D01*
X-3080969Y-2331059D01*
X-3084068Y-2326132D01*
X-3088132Y-2322068D01*
X-3093059Y-2318969D01*
X-3098495Y-2317089D01*
X-3104845Y-2316378D01*
X-3245154Y-2316378D01*
X-3251504Y-2317089D01*
X-3256940Y-2318969D01*
X-3261867Y-2322068D01*
X-3265932Y-2326132D01*
X-3269030Y-2331059D01*
X-3269843Y-2333396D01*
X-3271926Y-2336850D01*
X-3275177Y-2339238D01*
X-3279089Y-2340203D01*
X-3283102Y-2339492D01*
X-3286506Y-2337308D01*
X-3288792Y-2334006D01*
X-3289604Y-2330043D01*
X-3289604Y-2241956D01*
X-3288792Y-2237994D01*
X-3286506Y-2234692D01*
X-3283102Y-2232507D01*
X-3279089Y-2231796D01*
X-3275177Y-2232761D01*
X-3271926Y-2235149D01*
X-3269843Y-2238603D01*
X-3269030Y-2240940D01*
X-3265932Y-2245868D01*
X-3261867Y-2249932D01*
X-3256940Y-2253030D01*
X-3251504Y-2254910D01*
X-3245154Y-2255672D01*
X-3104845Y-2255672D01*
X-3098495Y-2254910D01*
X-3093059Y-2253030D01*
X-3088132Y-2249932D01*
X-3084068Y-2245868D01*
X-3080969Y-2240940D01*
X-3079089Y-2235504D01*
X-3078327Y-2229154D01*
X-3078327Y-2088845D01*
X-3079089Y-2082495D01*
X-3080969Y-2077059D01*
X-3084068Y-2072132D01*
X-3088132Y-2068068D01*
X-3093059Y-2064969D01*
X-3098495Y-2063089D01*
X-3104845Y-2062378D01*
X-3200450Y-2062378D01*
X-3204362Y-2061565D01*
X-3207664Y-2059381D01*
X-3209848Y-2056079D01*
X-3210610Y-2052218D01*
X-3209848Y-2048306D01*
X-3207664Y-2045004D01*
X-3167278Y-2004618D01*
X-3163976Y-2002434D01*
X-3160064Y-2001672D01*
X-3104845Y-2001672D01*
X-3098495Y-2000910D01*
X-3093059Y-1999030D01*
X-3088132Y-1995932D01*
X-3084068Y-1991868D01*
X-3080969Y-1986940D01*
X-3079089Y-1981504D01*
X-3078327Y-1975154D01*
X-3078327Y-1834845D01*
X-3079089Y-1828495D01*
X-3080969Y-1823059D01*
X-3084068Y-1818132D01*
X-3088132Y-1814068D01*
X-3093059Y-1810969D01*
X-3098495Y-1809089D01*
X-3104845Y-1808378D01*
X-3245154Y-1808378D01*
X-3251504Y-1809089D01*
X-3256940Y-1810969D01*
X-3261867Y-1814068D01*
X-3265932Y-1818132D01*
X-3269030Y-1823059D01*
X-3270910Y-1828495D01*
X-3271621Y-1834845D01*
X-3271621Y-1890064D01*
X-3272434Y-1893976D01*
X-3274618Y-1897278D01*
X-3421024Y-2043734D01*
X-3428085Y-2052574D01*
X-3432708Y-2060193D01*
X-3433826Y-2062378D01*
X-3437229Y-2070607D01*
X-3437991Y-2072944D01*
X-3440125Y-2081580D01*
X-3440531Y-2084019D01*
X-3441344Y-2092858D01*
X-3441344Y-2529941D01*
X-3440531Y-2538780D01*
X-3440125Y-2541219D01*
X-3437991Y-2549855D01*
X-3437229Y-2552192D01*
X-3433826Y-2560421D01*
X-3432708Y-2562606D01*
X-3428085Y-2570226D01*
X-3421024Y-2579065D01*
X-3341065Y-2659024D01*
X-3332226Y-2666085D01*
X-3324707Y-2670606D01*
X-3320643Y-2672537D01*
X-3317494Y-2674874D01*
X-3315462Y-2678176D01*
X-3314801Y-2682036D01*
X-3315665Y-2685796D01*
X-3317900Y-2688996D01*
X-3321151Y-2691130D01*
X-3324961Y-2691892D01*
X-3379622Y-2691942D01*
G37*

%LPC*%
G36*
X3104845Y-2509672D02*
G01*
X3245154Y-2509672D01*
X3251504Y-2508910D01*
X3256940Y-2507030D01*
X3261867Y-2503932D01*
X3265932Y-2499868D01*
X3269030Y-2494940D01*
X3270910Y-2489504D01*
X3271672Y-2483154D01*
X3271672Y-2342845D01*
X3270910Y-2336495D01*
X3269030Y-2331059D01*
X3265932Y-2326132D01*
X3261867Y-2322068D01*
X3256940Y-2318969D01*
X3251504Y-2317089D01*
X3245154Y-2316378D01*
X3104845Y-2316378D01*
X3098495Y-2317089D01*
X3093059Y-2318969D01*
X3088132Y-2322068D01*
X3084068Y-2326132D01*
X3080969Y-2331059D01*
X3079089Y-2336495D01*
X3078327Y-2342845D01*
X3078327Y-2483154D01*
X3079089Y-2489504D01*
X3080969Y-2494940D01*
X3084068Y-2499868D01*
X3088132Y-2503932D01*
X3093059Y-2507030D01*
X3098495Y-2508910D01*
G37*
G36*
X2850845Y-2509672D02*
G01*
X2991154Y-2509672D01*
X2997504Y-2508910D01*
X3002940Y-2507030D01*
X3007868Y-2503932D01*
X3011932Y-2499868D01*
X3015030Y-2494940D01*
X3016910Y-2489504D01*
X3017672Y-2483154D01*
X3017672Y-2342845D01*
X3016910Y-2336495D01*
X3015030Y-2331059D01*
X3011932Y-2326132D01*
X3007868Y-2322068D01*
X3002940Y-2318969D01*
X2997504Y-2317089D01*
X2991154Y-2316378D01*
X2850845Y-2316378D01*
X2844495Y-2317089D01*
X2839059Y-2318969D01*
X2834132Y-2322068D01*
X2830068Y-2326132D01*
X2826969Y-2331059D01*
X2825089Y-2336495D01*
X2824327Y-2342845D01*
X2824327Y-2483154D01*
X2825089Y-2489504D01*
X2826969Y-2494940D01*
X2830068Y-2499868D01*
X2834132Y-2503932D01*
X2839059Y-2507030D01*
X2844495Y-2508910D01*
G37*
G36*
X1649984Y-2475890D02*
G01*
X1665173Y-2474976D01*
X1680108Y-2472232D01*
X1694637Y-2467711D01*
X1708505Y-2461463D01*
X1721510Y-2453589D01*
X1733448Y-2444242D01*
X1744218Y-2433472D01*
X1753565Y-2421483D01*
X1761439Y-2408478D01*
X1767687Y-2394661D01*
X1772208Y-2380132D01*
X1774952Y-2365146D01*
X1775866Y-2350008D01*
X1774952Y-2334818D01*
X1772208Y-2319883D01*
X1767687Y-2305354D01*
X1761439Y-2291486D01*
X1753565Y-2278481D01*
X1744218Y-2266492D01*
X1733448Y-2255774D01*
X1721510Y-2246376D01*
X1708505Y-2238502D01*
X1694637Y-2232304D01*
X1680108Y-2227783D01*
X1665173Y-2225040D01*
X1649984Y-2224125D01*
X1634794Y-2225040D01*
X1619859Y-2227783D01*
X1605330Y-2232304D01*
X1591462Y-2238502D01*
X1578457Y-2246376D01*
X1566519Y-2255774D01*
X1555750Y-2266492D01*
X1546402Y-2278481D01*
X1538528Y-2291486D01*
X1532280Y-2305354D01*
X1527759Y-2319883D01*
X1525016Y-2334818D01*
X1524101Y-2350008D01*
X1525016Y-2365146D01*
X1527759Y-2380132D01*
X1532280Y-2394661D01*
X1538528Y-2408478D01*
X1546402Y-2421483D01*
X1555750Y-2433472D01*
X1566519Y-2444242D01*
X1578457Y-2453589D01*
X1591462Y-2461463D01*
X1605330Y-2467711D01*
X1619859Y-2472232D01*
X1634794Y-2474976D01*
G37*
G36*
X2206345Y-2462428D02*
G01*
X2208479Y-2461463D01*
X2221484Y-2453589D01*
X2233472Y-2444242D01*
X2244191Y-2433472D01*
X2253589Y-2421483D01*
X2261463Y-2408478D01*
X2262428Y-2406345D01*
X2206345Y-2406345D01*
G37*
G36*
X2093620Y-2462428D02*
G01*
X2093620Y-2406345D01*
X2037537Y-2406345D01*
X2038502Y-2408478D01*
X2046376Y-2421483D01*
X2055774Y-2433472D01*
X2066493Y-2444242D01*
X2078482Y-2453589D01*
X2091486Y-2461463D01*
G37*
G36*
X-2501798Y-2361895D02*
G01*
X472541Y-2361844D01*
X481380Y-2361031D01*
X483819Y-2360625D01*
X492455Y-2358491D01*
X494792Y-2357729D01*
X503021Y-2354326D01*
X505206Y-2353208D01*
X512826Y-2348585D01*
X521665Y-2341524D01*
X652424Y-2210765D01*
X659485Y-2201926D01*
X664108Y-2194306D01*
X667867Y-2185517D01*
X669696Y-2182622D01*
X672388Y-2180488D01*
X677265Y-2177745D01*
X691083Y-2167991D01*
X703681Y-2156714D01*
X714959Y-2144064D01*
X724763Y-2130298D01*
X732942Y-2115464D01*
X739444Y-2099818D01*
X744118Y-2083562D01*
X746963Y-2066899D01*
X747877Y-2049983D01*
X746963Y-2033117D01*
X744118Y-2016404D01*
X739444Y-2000148D01*
X732942Y-1984502D01*
X724763Y-1969719D01*
X714959Y-1955901D01*
X703681Y-1943303D01*
X691083Y-1932025D01*
X677265Y-1922221D01*
X662482Y-1914042D01*
X646836Y-1907590D01*
X630580Y-1902866D01*
X613918Y-1900072D01*
X597001Y-1899107D01*
X580085Y-1900072D01*
X563422Y-1902866D01*
X547166Y-1907590D01*
X531520Y-1914042D01*
X516737Y-1922221D01*
X502920Y-1932025D01*
X490321Y-1943303D01*
X479043Y-1955901D01*
X469239Y-1969719D01*
X461060Y-1984502D01*
X454558Y-2000148D01*
X449884Y-2016404D01*
X447040Y-2033117D01*
X446125Y-2049983D01*
X447040Y-2066899D01*
X449884Y-2083562D01*
X454558Y-2099818D01*
X461060Y-2115464D01*
X469239Y-2130298D01*
X479043Y-2144064D01*
X484632Y-2150364D01*
X486613Y-2153615D01*
X487222Y-2157425D01*
X486409Y-2161133D01*
X484225Y-2164283D01*
X441451Y-2207107D01*
X438150Y-2209342D01*
X434238Y-2210104D01*
X147269Y-2210104D01*
X143357Y-2209342D01*
X140055Y-2207107D01*
X137871Y-2203805D01*
X137109Y-2199944D01*
X137871Y-2196033D01*
X140055Y-2192731D01*
X143357Y-2190546D01*
X154482Y-2185924D01*
X169265Y-2177745D01*
X183083Y-2167991D01*
X195681Y-2156714D01*
X206959Y-2144064D01*
X216763Y-2130298D01*
X224942Y-2115464D01*
X231444Y-2099818D01*
X236118Y-2083562D01*
X238963Y-2066899D01*
X239877Y-2049983D01*
X238963Y-2033117D01*
X236118Y-2016404D01*
X231444Y-2000148D01*
X224942Y-1984502D01*
X216763Y-1969719D01*
X206959Y-1955901D01*
X195681Y-1943303D01*
X183083Y-1932025D01*
X169265Y-1922221D01*
X154482Y-1914042D01*
X138836Y-1907590D01*
X122580Y-1902866D01*
X105918Y-1900072D01*
X89001Y-1899107D01*
X72085Y-1900072D01*
X55422Y-1902866D01*
X39166Y-1907590D01*
X23520Y-1914042D01*
X8737Y-1922221D01*
X-5080Y-1932025D01*
X-17678Y-1943303D01*
X-28956Y-1955901D01*
X-38760Y-1969719D01*
X-46939Y-1984502D01*
X-53441Y-2000148D01*
X-58115Y-2016404D01*
X-60960Y-2033117D01*
X-61874Y-2049983D01*
X-60960Y-2066899D01*
X-58115Y-2083562D01*
X-53441Y-2099818D01*
X-46939Y-2115464D01*
X-38760Y-2130298D01*
X-28956Y-2144064D01*
X-17678Y-2156714D01*
X-5080Y-2167991D01*
X8737Y-2177745D01*
X23520Y-2185924D01*
X34645Y-2190546D01*
X37947Y-2192731D01*
X40132Y-2196033D01*
X40894Y-2199944D01*
X40132Y-2203805D01*
X37947Y-2207107D01*
X34645Y-2209342D01*
X30733Y-2210104D01*
X-2138730Y-2210104D01*
X-2142642Y-2209342D01*
X-2145944Y-2207107D01*
X-2148128Y-2203805D01*
X-2148890Y-2199944D01*
X-2148128Y-2196033D01*
X-2145944Y-2192731D01*
X-2142642Y-2190546D01*
X-2131517Y-2185924D01*
X-2116734Y-2177745D01*
X-2102916Y-2167991D01*
X-2090318Y-2156714D01*
X-2079040Y-2144064D01*
X-2069236Y-2130298D01*
X-2061057Y-2115464D01*
X-2054555Y-2099818D01*
X-2049881Y-2083562D01*
X-2047036Y-2066899D01*
X-2046122Y-2049983D01*
X-2047036Y-2033117D01*
X-2049881Y-2016404D01*
X-2054555Y-2000148D01*
X-2061057Y-1984502D01*
X-2069236Y-1969719D01*
X-2079040Y-1955901D01*
X-2090318Y-1943303D01*
X-2102916Y-1932025D01*
X-2116785Y-1922170D01*
X-2119122Y-1919935D01*
X-2120595Y-1917039D01*
X-2121103Y-1913889D01*
X-2121154Y-632460D01*
X-2121966Y-623620D01*
X-2122373Y-621182D01*
X-2124506Y-612546D01*
X-2125268Y-610209D01*
X-2128672Y-601980D01*
X-2129790Y-599795D01*
X-2134412Y-592175D01*
X-2141474Y-583336D01*
X-2278989Y-445770D01*
X-2281174Y-442468D01*
X-2281986Y-438556D01*
X-2281174Y-434695D01*
X-2278989Y-431393D01*
X-2275687Y-429158D01*
X-2271826Y-428396D01*
X-1984502Y-428396D01*
X-1980641Y-429158D01*
X-1977339Y-431393D01*
X-1975104Y-434695D01*
X-1974342Y-438556D01*
X-1974291Y-694994D01*
X-1973478Y-703884D01*
X-1973072Y-706272D01*
X-1970938Y-714908D01*
X-1966722Y-725474D01*
X-1965655Y-727659D01*
X-1961032Y-735279D01*
X-1953971Y-744118D01*
X-1727758Y-970381D01*
X-1725574Y-973683D01*
X-1724761Y-977595D01*
X-1724761Y-1012494D01*
X-1724050Y-1018844D01*
X-1722170Y-1024280D01*
X-1719072Y-1029208D01*
X-1715007Y-1033271D01*
X-1710080Y-1036370D01*
X-1704644Y-1038250D01*
X-1698294Y-1039012D01*
X-1578305Y-1039012D01*
X-1571955Y-1038250D01*
X-1566519Y-1036370D01*
X-1561592Y-1033271D01*
X-1557528Y-1029208D01*
X-1554429Y-1024280D01*
X-1552549Y-1018844D01*
X-1551787Y-1012494D01*
X-1551787Y-892505D01*
X-1552549Y-886155D01*
X-1554429Y-880719D01*
X-1557528Y-875792D01*
X-1561592Y-871728D01*
X-1566519Y-868629D01*
X-1571955Y-866749D01*
X-1578305Y-866038D01*
X-1613204Y-866038D01*
X-1617116Y-865225D01*
X-1620418Y-863041D01*
X-1819554Y-663905D01*
X-1821738Y-660603D01*
X-1822551Y-656691D01*
X-1822551Y-388162D01*
X-1821738Y-384251D01*
X-1819554Y-380949D01*
X-1742135Y-303530D01*
X-1738833Y-301345D01*
X-1734921Y-300583D01*
X-1731060Y-301345D01*
X-1727758Y-303530D01*
X-1725574Y-306832D01*
X-1724761Y-310743D01*
X-1724761Y-415594D01*
X-1724050Y-421944D01*
X-1722170Y-427380D01*
X-1719072Y-432308D01*
X-1715007Y-436372D01*
X-1710080Y-439470D01*
X-1704644Y-441350D01*
X-1698294Y-442112D01*
X-1578305Y-442112D01*
X-1571955Y-441350D01*
X-1566519Y-439470D01*
X-1561592Y-436372D01*
X-1557528Y-432308D01*
X-1554429Y-427380D01*
X-1552549Y-421944D01*
X-1551787Y-415594D01*
X-1551787Y-295605D01*
X-1552549Y-289255D01*
X-1554429Y-283819D01*
X-1557528Y-278892D01*
X-1561592Y-274828D01*
X-1566519Y-271729D01*
X-1571955Y-269849D01*
X-1578305Y-269138D01*
X-1683156Y-269138D01*
X-1687068Y-268325D01*
X-1690370Y-266141D01*
X-1692554Y-262839D01*
X-1693316Y-258978D01*
X-1692554Y-255066D01*
X-1690370Y-251764D01*
X-1644497Y-205841D01*
X-1638807Y-198983D01*
X-1637385Y-196951D01*
X-1632813Y-189382D01*
X-1631696Y-187147D01*
X-1628292Y-178968D01*
X-1627530Y-176631D01*
X-1625396Y-167995D01*
X-1624990Y-165557D01*
X-1624126Y-156718D01*
X-1624076Y-92303D01*
X-1623618Y-89255D01*
X-1622247Y-86461D01*
X-1618183Y-80721D01*
X-1612188Y-69138D01*
X-1607820Y-56845D01*
X-1605178Y-44043D01*
X-1604264Y-30988D01*
X-1605178Y-17983D01*
X-1607820Y-5181D01*
X-1612188Y7162D01*
X-1618183Y18745D01*
X-1625752Y29413D01*
X-1634642Y38963D01*
X-1644802Y47193D01*
X-1655927Y54000D01*
X-1667916Y59182D01*
X-1680514Y62738D01*
X-1693468Y64516D01*
X-1706524Y64516D01*
X-1719478Y62738D01*
X-1732076Y59182D01*
X-1744065Y54000D01*
X-1755190Y47193D01*
X-1765350Y38963D01*
X-1774240Y29413D01*
X-1781810Y18745D01*
X-1787804Y7162D01*
X-1792173Y-5181D01*
X-1794814Y-17983D01*
X-1795729Y-30988D01*
X-1794814Y-44043D01*
X-1792173Y-56845D01*
X-1787804Y-69138D01*
X-1781810Y-80721D01*
X-1777746Y-86461D01*
X-1776374Y-89255D01*
X-1775917Y-92303D01*
X-1775917Y-118414D01*
X-1776679Y-122275D01*
X-1778863Y-125577D01*
X-1926894Y-273608D01*
X-1930196Y-275844D01*
X-1934108Y-276606D01*
X-2443937Y-276606D01*
X-2447848Y-275844D01*
X-2451150Y-273608D01*
X-2626207Y-98552D01*
X-2628442Y-95250D01*
X-2629204Y-91338D01*
X-2629255Y269341D01*
X-2630068Y278180D01*
X-2630474Y280619D01*
X-2632608Y289255D01*
X-2633370Y291592D01*
X-2636774Y299821D01*
X-2637891Y302006D01*
X-2642514Y309626D01*
X-2649575Y318465D01*
X-2767634Y436524D01*
X-2776474Y443585D01*
X-2784094Y448208D01*
X-2786278Y449326D01*
X-2794508Y452729D01*
X-2796844Y453491D01*
X-2805480Y455625D01*
X-2807817Y456031D01*
X-2818384Y456844D01*
X-2821482Y457555D01*
X-2824226Y459232D01*
X-2826258Y461670D01*
X-2830118Y467918D01*
X-2834132Y471932D01*
X-2839059Y475030D01*
X-2844495Y476910D01*
X-2850845Y477621D01*
X-2991154Y477621D01*
X-2997504Y476910D01*
X-3002940Y475030D01*
X-3007868Y471932D01*
X-3011932Y467868D01*
X-3015030Y462940D01*
X-3016910Y457504D01*
X-3017621Y451154D01*
X-3017621Y310845D01*
X-3016910Y304495D01*
X-3015030Y299059D01*
X-3011932Y294132D01*
X-3007868Y290068D01*
X-3002940Y286969D01*
X-2997504Y285089D01*
X-2991154Y284327D01*
X-2850845Y284327D01*
X-2844495Y285089D01*
X-2840380Y286512D01*
X-2836672Y287070D01*
X-2832963Y286207D01*
X-2829864Y284124D01*
X-2783992Y238252D01*
X-2781757Y234950D01*
X-2780995Y231038D01*
X-2780944Y-129641D01*
X-2780131Y-138480D01*
X-2779725Y-140919D01*
X-2777591Y-149555D01*
X-2776829Y-151892D01*
X-2773426Y-160121D01*
X-2772308Y-162306D01*
X-2767685Y-169926D01*
X-2760624Y-178765D01*
X-2275890Y-663549D01*
X-2273655Y-666851D01*
X-2272893Y-670763D01*
X-2272893Y-1913889D01*
X-2273401Y-1917039D01*
X-2274874Y-1919935D01*
X-2277211Y-1922170D01*
X-2291080Y-1932025D01*
X-2303678Y-1943303D01*
X-2314956Y-1955901D01*
X-2324760Y-1969719D01*
X-2332939Y-1984502D01*
X-2339441Y-2000148D01*
X-2344115Y-2016404D01*
X-2346960Y-2033117D01*
X-2347874Y-2049983D01*
X-2346960Y-2066899D01*
X-2344115Y-2083562D01*
X-2339441Y-2099818D01*
X-2332939Y-2115464D01*
X-2324760Y-2130298D01*
X-2314956Y-2144064D01*
X-2303678Y-2156714D01*
X-2291080Y-2167991D01*
X-2277262Y-2177745D01*
X-2262479Y-2185924D01*
X-2251354Y-2190546D01*
X-2248052Y-2192731D01*
X-2245868Y-2196033D01*
X-2245106Y-2199944D01*
X-2245868Y-2203805D01*
X-2248052Y-2207107D01*
X-2251354Y-2209342D01*
X-2255266Y-2210104D01*
X-2466238Y-2210104D01*
X-2470150Y-2209342D01*
X-2473452Y-2207107D01*
X-2537307Y-2143252D01*
X-2539542Y-2139950D01*
X-2540304Y-2136038D01*
X-2540355Y-1026058D01*
X-2541168Y-1017219D01*
X-2541574Y-1014780D01*
X-2543708Y-1006144D01*
X-2544470Y-1003808D01*
X-2547874Y-995578D01*
X-2548991Y-993394D01*
X-2553614Y-985774D01*
X-2560675Y-976934D01*
X-2704134Y-833475D01*
X-2712974Y-826414D01*
X-2720594Y-821791D01*
X-2722778Y-820674D01*
X-2731008Y-817270D01*
X-2733344Y-816508D01*
X-2741980Y-814374D01*
X-2744419Y-813968D01*
X-2753258Y-813155D01*
X-2817672Y-813104D01*
X-2821025Y-812495D01*
X-2824022Y-810818D01*
X-2826308Y-808278D01*
X-2830068Y-802132D01*
X-2834132Y-798068D01*
X-2839059Y-794969D01*
X-2844495Y-793089D01*
X-2850845Y-792378D01*
X-2991154Y-792378D01*
X-2997504Y-793089D01*
X-3002940Y-794969D01*
X-3007868Y-798068D01*
X-3011932Y-802132D01*
X-3015030Y-807059D01*
X-3016910Y-812495D01*
X-3017621Y-818845D01*
X-3017621Y-959154D01*
X-3016910Y-965504D01*
X-3015030Y-970940D01*
X-3011932Y-975868D01*
X-3007868Y-979932D01*
X-3002940Y-983030D01*
X-2997504Y-984910D01*
X-2991154Y-985672D01*
X-2850845Y-985672D01*
X-2844495Y-984910D01*
X-2839059Y-983030D01*
X-2834132Y-979932D01*
X-2830068Y-975868D01*
X-2826308Y-969721D01*
X-2824022Y-967181D01*
X-2821025Y-965504D01*
X-2817672Y-964895D01*
X-2791561Y-964895D01*
X-2787650Y-965657D01*
X-2784348Y-967892D01*
X-2695092Y-1057148D01*
X-2692857Y-1060450D01*
X-2692095Y-1064361D01*
X-2692044Y-2174341D01*
X-2691231Y-2183180D01*
X-2690825Y-2185619D01*
X-2688691Y-2194255D01*
X-2687929Y-2196592D01*
X-2684526Y-2204821D01*
X-2683408Y-2207006D01*
X-2678785Y-2214626D01*
X-2671724Y-2223465D01*
X-2553665Y-2341524D01*
X-2544826Y-2348585D01*
X-2537206Y-2353208D01*
X-2535021Y-2354326D01*
X-2526792Y-2357729D01*
X-2524455Y-2358491D01*
X-2515819Y-2360625D01*
X-2513380Y-2361031D01*
X-2504541Y-2361844D01*
G37*
G36*
X2037537Y-2293670D02*
G01*
X2093620Y-2293670D01*
X2093620Y-2237536D01*
X2091486Y-2238502D01*
X2078482Y-2246376D01*
X2066493Y-2255774D01*
X2055774Y-2266492D01*
X2046376Y-2278481D01*
X2038502Y-2291486D01*
G37*
G36*
X2206345Y-2293670D02*
G01*
X2262428Y-2293670D01*
X2261463Y-2291486D01*
X2253589Y-2278481D01*
X2244191Y-2266492D01*
X2233472Y-2255774D01*
X2221484Y-2246376D01*
X2208479Y-2238502D01*
X2206345Y-2237536D01*
G37*
G36*
X-2991154Y-2255672D02*
G01*
X-2850845Y-2255672D01*
X-2844495Y-2254910D01*
X-2839059Y-2253030D01*
X-2834132Y-2249932D01*
X-2830068Y-2245868D01*
X-2826969Y-2240940D01*
X-2825089Y-2235504D01*
X-2824327Y-2229154D01*
X-2824327Y-2088845D01*
X-2825089Y-2082495D01*
X-2826969Y-2077059D01*
X-2830068Y-2072132D01*
X-2834132Y-2068068D01*
X-2839059Y-2064969D01*
X-2844495Y-2063089D01*
X-2850845Y-2062378D01*
X-2991154Y-2062378D01*
X-2997504Y-2063089D01*
X-3002940Y-2064969D01*
X-3007868Y-2068068D01*
X-3011932Y-2072132D01*
X-3015030Y-2077059D01*
X-3016910Y-2082495D01*
X-3017621Y-2088845D01*
X-3017621Y-2229154D01*
X-3016910Y-2235504D01*
X-3015030Y-2240940D01*
X-3011932Y-2245868D01*
X-3007868Y-2249932D01*
X-3002940Y-2253030D01*
X-2997504Y-2254910D01*
G37*
G36*
X3104845Y-2255672D02*
G01*
X3245154Y-2255672D01*
X3251504Y-2254910D01*
X3256940Y-2253030D01*
X3261867Y-2249932D01*
X3265932Y-2245868D01*
X3269030Y-2240940D01*
X3270910Y-2235504D01*
X3271672Y-2229154D01*
X3271672Y-2088845D01*
X3270910Y-2082495D01*
X3269030Y-2077059D01*
X3265932Y-2072132D01*
X3261867Y-2068068D01*
X3256940Y-2064969D01*
X3251504Y-2063089D01*
X3245154Y-2062378D01*
X3104845Y-2062378D01*
X3098495Y-2063089D01*
X3093059Y-2064969D01*
X3088132Y-2068068D01*
X3084068Y-2072132D01*
X3080969Y-2077059D01*
X3079089Y-2082495D01*
X3078327Y-2088845D01*
X3078327Y-2229154D01*
X3079089Y-2235504D01*
X3080969Y-2240940D01*
X3084068Y-2245868D01*
X3088132Y-2249932D01*
X3093059Y-2253030D01*
X3098495Y-2254910D01*
G37*
G36*
X2850845Y-2255672D02*
G01*
X2991154Y-2255672D01*
X2997504Y-2254910D01*
X3002940Y-2253030D01*
X3007868Y-2249932D01*
X3011932Y-2245868D01*
X3015030Y-2240940D01*
X3016910Y-2235504D01*
X3017672Y-2229154D01*
X3017672Y-2088845D01*
X3016910Y-2082495D01*
X3015030Y-2077059D01*
X3011932Y-2072132D01*
X3007868Y-2068068D01*
X3002940Y-2064969D01*
X2997504Y-2063089D01*
X2991154Y-2062378D01*
X2850845Y-2062378D01*
X2844495Y-2063089D01*
X2839059Y-2064969D01*
X2834132Y-2068068D01*
X2830068Y-2072132D01*
X2826969Y-2077059D01*
X2825089Y-2082495D01*
X2824327Y-2088845D01*
X2824327Y-2229154D01*
X2825089Y-2235504D01*
X2826969Y-2240940D01*
X2830068Y-2245868D01*
X2834132Y-2249932D01*
X2839059Y-2253030D01*
X2844495Y-2254910D01*
G37*
G36*
X-2991154Y-2001672D02*
G01*
X-2850845Y-2001672D01*
X-2844495Y-2000910D01*
X-2839059Y-1999030D01*
X-2834132Y-1995932D01*
X-2830068Y-1991868D01*
X-2826969Y-1986940D01*
X-2825089Y-1981504D01*
X-2824327Y-1975154D01*
X-2824327Y-1834845D01*
X-2825089Y-1828495D01*
X-2826969Y-1823059D01*
X-2830068Y-1818132D01*
X-2834132Y-1814068D01*
X-2839059Y-1810969D01*
X-2844495Y-1809089D01*
X-2850845Y-1808378D01*
X-2991154Y-1808378D01*
X-2997504Y-1809089D01*
X-3002940Y-1810969D01*
X-3007868Y-1814068D01*
X-3011932Y-1818132D01*
X-3015030Y-1823059D01*
X-3016910Y-1828495D01*
X-3017621Y-1834845D01*
X-3017621Y-1975154D01*
X-3016910Y-1981504D01*
X-3015030Y-1986940D01*
X-3011932Y-1991868D01*
X-3007868Y-1995932D01*
X-3002940Y-1999030D01*
X-2997504Y-2000910D01*
G37*
G36*
X2850845Y-2001672D02*
G01*
X2991154Y-2001672D01*
X2997504Y-2000910D01*
X3002940Y-1999030D01*
X3007868Y-1995932D01*
X3011932Y-1991868D01*
X3015030Y-1986940D01*
X3016910Y-1981504D01*
X3017672Y-1975154D01*
X3017672Y-1834845D01*
X3016910Y-1828495D01*
X3015030Y-1823059D01*
X3011932Y-1818132D01*
X3007868Y-1814068D01*
X3002940Y-1810969D01*
X2997504Y-1809089D01*
X2991154Y-1808378D01*
X2850845Y-1808378D01*
X2844495Y-1809089D01*
X2839059Y-1810969D01*
X2834132Y-1814068D01*
X2830068Y-1818132D01*
X2826969Y-1823059D01*
X2825089Y-1828495D01*
X2824327Y-1834845D01*
X2824327Y-1975154D01*
X2825089Y-1981504D01*
X2826969Y-1986940D01*
X2830068Y-1991868D01*
X2834132Y-1995932D01*
X2839059Y-1999030D01*
X2844495Y-2000910D01*
G37*
G36*
X3104845Y-2001672D02*
G01*
X3245154Y-2001672D01*
X3251504Y-2000910D01*
X3256940Y-1999030D01*
X3261867Y-1995932D01*
X3265932Y-1991868D01*
X3269030Y-1986940D01*
X3270910Y-1981504D01*
X3271672Y-1975154D01*
X3271672Y-1834845D01*
X3270910Y-1828495D01*
X3269030Y-1823059D01*
X3265932Y-1818132D01*
X3261867Y-1814068D01*
X3256940Y-1810969D01*
X3251504Y-1809089D01*
X3245154Y-1808378D01*
X3104845Y-1808378D01*
X3098495Y-1809089D01*
X3093059Y-1810969D01*
X3088132Y-1814068D01*
X3084068Y-1818132D01*
X3080969Y-1823059D01*
X3079089Y-1828495D01*
X3078327Y-1834845D01*
X3078327Y-1975154D01*
X3079089Y-1981504D01*
X3080969Y-1986940D01*
X3084068Y-1991868D01*
X3088132Y-1995932D01*
X3093059Y-1999030D01*
X3098495Y-2000910D01*
G37*
G36*
X1788566Y-1810918D02*
G01*
X1957425Y-1810918D01*
X1963724Y-1810207D01*
X1969211Y-1808276D01*
X1974088Y-1805178D01*
X1978202Y-1801114D01*
X1981301Y-1796186D01*
X1983181Y-1790750D01*
X1983892Y-1784400D01*
X1983892Y-1615592D01*
X1983181Y-1609242D01*
X1981301Y-1603806D01*
X1978202Y-1598879D01*
X1974088Y-1594815D01*
X1969211Y-1591716D01*
X1963724Y-1589786D01*
X1957425Y-1589074D01*
X1788566Y-1589074D01*
X1782267Y-1589786D01*
X1776780Y-1591716D01*
X1771904Y-1594815D01*
X1767789Y-1598879D01*
X1764690Y-1603806D01*
X1762810Y-1609242D01*
X1762099Y-1615592D01*
X1762099Y-1784400D01*
X1762810Y-1790750D01*
X1764690Y-1796186D01*
X1767789Y-1801114D01*
X1771904Y-1805178D01*
X1776780Y-1808276D01*
X1782267Y-1810207D01*
G37*
G36*
X2078126Y-1799386D02*
G01*
X2078126Y-1748840D01*
X2027529Y-1748840D01*
X2034082Y-1760474D01*
X2042566Y-1771853D01*
X2052421Y-1782064D01*
X2063546Y-1790954D01*
X2075688Y-1798320D01*
G37*
G36*
X2175865Y-1799336D02*
G01*
X2184501Y-1794814D01*
X2196134Y-1786686D01*
X2206650Y-1777136D01*
X2215845Y-1766316D01*
X2223617Y-1754428D01*
X2226310Y-1748840D01*
X2175865Y-1748840D01*
G37*
G36*
X-2991154Y-1747672D02*
G01*
X-2850845Y-1747672D01*
X-2844495Y-1746910D01*
X-2839059Y-1745030D01*
X-2834132Y-1741932D01*
X-2830068Y-1737868D01*
X-2826969Y-1732940D01*
X-2825089Y-1727504D01*
X-2824327Y-1721154D01*
X-2824327Y-1580845D01*
X-2825089Y-1574495D01*
X-2826969Y-1569059D01*
X-2830068Y-1564132D01*
X-2834132Y-1560068D01*
X-2839059Y-1556969D01*
X-2844495Y-1555089D01*
X-2850845Y-1554378D01*
X-2991154Y-1554378D01*
X-2997504Y-1555089D01*
X-3002940Y-1556969D01*
X-3007868Y-1560068D01*
X-3011932Y-1564132D01*
X-3015030Y-1569059D01*
X-3016910Y-1574495D01*
X-3017621Y-1580845D01*
X-3017621Y-1721154D01*
X-3016910Y-1727504D01*
X-3015030Y-1732940D01*
X-3011932Y-1737868D01*
X-3007868Y-1741932D01*
X-3002940Y-1745030D01*
X-2997504Y-1746910D01*
G37*
G36*
X-3245154Y-1747672D02*
G01*
X-3104845Y-1747672D01*
X-3098495Y-1746910D01*
X-3093059Y-1745030D01*
X-3088132Y-1741932D01*
X-3084068Y-1737868D01*
X-3080969Y-1732940D01*
X-3079089Y-1727504D01*
X-3078327Y-1721154D01*
X-3078327Y-1580845D01*
X-3079089Y-1574495D01*
X-3080969Y-1569059D01*
X-3084068Y-1564132D01*
X-3088132Y-1560068D01*
X-3093059Y-1556969D01*
X-3098495Y-1555089D01*
X-3104845Y-1554378D01*
X-3245154Y-1554378D01*
X-3251504Y-1555089D01*
X-3256940Y-1556969D01*
X-3261867Y-1560068D01*
X-3265932Y-1564132D01*
X-3269030Y-1569059D01*
X-3270910Y-1574495D01*
X-3271621Y-1580845D01*
X-3271621Y-1721154D01*
X-3270910Y-1727504D01*
X-3269030Y-1732940D01*
X-3265932Y-1737868D01*
X-3261867Y-1741932D01*
X-3256940Y-1745030D01*
X-3251504Y-1746910D01*
G37*
G36*
X3104845Y-1747672D02*
G01*
X3245154Y-1747672D01*
X3251504Y-1746910D01*
X3256940Y-1745030D01*
X3261867Y-1741932D01*
X3265932Y-1737868D01*
X3269030Y-1732940D01*
X3270910Y-1727504D01*
X3271672Y-1721154D01*
X3271672Y-1580845D01*
X3270910Y-1574495D01*
X3269030Y-1569059D01*
X3265932Y-1564132D01*
X3261867Y-1560068D01*
X3256940Y-1556969D01*
X3251504Y-1555089D01*
X3245154Y-1554378D01*
X3104845Y-1554378D01*
X3098495Y-1555089D01*
X3093059Y-1556969D01*
X3088132Y-1560068D01*
X3084068Y-1564132D01*
X3080969Y-1569059D01*
X3079089Y-1574495D01*
X3078327Y-1580845D01*
X3078327Y-1721154D01*
X3079089Y-1727504D01*
X3080969Y-1732940D01*
X3084068Y-1737868D01*
X3088132Y-1741932D01*
X3093059Y-1745030D01*
X3098495Y-1746910D01*
G37*
G36*
X2850845Y-1747672D02*
G01*
X2991154Y-1747672D01*
X2997504Y-1746910D01*
X3002940Y-1745030D01*
X3007868Y-1741932D01*
X3011932Y-1737868D01*
X3015030Y-1732940D01*
X3016910Y-1727504D01*
X3017672Y-1721154D01*
X3017672Y-1580845D01*
X3016910Y-1574495D01*
X3015030Y-1569059D01*
X3011932Y-1564132D01*
X3007868Y-1560068D01*
X3002940Y-1556969D01*
X2997504Y-1555089D01*
X2991154Y-1554378D01*
X2850845Y-1554378D01*
X2844495Y-1555089D01*
X2839059Y-1556969D01*
X2834132Y-1560068D01*
X2830068Y-1564132D01*
X2826969Y-1569059D01*
X2825089Y-1574495D01*
X2824327Y-1580845D01*
X2824327Y-1721154D01*
X2825089Y-1727504D01*
X2826969Y-1732940D01*
X2830068Y-1737868D01*
X2834132Y-1741932D01*
X2839059Y-1745030D01*
X2844495Y-1746910D01*
G37*
G36*
X2175865Y-1651152D02*
G01*
X2226310Y-1651152D01*
X2223617Y-1645564D01*
X2215845Y-1633677D01*
X2206650Y-1622856D01*
X2196134Y-1613306D01*
X2184501Y-1605178D01*
X2175865Y-1600657D01*
G37*
G36*
X2027529Y-1651152D02*
G01*
X2078126Y-1651152D01*
X2078126Y-1600606D01*
X2075688Y-1601673D01*
X2063546Y-1609039D01*
X2052421Y-1617929D01*
X2042566Y-1628139D01*
X2034082Y-1639519D01*
G37*
G36*
X-2991154Y-1493672D02*
G01*
X-2850845Y-1493672D01*
X-2844495Y-1492910D01*
X-2839059Y-1491030D01*
X-2834132Y-1487932D01*
X-2830068Y-1483868D01*
X-2826969Y-1478940D01*
X-2825089Y-1473504D01*
X-2824327Y-1467154D01*
X-2824327Y-1326845D01*
X-2825089Y-1320495D01*
X-2826969Y-1315059D01*
X-2830068Y-1310132D01*
X-2834132Y-1306068D01*
X-2839059Y-1302969D01*
X-2844495Y-1301089D01*
X-2850845Y-1300378D01*
X-2991154Y-1300378D01*
X-2997504Y-1301089D01*
X-3002940Y-1302969D01*
X-3007868Y-1306068D01*
X-3011932Y-1310132D01*
X-3015030Y-1315059D01*
X-3016910Y-1320495D01*
X-3017621Y-1326845D01*
X-3017621Y-1467154D01*
X-3016910Y-1473504D01*
X-3015030Y-1478940D01*
X-3011932Y-1483868D01*
X-3007868Y-1487932D01*
X-3002940Y-1491030D01*
X-2997504Y-1492910D01*
G37*
G36*
X-3245154Y-1493672D02*
G01*
X-3104845Y-1493672D01*
X-3098495Y-1492910D01*
X-3093059Y-1491030D01*
X-3088132Y-1487932D01*
X-3084068Y-1483868D01*
X-3080969Y-1478940D01*
X-3079089Y-1473504D01*
X-3078327Y-1467154D01*
X-3078327Y-1326845D01*
X-3079089Y-1320495D01*
X-3080969Y-1315059D01*
X-3084068Y-1310132D01*
X-3088132Y-1306068D01*
X-3093059Y-1302969D01*
X-3098495Y-1301089D01*
X-3104845Y-1300378D01*
X-3245154Y-1300378D01*
X-3251504Y-1301089D01*
X-3256940Y-1302969D01*
X-3261867Y-1306068D01*
X-3265932Y-1310132D01*
X-3269030Y-1315059D01*
X-3270910Y-1320495D01*
X-3271621Y-1326845D01*
X-3271621Y-1467154D01*
X-3270910Y-1473504D01*
X-3269030Y-1478940D01*
X-3265932Y-1483868D01*
X-3261867Y-1487932D01*
X-3256940Y-1491030D01*
X-3251504Y-1492910D01*
G37*
G36*
X2850845Y-1493672D02*
G01*
X2991154Y-1493672D01*
X2997504Y-1492910D01*
X3002940Y-1491030D01*
X3007868Y-1487932D01*
X3011932Y-1483868D01*
X3015030Y-1478940D01*
X3016910Y-1473504D01*
X3017672Y-1467154D01*
X3017672Y-1326845D01*
X3016910Y-1320495D01*
X3015030Y-1315059D01*
X3011932Y-1310132D01*
X3007868Y-1306068D01*
X3002940Y-1302969D01*
X2997504Y-1301089D01*
X2991154Y-1300378D01*
X2850845Y-1300378D01*
X2844495Y-1301089D01*
X2839059Y-1302969D01*
X2834132Y-1306068D01*
X2830068Y-1310132D01*
X2826969Y-1315059D01*
X2825089Y-1320495D01*
X2824327Y-1326845D01*
X2824327Y-1467154D01*
X2825089Y-1473504D01*
X2826969Y-1478940D01*
X2830068Y-1483868D01*
X2834132Y-1487932D01*
X2839059Y-1491030D01*
X2844495Y-1492910D01*
G37*
G36*
X3104845Y-1493672D02*
G01*
X3245154Y-1493672D01*
X3251504Y-1492910D01*
X3256940Y-1491030D01*
X3261867Y-1487932D01*
X3265932Y-1483868D01*
X3269030Y-1478940D01*
X3270910Y-1473504D01*
X3271672Y-1467154D01*
X3271672Y-1326845D01*
X3270910Y-1320495D01*
X3269030Y-1315059D01*
X3265932Y-1310132D01*
X3261867Y-1306068D01*
X3256940Y-1302969D01*
X3251504Y-1301089D01*
X3245154Y-1300378D01*
X3104845Y-1300378D01*
X3098495Y-1301089D01*
X3093059Y-1302969D01*
X3088132Y-1306068D01*
X3084068Y-1310132D01*
X3080969Y-1315059D01*
X3079089Y-1320495D01*
X3078327Y-1326845D01*
X3078327Y-1467154D01*
X3079089Y-1473504D01*
X3080969Y-1478940D01*
X3084068Y-1483868D01*
X3088132Y-1487932D01*
X3093059Y-1491030D01*
X3098495Y-1492910D01*
G37*
G36*
X1799336Y-1300886D02*
G01*
X1950618Y-1300886D01*
X1956917Y-1300175D01*
X1962404Y-1298295D01*
X1967280Y-1295196D01*
X1971395Y-1291132D01*
X1974494Y-1286205D01*
X1976374Y-1280769D01*
X1977085Y-1274419D01*
X1977085Y-1125575D01*
X1976374Y-1119225D01*
X1974494Y-1113790D01*
X1971395Y-1108862D01*
X1967280Y-1104798D01*
X1962404Y-1101699D01*
X1956917Y-1099820D01*
X1950618Y-1099108D01*
X1799336Y-1099108D01*
X1793036Y-1099820D01*
X1787601Y-1101699D01*
X1782673Y-1104798D01*
X1778609Y-1108862D01*
X1775510Y-1113790D01*
X1773580Y-1119225D01*
X1772869Y-1125575D01*
X1772869Y-1274419D01*
X1773580Y-1280769D01*
X1775510Y-1286205D01*
X1778609Y-1291132D01*
X1782673Y-1295196D01*
X1787601Y-1298295D01*
X1793036Y-1300175D01*
G37*
G36*
X2081123Y-1290726D02*
G01*
X2081123Y-1243838D01*
X2034235Y-1243838D01*
X2034946Y-1245514D01*
X2041804Y-1257096D01*
X2050186Y-1267663D01*
X2059838Y-1277061D01*
X2070709Y-1285036D01*
G37*
G36*
X2168855Y-1290624D02*
G01*
X2173478Y-1288491D01*
X2184857Y-1281226D01*
X2195118Y-1272540D01*
X2204161Y-1262532D01*
X2211781Y-1251407D01*
X2215591Y-1243838D01*
X2168855Y-1243838D01*
G37*
G36*
X-2991154Y-1239672D02*
G01*
X-2850845Y-1239672D01*
X-2844495Y-1238910D01*
X-2839059Y-1237030D01*
X-2834132Y-1233932D01*
X-2830068Y-1229868D01*
X-2826969Y-1224940D01*
X-2825089Y-1219504D01*
X-2824327Y-1213154D01*
X-2824327Y-1072845D01*
X-2825089Y-1066495D01*
X-2826969Y-1061059D01*
X-2830068Y-1056132D01*
X-2834132Y-1052068D01*
X-2839059Y-1048969D01*
X-2844495Y-1047089D01*
X-2850845Y-1046378D01*
X-2991154Y-1046378D01*
X-2997504Y-1047089D01*
X-3002940Y-1048969D01*
X-3007868Y-1052068D01*
X-3011932Y-1056132D01*
X-3015030Y-1061059D01*
X-3016910Y-1066495D01*
X-3017621Y-1072845D01*
X-3017621Y-1213154D01*
X-3016910Y-1219504D01*
X-3015030Y-1224940D01*
X-3011932Y-1229868D01*
X-3007868Y-1233932D01*
X-3002940Y-1237030D01*
X-2997504Y-1238910D01*
G37*
G36*
X-3245154Y-1239672D02*
G01*
X-3104845Y-1239672D01*
X-3098495Y-1238910D01*
X-3093059Y-1237030D01*
X-3088132Y-1233932D01*
X-3084068Y-1229868D01*
X-3080969Y-1224940D01*
X-3079089Y-1219504D01*
X-3078327Y-1213154D01*
X-3078327Y-1072845D01*
X-3079089Y-1066495D01*
X-3080969Y-1061059D01*
X-3084068Y-1056132D01*
X-3088132Y-1052068D01*
X-3093059Y-1048969D01*
X-3098495Y-1047089D01*
X-3104845Y-1046378D01*
X-3245154Y-1046378D01*
X-3251504Y-1047089D01*
X-3256940Y-1048969D01*
X-3261867Y-1052068D01*
X-3265932Y-1056132D01*
X-3269030Y-1061059D01*
X-3270910Y-1066495D01*
X-3271621Y-1072845D01*
X-3271621Y-1213154D01*
X-3270910Y-1219504D01*
X-3269030Y-1224940D01*
X-3265932Y-1229868D01*
X-3261867Y-1233932D01*
X-3256940Y-1237030D01*
X-3251504Y-1238910D01*
G37*
G36*
X2850845Y-1239672D02*
G01*
X2991154Y-1239672D01*
X2997504Y-1238910D01*
X3002940Y-1237030D01*
X3007868Y-1233932D01*
X3011932Y-1229868D01*
X3015030Y-1224940D01*
X3016910Y-1219504D01*
X3017672Y-1213154D01*
X3017672Y-1072845D01*
X3016910Y-1066495D01*
X3015030Y-1061059D01*
X3011932Y-1056132D01*
X3007868Y-1052068D01*
X3002940Y-1048969D01*
X2997504Y-1047089D01*
X2991154Y-1046378D01*
X2850845Y-1046378D01*
X2844495Y-1047089D01*
X2839059Y-1048969D01*
X2834132Y-1052068D01*
X2830068Y-1056132D01*
X2826969Y-1061059D01*
X2825089Y-1066495D01*
X2824327Y-1072845D01*
X2824327Y-1213154D01*
X2825089Y-1219504D01*
X2826969Y-1224940D01*
X2830068Y-1229868D01*
X2834132Y-1233932D01*
X2839059Y-1237030D01*
X2844495Y-1238910D01*
G37*
G36*
X3104845Y-1239672D02*
G01*
X3245154Y-1239672D01*
X3251504Y-1238910D01*
X3256940Y-1237030D01*
X3261867Y-1233932D01*
X3265932Y-1229868D01*
X3269030Y-1224940D01*
X3270910Y-1219504D01*
X3271672Y-1213154D01*
X3271672Y-1072845D01*
X3270910Y-1066495D01*
X3269030Y-1061059D01*
X3265932Y-1056132D01*
X3261867Y-1052068D01*
X3256940Y-1048969D01*
X3251504Y-1047089D01*
X3245154Y-1046378D01*
X3104845Y-1046378D01*
X3098495Y-1047089D01*
X3093059Y-1048969D01*
X3088132Y-1052068D01*
X3084068Y-1056132D01*
X3080969Y-1061059D01*
X3079089Y-1066495D01*
X3078327Y-1072845D01*
X3078327Y-1213154D01*
X3079089Y-1219504D01*
X3080969Y-1224940D01*
X3084068Y-1229868D01*
X3088132Y-1233932D01*
X3093059Y-1237030D01*
X3098495Y-1238910D01*
G37*
G36*
X2168855Y-1156157D02*
G01*
X2215591Y-1156157D01*
X2211781Y-1148588D01*
X2204161Y-1137462D01*
X2195118Y-1127455D01*
X2184857Y-1118768D01*
X2173478Y-1111504D01*
X2168855Y-1109370D01*
G37*
G36*
X2034235Y-1156157D02*
G01*
X2081123Y-1156157D01*
X2081123Y-1109268D01*
X2070709Y-1114958D01*
X2059838Y-1122934D01*
X2050186Y-1132332D01*
X2041804Y-1142898D01*
X2034946Y-1154480D01*
G37*
G36*
X-682294Y-1039012D02*
G01*
X-562305Y-1039012D01*
X-555955Y-1038250D01*
X-550519Y-1036370D01*
X-545592Y-1033271D01*
X-541528Y-1029208D01*
X-538429Y-1024280D01*
X-536549Y-1018844D01*
X-535787Y-1012494D01*
X-535787Y-892505D01*
X-536549Y-886155D01*
X-538429Y-880719D01*
X-541528Y-875792D01*
X-545592Y-871728D01*
X-550519Y-868629D01*
X-555955Y-866749D01*
X-562305Y-866038D01*
X-682294Y-866038D01*
X-688644Y-866749D01*
X-694080Y-868629D01*
X-699008Y-871728D01*
X-703072Y-875792D01*
X-706170Y-880719D01*
X-708050Y-886155D01*
X-708761Y-892505D01*
X-708761Y-1012494D01*
X-708050Y-1018844D01*
X-706170Y-1024280D01*
X-703072Y-1029208D01*
X-699008Y-1033271D01*
X-694080Y-1036370D01*
X-688644Y-1038250D01*
G37*
G36*
X-68021Y-1036472D02*
G01*
X52019Y-1036472D01*
X58318Y-1035761D01*
X63804Y-1033881D01*
X68681Y-1030782D01*
X72796Y-1026668D01*
X75844Y-1021791D01*
X77774Y-1016304D01*
X78486Y-1010005D01*
X78486Y-889965D01*
X77774Y-883666D01*
X75844Y-878230D01*
X72796Y-873302D01*
X68681Y-869238D01*
X63804Y-866140D01*
X58318Y-864209D01*
X52019Y-863498D01*
X-68021Y-863498D01*
X-74320Y-864209D01*
X-79806Y-866140D01*
X-84683Y-869238D01*
X-88798Y-873302D01*
X-91846Y-878230D01*
X-93776Y-883666D01*
X-94488Y-889965D01*
X-94488Y-1010005D01*
X-93776Y-1016304D01*
X-91846Y-1021791D01*
X-88798Y-1026668D01*
X-84683Y-1030782D01*
X-79806Y-1033881D01*
X-74320Y-1035761D01*
G37*
G36*
X947978Y-1036472D02*
G01*
X1068019Y-1036472D01*
X1074318Y-1035761D01*
X1079804Y-1033881D01*
X1084681Y-1030782D01*
X1088796Y-1026668D01*
X1091844Y-1021791D01*
X1093774Y-1016304D01*
X1094486Y-1010005D01*
X1094486Y-889965D01*
X1093774Y-883666D01*
X1091844Y-878230D01*
X1088796Y-873302D01*
X1084681Y-869238D01*
X1079804Y-866140D01*
X1074318Y-864209D01*
X1068019Y-863498D01*
X947978Y-863498D01*
X941679Y-864209D01*
X936193Y-866140D01*
X931316Y-869238D01*
X927201Y-873302D01*
X924153Y-878230D01*
X922223Y-883666D01*
X921512Y-889965D01*
X921512Y-1010005D01*
X922223Y-1016304D01*
X924153Y-1021791D01*
X927201Y-1026668D01*
X931316Y-1030782D01*
X936193Y-1033881D01*
X941679Y-1035761D01*
G37*
G36*
X-3245154Y-985672D02*
G01*
X-3104845Y-985672D01*
X-3098495Y-984910D01*
X-3093059Y-983030D01*
X-3088132Y-979932D01*
X-3084068Y-975868D01*
X-3080969Y-970940D01*
X-3079089Y-965504D01*
X-3078327Y-959154D01*
X-3078327Y-818845D01*
X-3079089Y-812495D01*
X-3080969Y-807059D01*
X-3084068Y-802132D01*
X-3088132Y-798068D01*
X-3093059Y-794969D01*
X-3098495Y-793089D01*
X-3104845Y-792378D01*
X-3245154Y-792378D01*
X-3251504Y-793089D01*
X-3256940Y-794969D01*
X-3261867Y-798068D01*
X-3265932Y-802132D01*
X-3269030Y-807059D01*
X-3270910Y-812495D01*
X-3271621Y-818845D01*
X-3271621Y-959154D01*
X-3270910Y-965504D01*
X-3269030Y-970940D01*
X-3265932Y-975868D01*
X-3261867Y-979932D01*
X-3256940Y-983030D01*
X-3251504Y-984910D01*
G37*
G36*
X2850845Y-985672D02*
G01*
X2991154Y-985672D01*
X2997504Y-984910D01*
X3002940Y-983030D01*
X3007868Y-979932D01*
X3011932Y-975868D01*
X3015030Y-970940D01*
X3016910Y-965504D01*
X3017672Y-959154D01*
X3017672Y-818845D01*
X3016910Y-812495D01*
X3015030Y-807059D01*
X3011932Y-802132D01*
X3007868Y-798068D01*
X3002940Y-794969D01*
X2997504Y-793089D01*
X2991154Y-792378D01*
X2850845Y-792378D01*
X2844495Y-793089D01*
X2839059Y-794969D01*
X2834132Y-798068D01*
X2830068Y-802132D01*
X2826969Y-807059D01*
X2825089Y-812495D01*
X2824327Y-818845D01*
X2824327Y-959154D01*
X2825089Y-965504D01*
X2826969Y-970940D01*
X2830068Y-975868D01*
X2834132Y-979932D01*
X2839059Y-983030D01*
X2844495Y-984910D01*
G37*
G36*
X3104845Y-985672D02*
G01*
X3245154Y-985672D01*
X3251504Y-984910D01*
X3256940Y-983030D01*
X3261867Y-979932D01*
X3265932Y-975868D01*
X3269030Y-970940D01*
X3270910Y-965504D01*
X3271672Y-959154D01*
X3271672Y-818845D01*
X3270910Y-812495D01*
X3269030Y-807059D01*
X3265932Y-802132D01*
X3261867Y-798068D01*
X3256940Y-794969D01*
X3251504Y-793089D01*
X3245154Y-792378D01*
X3104845Y-792378D01*
X3098495Y-793089D01*
X3093059Y-794969D01*
X3088132Y-798068D01*
X3084068Y-802132D01*
X3080969Y-807059D01*
X3079089Y-812495D01*
X3078327Y-818845D01*
X3078327Y-959154D01*
X3079089Y-965504D01*
X3080969Y-970940D01*
X3084068Y-975868D01*
X3088132Y-979932D01*
X3093059Y-983030D01*
X3098495Y-984910D01*
G37*
G36*
X-682294Y-742086D02*
G01*
X-562305Y-742086D01*
X-555955Y-741375D01*
X-550519Y-739444D01*
X-545592Y-736396D01*
X-541528Y-732282D01*
X-538429Y-727405D01*
X-536549Y-721918D01*
X-535787Y-715619D01*
X-535787Y-595579D01*
X-536549Y-589280D01*
X-538429Y-583793D01*
X-541528Y-578916D01*
X-545592Y-574802D01*
X-550519Y-571754D01*
X-555955Y-569823D01*
X-562305Y-569112D01*
X-682294Y-569112D01*
X-688644Y-569823D01*
X-694080Y-571754D01*
X-699008Y-574802D01*
X-703072Y-578916D01*
X-706170Y-583793D01*
X-708050Y-589280D01*
X-708761Y-595579D01*
X-708761Y-715619D01*
X-708050Y-721918D01*
X-706170Y-727405D01*
X-703072Y-732282D01*
X-699008Y-736396D01*
X-694080Y-739444D01*
X-688644Y-741375D01*
G37*
G36*
X-1698294Y-742086D02*
G01*
X-1578305Y-742086D01*
X-1571955Y-741375D01*
X-1566519Y-739444D01*
X-1561592Y-736396D01*
X-1557528Y-732282D01*
X-1554429Y-727405D01*
X-1552549Y-721918D01*
X-1551787Y-715619D01*
X-1551787Y-595579D01*
X-1552549Y-589280D01*
X-1554429Y-583793D01*
X-1557528Y-578916D01*
X-1561592Y-574802D01*
X-1566519Y-571754D01*
X-1571955Y-569823D01*
X-1578305Y-569112D01*
X-1698294Y-569112D01*
X-1704644Y-569823D01*
X-1710080Y-571754D01*
X-1715007Y-574802D01*
X-1719072Y-578916D01*
X-1722170Y-583793D01*
X-1724050Y-589280D01*
X-1724761Y-595579D01*
X-1724761Y-715619D01*
X-1724050Y-721918D01*
X-1722170Y-727405D01*
X-1719072Y-732282D01*
X-1715007Y-736396D01*
X-1710080Y-739444D01*
X-1704644Y-741375D01*
G37*
G36*
X948131Y-736498D02*
G01*
X1068120Y-736498D01*
X1074470Y-735736D01*
X1079906Y-733856D01*
X1084834Y-730758D01*
X1088898Y-726694D01*
X1091996Y-721766D01*
X1093876Y-716330D01*
X1094638Y-709980D01*
X1094638Y-589991D01*
X1093876Y-583641D01*
X1091996Y-578205D01*
X1088898Y-573278D01*
X1084834Y-569214D01*
X1079906Y-566115D01*
X1074470Y-564235D01*
X1068120Y-563524D01*
X948131Y-563524D01*
X941781Y-564235D01*
X936345Y-566115D01*
X931418Y-569214D01*
X927353Y-573278D01*
X924255Y-578205D01*
X922375Y-583641D01*
X921664Y-589991D01*
X921664Y-709980D01*
X922375Y-716330D01*
X924255Y-721766D01*
X927353Y-726694D01*
X931418Y-730758D01*
X936345Y-733856D01*
X941781Y-735736D01*
G37*
G36*
X-67868Y-736498D02*
G01*
X52120Y-736498D01*
X58470Y-735736D01*
X63906Y-733856D01*
X68834Y-730758D01*
X72898Y-726694D01*
X75996Y-721766D01*
X77876Y-716330D01*
X78638Y-709980D01*
X78638Y-589991D01*
X77876Y-583641D01*
X75996Y-578205D01*
X72898Y-573278D01*
X68834Y-569214D01*
X63906Y-566115D01*
X58470Y-564235D01*
X52120Y-563524D01*
X-67868Y-563524D01*
X-74218Y-564235D01*
X-79654Y-566115D01*
X-84582Y-569214D01*
X-88646Y-573278D01*
X-91744Y-578205D01*
X-93624Y-583641D01*
X-94335Y-589991D01*
X-94335Y-709980D01*
X-93624Y-716330D01*
X-91744Y-721766D01*
X-88646Y-726694D01*
X-84582Y-730758D01*
X-79654Y-733856D01*
X-74218Y-735736D01*
G37*
G36*
X-2991154Y-731672D02*
G01*
X-2850845Y-731672D01*
X-2844495Y-730910D01*
X-2839059Y-729030D01*
X-2834132Y-725932D01*
X-2830068Y-721868D01*
X-2826969Y-716940D01*
X-2825089Y-711504D01*
X-2824327Y-705154D01*
X-2824327Y-564845D01*
X-2825089Y-558495D01*
X-2826969Y-553059D01*
X-2830068Y-548132D01*
X-2834132Y-544068D01*
X-2839059Y-540969D01*
X-2844495Y-539089D01*
X-2850845Y-538378D01*
X-2991154Y-538378D01*
X-2997504Y-539089D01*
X-3002940Y-540969D01*
X-3007868Y-544068D01*
X-3011932Y-548132D01*
X-3015030Y-553059D01*
X-3016910Y-558495D01*
X-3017621Y-564845D01*
X-3017621Y-705154D01*
X-3016910Y-711504D01*
X-3015030Y-716940D01*
X-3011932Y-721868D01*
X-3007868Y-725932D01*
X-3002940Y-729030D01*
X-2997504Y-730910D01*
G37*
G36*
X-3245154Y-731672D02*
G01*
X-3104845Y-731672D01*
X-3098495Y-730910D01*
X-3093059Y-729030D01*
X-3088132Y-725932D01*
X-3084068Y-721868D01*
X-3080969Y-716940D01*
X-3079089Y-711504D01*
X-3078327Y-705154D01*
X-3078327Y-564845D01*
X-3079089Y-558495D01*
X-3080969Y-553059D01*
X-3084068Y-548132D01*
X-3088132Y-544068D01*
X-3093059Y-540969D01*
X-3098495Y-539089D01*
X-3104845Y-538378D01*
X-3245154Y-538378D01*
X-3251504Y-539089D01*
X-3256940Y-540969D01*
X-3261867Y-544068D01*
X-3265932Y-548132D01*
X-3269030Y-553059D01*
X-3270910Y-558495D01*
X-3271621Y-564845D01*
X-3271621Y-705154D01*
X-3270910Y-711504D01*
X-3269030Y-716940D01*
X-3265932Y-721868D01*
X-3261867Y-725932D01*
X-3256940Y-729030D01*
X-3251504Y-730910D01*
G37*
G36*
X3104845Y-731672D02*
G01*
X3245154Y-731672D01*
X3251504Y-730910D01*
X3256940Y-729030D01*
X3261867Y-725932D01*
X3265932Y-721868D01*
X3269030Y-716940D01*
X3270910Y-711504D01*
X3271672Y-705154D01*
X3271672Y-564845D01*
X3270910Y-558495D01*
X3269030Y-553059D01*
X3265932Y-548132D01*
X3261867Y-544068D01*
X3256940Y-540969D01*
X3251504Y-539089D01*
X3245154Y-538378D01*
X3104845Y-538378D01*
X3098495Y-539089D01*
X3093059Y-540969D01*
X3088132Y-544068D01*
X3084068Y-548132D01*
X3080969Y-553059D01*
X3079089Y-558495D01*
X3078327Y-564845D01*
X3078327Y-705154D01*
X3079089Y-711504D01*
X3080969Y-716940D01*
X3084068Y-721868D01*
X3088132Y-725932D01*
X3093059Y-729030D01*
X3098495Y-730910D01*
G37*
G36*
X2850845Y-731672D02*
G01*
X2991154Y-731672D01*
X2997504Y-730910D01*
X3002940Y-729030D01*
X3007868Y-725932D01*
X3011932Y-721868D01*
X3015030Y-716940D01*
X3016910Y-711504D01*
X3017672Y-705154D01*
X3017672Y-564845D01*
X3016910Y-558495D01*
X3015030Y-553059D01*
X3011932Y-548132D01*
X3007868Y-544068D01*
X3002940Y-540969D01*
X2997504Y-539089D01*
X2991154Y-538378D01*
X2850845Y-538378D01*
X2844495Y-539089D01*
X2839059Y-540969D01*
X2834132Y-544068D01*
X2830068Y-548132D01*
X2826969Y-553059D01*
X2825089Y-558495D01*
X2824327Y-564845D01*
X2824327Y-705154D01*
X2825089Y-711504D01*
X2826969Y-716940D01*
X2830068Y-721868D01*
X2834132Y-725932D01*
X2839059Y-729030D01*
X2844495Y-730910D01*
G37*
G36*
X2489962Y-694486D02*
G01*
X2610002Y-694486D01*
X2616301Y-693775D01*
X2621788Y-691845D01*
X2626664Y-688797D01*
X2630779Y-684682D01*
X2633878Y-679805D01*
X2635758Y-674319D01*
X2636469Y-668020D01*
X2636469Y-547979D01*
X2635758Y-541680D01*
X2633878Y-536194D01*
X2630779Y-531317D01*
X2626664Y-527202D01*
X2621788Y-524154D01*
X2616301Y-522224D01*
X2610002Y-521512D01*
X2489962Y-521512D01*
X2483662Y-522224D01*
X2478227Y-524154D01*
X2473299Y-527202D01*
X2469235Y-531317D01*
X2466136Y-536194D01*
X2464206Y-541680D01*
X2463495Y-547979D01*
X2463495Y-668020D01*
X2464206Y-674319D01*
X2466136Y-679805D01*
X2469235Y-684682D01*
X2473299Y-688797D01*
X2478227Y-691845D01*
X2483662Y-693775D01*
G37*
G36*
X-2879293Y-477672D02*
G01*
X-2850845Y-477672D01*
X-2844495Y-476910D01*
X-2839059Y-475030D01*
X-2834132Y-471932D01*
X-2830068Y-467868D01*
X-2826969Y-462940D01*
X-2825089Y-457504D01*
X-2824327Y-451154D01*
X-2824327Y-422706D01*
X-2879293Y-422706D01*
G37*
G36*
X-2991154Y-477672D02*
G01*
X-2962706Y-477672D01*
X-2962706Y-422706D01*
X-3017621Y-422706D01*
X-3017621Y-451154D01*
X-3016910Y-457504D01*
X-3015030Y-462940D01*
X-3011932Y-467868D01*
X-3007868Y-471932D01*
X-3002940Y-475030D01*
X-2997504Y-476910D01*
G37*
G36*
X-3245154Y-477672D02*
G01*
X-3104845Y-477672D01*
X-3098495Y-476910D01*
X-3093059Y-475030D01*
X-3088132Y-471932D01*
X-3084068Y-467868D01*
X-3080969Y-462940D01*
X-3079089Y-457504D01*
X-3078327Y-451154D01*
X-3078327Y-310845D01*
X-3079089Y-304495D01*
X-3080969Y-299059D01*
X-3084068Y-294132D01*
X-3088132Y-290068D01*
X-3093059Y-286969D01*
X-3098495Y-285089D01*
X-3104845Y-284378D01*
X-3245154Y-284378D01*
X-3251504Y-285089D01*
X-3256940Y-286969D01*
X-3261867Y-290068D01*
X-3265932Y-294132D01*
X-3269030Y-299059D01*
X-3270910Y-304495D01*
X-3271621Y-310845D01*
X-3271621Y-451154D01*
X-3270910Y-457504D01*
X-3269030Y-462940D01*
X-3265932Y-467868D01*
X-3261867Y-471932D01*
X-3256940Y-475030D01*
X-3251504Y-476910D01*
G37*
G36*
X2850845Y-477672D02*
G01*
X2991154Y-477672D01*
X2997504Y-476910D01*
X3002940Y-475030D01*
X3007868Y-471932D01*
X3011932Y-467868D01*
X3015030Y-462940D01*
X3016910Y-457504D01*
X3017672Y-451154D01*
X3017672Y-310845D01*
X3016910Y-304495D01*
X3015030Y-299059D01*
X3011932Y-294132D01*
X3007868Y-290068D01*
X3002940Y-286969D01*
X2997504Y-285089D01*
X2991154Y-284378D01*
X2850845Y-284378D01*
X2844495Y-285089D01*
X2839059Y-286969D01*
X2834132Y-290068D01*
X2830068Y-294132D01*
X2826969Y-299059D01*
X2825089Y-304495D01*
X2824327Y-310845D01*
X2824327Y-451154D01*
X2825089Y-457504D01*
X2826969Y-462940D01*
X2830068Y-467868D01*
X2834132Y-471932D01*
X2839059Y-475030D01*
X2844495Y-476910D01*
G37*
G36*
X3104845Y-477672D02*
G01*
X3245154Y-477672D01*
X3251504Y-476910D01*
X3256940Y-475030D01*
X3261867Y-471932D01*
X3265932Y-467868D01*
X3269030Y-462940D01*
X3270910Y-457504D01*
X3271672Y-451154D01*
X3271672Y-310845D01*
X3270910Y-304495D01*
X3269030Y-299059D01*
X3265932Y-294132D01*
X3261867Y-290068D01*
X3256940Y-286969D01*
X3251504Y-285089D01*
X3245154Y-284378D01*
X3104845Y-284378D01*
X3098495Y-285089D01*
X3093059Y-286969D01*
X3088132Y-290068D01*
X3084068Y-294132D01*
X3080969Y-299059D01*
X3079089Y-304495D01*
X3078327Y-310845D01*
X3078327Y-451154D01*
X3079089Y-457504D01*
X3080969Y-462940D01*
X3084068Y-467868D01*
X3088132Y-471932D01*
X3093059Y-475030D01*
X3098495Y-476910D01*
G37*
G36*
X-682294Y-442112D02*
G01*
X-562305Y-442112D01*
X-555955Y-441350D01*
X-550519Y-439470D01*
X-545592Y-436372D01*
X-541528Y-432308D01*
X-538429Y-427380D01*
X-536549Y-421944D01*
X-535787Y-415594D01*
X-535787Y-295605D01*
X-536549Y-289255D01*
X-538429Y-283819D01*
X-541528Y-278892D01*
X-545592Y-274828D01*
X-550519Y-271729D01*
X-555955Y-269849D01*
X-562305Y-269138D01*
X-682294Y-269138D01*
X-688644Y-269849D01*
X-694080Y-271729D01*
X-699008Y-274828D01*
X-703072Y-278892D01*
X-706170Y-283819D01*
X-708050Y-289255D01*
X-708761Y-295605D01*
X-708761Y-415594D01*
X-708050Y-421944D01*
X-706170Y-427380D01*
X-703072Y-432308D01*
X-699008Y-436372D01*
X-694080Y-439470D01*
X-688644Y-441350D01*
G37*
G36*
X1878380Y-350824D02*
G01*
X1891792Y-349504D01*
X1904898Y-346354D01*
X1917446Y-341528D01*
X1929282Y-335026D01*
X1940153Y-327050D01*
X1949805Y-317652D01*
X1958187Y-307086D01*
X1965045Y-295503D01*
X1970278Y-283108D01*
X1973834Y-270103D01*
X1975662Y-256743D01*
X1975662Y-243281D01*
X1973834Y-229920D01*
X1970278Y-216916D01*
X1965045Y-204520D01*
X1958187Y-192887D01*
X1949805Y-182321D01*
X1940153Y-172974D01*
X1929282Y-164947D01*
X1917446Y-158496D01*
X1904898Y-153619D01*
X1891792Y-150520D01*
X1878380Y-149148D01*
X1864918Y-149606D01*
X1851609Y-151841D01*
X1838756Y-155854D01*
X1826514Y-161544D01*
X1815134Y-168757D01*
X1804873Y-177495D01*
X1795830Y-187452D01*
X1788210Y-198577D01*
X1782114Y-210616D01*
X1777695Y-223367D01*
X1775002Y-236575D01*
X1774088Y-249986D01*
X1775002Y-263448D01*
X1777695Y-276656D01*
X1782114Y-289407D01*
X1788210Y-301396D01*
X1795830Y-312521D01*
X1804873Y-322529D01*
X1815134Y-331216D01*
X1826514Y-338480D01*
X1838756Y-344119D01*
X1851609Y-348132D01*
X1864918Y-350367D01*
G37*
G36*
X2168855Y-340766D02*
G01*
X2179269Y-335026D01*
X2190140Y-327050D01*
X2199843Y-317652D01*
X2208174Y-307086D01*
X2215032Y-295503D01*
X2215743Y-293827D01*
X2168855Y-293827D01*
G37*
G36*
X2081123Y-340614D02*
G01*
X2081123Y-293827D01*
X2034387Y-293827D01*
X2038197Y-301396D01*
X2045817Y-312521D01*
X2054860Y-322529D01*
X2065172Y-331216D01*
X2076500Y-338480D01*
G37*
G36*
X-3017621Y-339293D02*
G01*
X-2962706Y-339293D01*
X-2962706Y-284378D01*
X-2991154Y-284378D01*
X-2997504Y-285089D01*
X-3002940Y-286969D01*
X-3007868Y-290068D01*
X-3011932Y-294132D01*
X-3015030Y-299059D01*
X-3016910Y-304495D01*
X-3017621Y-310845D01*
G37*
G36*
X-2879293Y-339293D02*
G01*
X-2824327Y-339293D01*
X-2824327Y-310845D01*
X-2825089Y-304495D01*
X-2826969Y-299059D01*
X-2830068Y-294132D01*
X-2834132Y-290068D01*
X-2839059Y-286969D01*
X-2844495Y-285089D01*
X-2850845Y-284378D01*
X-2879293Y-284378D01*
G37*
G36*
X796594Y-302006D02*
G01*
X810209Y-301548D01*
X823671Y-299313D01*
X836676Y-295249D01*
X849071Y-289509D01*
X860552Y-282194D01*
X870966Y-273405D01*
X880110Y-263245D01*
X887831Y-252018D01*
X893978Y-239877D01*
X898448Y-226974D01*
X901192Y-213614D01*
X902106Y-199999D01*
X901192Y-186385D01*
X898448Y-173024D01*
X893978Y-160121D01*
X887831Y-147980D01*
X880110Y-136753D01*
X870966Y-126593D01*
X860552Y-117805D01*
X849071Y-110489D01*
X836676Y-104749D01*
X823671Y-100685D01*
X810209Y-98450D01*
X796594Y-97993D01*
X783031Y-99314D01*
X769772Y-102514D01*
X757021Y-107391D01*
X745083Y-113944D01*
X734110Y-122021D01*
X724306Y-131521D01*
X715822Y-142240D01*
X708863Y-153974D01*
X703580Y-166522D01*
X699973Y-179679D01*
X698144Y-193192D01*
X698144Y-206806D01*
X699973Y-220319D01*
X703580Y-233476D01*
X708863Y-246024D01*
X715822Y-257759D01*
X724306Y-268478D01*
X734110Y-277977D01*
X745083Y-286054D01*
X757021Y-292608D01*
X769772Y-297484D01*
X783031Y-300685D01*
G37*
G36*
X1255572Y-291795D02*
G01*
X1255572Y-244449D01*
X1208227Y-244449D01*
X1208887Y-246024D01*
X1215847Y-257759D01*
X1224280Y-268478D01*
X1234084Y-277977D01*
X1245057Y-286054D01*
G37*
G36*
X1344472Y-291642D02*
G01*
X1349044Y-289509D01*
X1360576Y-282194D01*
X1370990Y-273405D01*
X1380134Y-263245D01*
X1387856Y-252018D01*
X1391666Y-244449D01*
X1344472Y-244449D01*
G37*
G36*
X79705Y-238912D02*
G01*
X199694Y-238912D01*
X206044Y-238150D01*
X211480Y-236270D01*
X216408Y-233171D01*
X220471Y-229108D01*
X223570Y-224180D01*
X225450Y-218744D01*
X226212Y-212394D01*
X226212Y-92405D01*
X225450Y-86055D01*
X223570Y-80619D01*
X220471Y-75692D01*
X216408Y-71628D01*
X211480Y-68529D01*
X206044Y-66649D01*
X199694Y-65938D01*
X79705Y-65938D01*
X73355Y-66649D01*
X67919Y-68529D01*
X62991Y-71628D01*
X58928Y-75692D01*
X55829Y-80619D01*
X53949Y-86055D01*
X53238Y-92405D01*
X53238Y-212394D01*
X53949Y-218744D01*
X55829Y-224180D01*
X58928Y-229108D01*
X62991Y-233171D01*
X67919Y-236270D01*
X73355Y-238150D01*
G37*
G36*
X-2991154Y-223672D02*
G01*
X-2850845Y-223672D01*
X-2844495Y-222910D01*
X-2839059Y-221030D01*
X-2834132Y-217932D01*
X-2830068Y-213867D01*
X-2826969Y-208940D01*
X-2825089Y-203504D01*
X-2824327Y-197154D01*
X-2824327Y-56845D01*
X-2825089Y-50495D01*
X-2826969Y-45059D01*
X-2830068Y-40132D01*
X-2834132Y-36068D01*
X-2839059Y-32969D01*
X-2844495Y-31089D01*
X-2850845Y-30378D01*
X-2991154Y-30378D01*
X-2997504Y-31089D01*
X-3002940Y-32969D01*
X-3007868Y-36068D01*
X-3011932Y-40132D01*
X-3015030Y-45059D01*
X-3016910Y-50495D01*
X-3017621Y-56845D01*
X-3017621Y-197154D01*
X-3016910Y-203504D01*
X-3015030Y-208940D01*
X-3011932Y-213867D01*
X-3007868Y-217932D01*
X-3002940Y-221030D01*
X-2997504Y-222910D01*
G37*
G36*
X-3245154Y-223672D02*
G01*
X-3104845Y-223672D01*
X-3098495Y-222910D01*
X-3093059Y-221030D01*
X-3088132Y-217932D01*
X-3084068Y-213867D01*
X-3080969Y-208940D01*
X-3079089Y-203504D01*
X-3078327Y-197154D01*
X-3078327Y-56845D01*
X-3079089Y-50495D01*
X-3080969Y-45059D01*
X-3084068Y-40132D01*
X-3088132Y-36068D01*
X-3093059Y-32969D01*
X-3098495Y-31089D01*
X-3104845Y-30378D01*
X-3245154Y-30378D01*
X-3251504Y-31089D01*
X-3256940Y-32969D01*
X-3261867Y-36068D01*
X-3265932Y-40132D01*
X-3269030Y-45059D01*
X-3270910Y-50495D01*
X-3271621Y-56845D01*
X-3271621Y-197154D01*
X-3270910Y-203504D01*
X-3269030Y-208940D01*
X-3265932Y-213867D01*
X-3261867Y-217932D01*
X-3256940Y-221030D01*
X-3251504Y-222910D01*
G37*
G36*
X2850845Y-223672D02*
G01*
X2991154Y-223672D01*
X2997504Y-222910D01*
X3002940Y-221030D01*
X3007868Y-217932D01*
X3011932Y-213867D01*
X3015030Y-208940D01*
X3016910Y-203504D01*
X3017672Y-197154D01*
X3017672Y-56845D01*
X3016910Y-50495D01*
X3015030Y-45059D01*
X3011932Y-40132D01*
X3007868Y-36068D01*
X3002940Y-32969D01*
X2997504Y-31089D01*
X2991154Y-30378D01*
X2850845Y-30378D01*
X2844495Y-31089D01*
X2839059Y-32969D01*
X2834132Y-36068D01*
X2830068Y-40132D01*
X2826969Y-45059D01*
X2825089Y-50495D01*
X2824327Y-56845D01*
X2824327Y-197154D01*
X2825089Y-203504D01*
X2826969Y-208940D01*
X2830068Y-213867D01*
X2834132Y-217932D01*
X2839059Y-221030D01*
X2844495Y-222910D01*
G37*
G36*
X3104845Y-223672D02*
G01*
X3245154Y-223672D01*
X3251504Y-222910D01*
X3256940Y-221030D01*
X3261867Y-217932D01*
X3265932Y-213867D01*
X3269030Y-208940D01*
X3270910Y-203504D01*
X3271672Y-197154D01*
X3271672Y-56845D01*
X3270910Y-50495D01*
X3269030Y-45059D01*
X3265932Y-40132D01*
X3261867Y-36068D01*
X3256940Y-32969D01*
X3251504Y-31089D01*
X3245154Y-30378D01*
X3104845Y-30378D01*
X3098495Y-31089D01*
X3093059Y-32969D01*
X3088132Y-36068D01*
X3084068Y-40132D01*
X3080969Y-45059D01*
X3079089Y-50495D01*
X3078327Y-56845D01*
X3078327Y-197154D01*
X3079089Y-203504D01*
X3080969Y-208940D01*
X3084068Y-213867D01*
X3088132Y-217932D01*
X3093059Y-221030D01*
X3098495Y-222910D01*
G37*
G36*
X2034387Y-206146D02*
G01*
X2081123Y-206146D01*
X2081123Y-159359D01*
X2076500Y-161544D01*
X2065172Y-168757D01*
X2054860Y-177495D01*
X2045817Y-187452D01*
X2038197Y-198577D01*
G37*
G36*
X2168855Y-206146D02*
G01*
X2215743Y-206146D01*
X2215032Y-204520D01*
X2208174Y-192887D01*
X2199843Y-182321D01*
X2190140Y-172974D01*
X2179269Y-164947D01*
X2168855Y-159258D01*
G37*
G36*
X1344472Y-155549D02*
G01*
X1391666Y-155549D01*
X1387856Y-147980D01*
X1380134Y-136753D01*
X1370990Y-126593D01*
X1360576Y-117805D01*
X1349044Y-110489D01*
X1344472Y-108356D01*
G37*
G36*
X1208227Y-155549D02*
G01*
X1255572Y-155549D01*
X1255572Y-108204D01*
X1245057Y-113944D01*
X1234084Y-122021D01*
X1224280Y-131521D01*
X1215847Y-142240D01*
X1208887Y-153974D01*
G37*
G36*
X-2531262Y-126746D02*
G01*
X-2392730Y-126746D01*
X-2386380Y-126034D01*
X-2380945Y-124155D01*
X-2376017Y-121056D01*
X-2371953Y-116941D01*
X-2368854Y-112064D01*
X-2366975Y-106578D01*
X-2366213Y-100279D01*
X-2366213Y38303D01*
X-2366975Y44602D01*
X-2368854Y50038D01*
X-2371953Y54965D01*
X-2376017Y59029D01*
X-2380945Y62128D01*
X-2386380Y64058D01*
X-2392730Y64769D01*
X-2531262Y64769D01*
X-2537612Y64058D01*
X-2543048Y62128D01*
X-2547975Y59029D01*
X-2552039Y54965D01*
X-2555138Y50038D01*
X-2557018Y44602D01*
X-2557729Y38303D01*
X-2557729Y-100279D01*
X-2557018Y-106578D01*
X-2555138Y-112064D01*
X-2552039Y-116941D01*
X-2547975Y-121056D01*
X-2543048Y-124155D01*
X-2537612Y-126034D01*
G37*
G36*
X-2214524Y-126492D02*
G01*
X-2201468Y-126492D01*
X-2188514Y-124714D01*
X-2175916Y-121208D01*
X-2163927Y-116027D01*
X-2152802Y-109220D01*
X-2142642Y-100990D01*
X-2133752Y-91440D01*
X-2126183Y-80721D01*
X-2120188Y-69138D01*
X-2115820Y-56845D01*
X-2113178Y-44043D01*
X-2112264Y-30988D01*
X-2113178Y-17983D01*
X-2115820Y-5181D01*
X-2120188Y7162D01*
X-2126183Y18745D01*
X-2133752Y29413D01*
X-2142642Y38963D01*
X-2152802Y47193D01*
X-2163927Y54000D01*
X-2175916Y59182D01*
X-2188514Y62738D01*
X-2201468Y64516D01*
X-2214524Y64516D01*
X-2227478Y62738D01*
X-2240076Y59182D01*
X-2252065Y54000D01*
X-2263190Y47193D01*
X-2273350Y38963D01*
X-2282240Y29413D01*
X-2289810Y18745D01*
X-2295804Y7162D01*
X-2300173Y-5181D01*
X-2302814Y-17983D01*
X-2303729Y-30988D01*
X-2302814Y-44043D01*
X-2300173Y-56845D01*
X-2295804Y-69138D01*
X-2289810Y-80721D01*
X-2282240Y-91440D01*
X-2273350Y-100990D01*
X-2263190Y-109220D01*
X-2252065Y-116027D01*
X-2240076Y-121208D01*
X-2227478Y-124714D01*
G37*
G36*
X-1198524Y-126492D02*
G01*
X-1185468Y-126492D01*
X-1172514Y-124714D01*
X-1159916Y-121208D01*
X-1147927Y-116027D01*
X-1136802Y-109220D01*
X-1126642Y-100990D01*
X-1117752Y-91440D01*
X-1110183Y-80721D01*
X-1104188Y-69138D01*
X-1099820Y-56845D01*
X-1097178Y-44043D01*
X-1096264Y-30988D01*
X-1097178Y-17983D01*
X-1099820Y-5181D01*
X-1104188Y7162D01*
X-1110183Y18745D01*
X-1117752Y29413D01*
X-1126642Y38963D01*
X-1136802Y47193D01*
X-1147927Y54000D01*
X-1159916Y59182D01*
X-1172514Y62738D01*
X-1185468Y64516D01*
X-1198524Y64516D01*
X-1211478Y62738D01*
X-1224076Y59182D01*
X-1236065Y54000D01*
X-1247190Y47193D01*
X-1257350Y38963D01*
X-1266240Y29413D01*
X-1273810Y18745D01*
X-1279804Y7162D01*
X-1284173Y-5181D01*
X-1286814Y-17983D01*
X-1287729Y-30988D01*
X-1286814Y-44043D01*
X-1284173Y-56845D01*
X-1279804Y-69138D01*
X-1273810Y-80721D01*
X-1266240Y-91440D01*
X-1257350Y-100990D01*
X-1247190Y-109220D01*
X-1236065Y-116027D01*
X-1224076Y-121208D01*
X-1211478Y-124714D01*
G37*
G36*
X-944524Y-126492D02*
G01*
X-931468Y-126492D01*
X-918514Y-124714D01*
X-905916Y-121208D01*
X-893927Y-116027D01*
X-882802Y-109220D01*
X-872642Y-100990D01*
X-863752Y-91440D01*
X-856183Y-80721D01*
X-850188Y-69138D01*
X-845819Y-56845D01*
X-843178Y-44043D01*
X-842264Y-30988D01*
X-843178Y-17983D01*
X-845819Y-5181D01*
X-850188Y7162D01*
X-856183Y18745D01*
X-863752Y29413D01*
X-872642Y38963D01*
X-882802Y47193D01*
X-893927Y54000D01*
X-905916Y59182D01*
X-918514Y62738D01*
X-931468Y64516D01*
X-944524Y64516D01*
X-957478Y62738D01*
X-970076Y59182D01*
X-982065Y54000D01*
X-993190Y47193D01*
X-1003350Y38963D01*
X-1012240Y29413D01*
X-1019810Y18745D01*
X-1025804Y7162D01*
X-1030173Y-5181D01*
X-1032814Y-17983D01*
X-1033729Y-30988D01*
X-1032814Y-44043D01*
X-1030173Y-56845D01*
X-1025804Y-69138D01*
X-1019810Y-80721D01*
X-1012240Y-91440D01*
X-1003350Y-100990D01*
X-993190Y-109220D01*
X-982065Y-116027D01*
X-970076Y-121208D01*
X-957478Y-124714D01*
G37*
G36*
X-1452524Y-126492D02*
G01*
X-1439468Y-126492D01*
X-1426514Y-124714D01*
X-1413916Y-121208D01*
X-1401927Y-116027D01*
X-1390802Y-109220D01*
X-1380642Y-100990D01*
X-1371752Y-91440D01*
X-1364183Y-80721D01*
X-1358188Y-69138D01*
X-1353820Y-56845D01*
X-1351178Y-44043D01*
X-1350264Y-30988D01*
X-1351178Y-17983D01*
X-1353820Y-5181D01*
X-1358188Y7162D01*
X-1364183Y18745D01*
X-1371752Y29413D01*
X-1380642Y38963D01*
X-1390802Y47193D01*
X-1401927Y54000D01*
X-1413916Y59182D01*
X-1426514Y62738D01*
X-1439468Y64516D01*
X-1452524Y64516D01*
X-1465478Y62738D01*
X-1478076Y59182D01*
X-1490065Y54000D01*
X-1501190Y47193D01*
X-1511350Y38963D01*
X-1520240Y29413D01*
X-1527810Y18745D01*
X-1533804Y7162D01*
X-1538173Y-5181D01*
X-1540814Y-17983D01*
X-1541729Y-30988D01*
X-1540814Y-44043D01*
X-1538173Y-56845D01*
X-1533804Y-69138D01*
X-1527810Y-80721D01*
X-1520240Y-91440D01*
X-1511350Y-100990D01*
X-1501190Y-109220D01*
X-1490065Y-116027D01*
X-1478076Y-121208D01*
X-1465478Y-124714D01*
G37*
G36*
X-1960524Y-126492D02*
G01*
X-1947468Y-126492D01*
X-1934514Y-124714D01*
X-1921916Y-121208D01*
X-1909927Y-116027D01*
X-1898802Y-109220D01*
X-1888642Y-100990D01*
X-1879752Y-91440D01*
X-1872183Y-80721D01*
X-1866188Y-69138D01*
X-1861820Y-56845D01*
X-1859178Y-44043D01*
X-1858264Y-30988D01*
X-1859178Y-17983D01*
X-1861820Y-5181D01*
X-1866188Y7162D01*
X-1872183Y18745D01*
X-1879752Y29413D01*
X-1888642Y38963D01*
X-1898802Y47193D01*
X-1909927Y54000D01*
X-1921916Y59182D01*
X-1934514Y62738D01*
X-1947468Y64516D01*
X-1960524Y64516D01*
X-1973478Y62738D01*
X-1986076Y59182D01*
X-1998065Y54000D01*
X-2009190Y47193D01*
X-2019350Y38963D01*
X-2028240Y29413D01*
X-2035810Y18745D01*
X-2041804Y7162D01*
X-2046173Y-5181D01*
X-2048814Y-17983D01*
X-2049729Y-30988D01*
X-2048814Y-44043D01*
X-2046173Y-56845D01*
X-2041804Y-69138D01*
X-2035810Y-80721D01*
X-2028240Y-91440D01*
X-2019350Y-100990D01*
X-2009190Y-109220D01*
X-1998065Y-116027D01*
X-1986076Y-121208D01*
X-1973478Y-124714D01*
G37*
G36*
X-400456Y-85953D02*
G01*
X-386943Y-85953D01*
X-373583Y-84175D01*
X-360629Y-80619D01*
X-348183Y-75336D01*
X-336600Y-68478D01*
X-326034Y-60147D01*
X-316636Y-50444D01*
X-308660Y-39573D01*
X-302209Y-27787D01*
X-297332Y-15189D01*
X-294233Y-2082D01*
X-292862Y11328D01*
X-293319Y24790D01*
X-295554Y38100D01*
X-299567Y50952D01*
X-305206Y63195D01*
X-312470Y74523D01*
X-321157Y84836D01*
X-331165Y93878D01*
X-342290Y101498D01*
X-354330Y107594D01*
X-367030Y112014D01*
X-380238Y114706D01*
X-393700Y115570D01*
X-407162Y114706D01*
X-420370Y112014D01*
X-433070Y107594D01*
X-445109Y101498D01*
X-456234Y93878D01*
X-466242Y84836D01*
X-474929Y74523D01*
X-482193Y63195D01*
X-487832Y50952D01*
X-491845Y38100D01*
X-494080Y24790D01*
X-494538Y11328D01*
X-493166Y-2082D01*
X-490067Y-15189D01*
X-485190Y-27787D01*
X-478739Y-39573D01*
X-470763Y-50444D01*
X-461365Y-60147D01*
X-450799Y-68478D01*
X-439216Y-75336D01*
X-426770Y-80619D01*
X-413816Y-84175D01*
G37*
G36*
X-3245154Y30327D02*
G01*
X-3104845Y30327D01*
X-3098495Y31089D01*
X-3093059Y32969D01*
X-3088132Y36068D01*
X-3084068Y40132D01*
X-3080969Y45059D01*
X-3079089Y50495D01*
X-3078327Y56845D01*
X-3078327Y197154D01*
X-3079089Y203504D01*
X-3080969Y208940D01*
X-3084068Y213867D01*
X-3088132Y217932D01*
X-3093059Y221030D01*
X-3098495Y222910D01*
X-3104845Y223621D01*
X-3245154Y223621D01*
X-3251504Y222910D01*
X-3256940Y221030D01*
X-3261867Y217932D01*
X-3265932Y213867D01*
X-3269030Y208940D01*
X-3270910Y203504D01*
X-3271621Y197154D01*
X-3271621Y56845D01*
X-3270910Y50495D01*
X-3269030Y45059D01*
X-3265932Y40132D01*
X-3261867Y36068D01*
X-3256940Y32969D01*
X-3251504Y31089D01*
G37*
G36*
X-2991154Y30327D02*
G01*
X-2850845Y30327D01*
X-2844495Y31089D01*
X-2839059Y32969D01*
X-2834132Y36068D01*
X-2830068Y40132D01*
X-2826969Y45059D01*
X-2825089Y50495D01*
X-2824327Y56845D01*
X-2824327Y197154D01*
X-2825089Y203504D01*
X-2826969Y208940D01*
X-2830068Y213867D01*
X-2834132Y217932D01*
X-2839059Y221030D01*
X-2844495Y222910D01*
X-2850845Y223621D01*
X-2991154Y223621D01*
X-2997504Y222910D01*
X-3002940Y221030D01*
X-3007868Y217932D01*
X-3011932Y213867D01*
X-3015030Y208940D01*
X-3016910Y203504D01*
X-3017621Y197154D01*
X-3017621Y56845D01*
X-3016910Y50495D01*
X-3015030Y45059D01*
X-3011932Y40132D01*
X-3007868Y36068D01*
X-3002940Y32969D01*
X-2997504Y31089D01*
G37*
G36*
X3104845Y30327D02*
G01*
X3245154Y30327D01*
X3251504Y31089D01*
X3256940Y32969D01*
X3261867Y36068D01*
X3265932Y40132D01*
X3269030Y45059D01*
X3270910Y50495D01*
X3271672Y56845D01*
X3271672Y197154D01*
X3270910Y203504D01*
X3269030Y208940D01*
X3265932Y213867D01*
X3261867Y217932D01*
X3256940Y221030D01*
X3251504Y222910D01*
X3245154Y223621D01*
X3104845Y223621D01*
X3098495Y222910D01*
X3093059Y221030D01*
X3088132Y217932D01*
X3084068Y213867D01*
X3080969Y208940D01*
X3079089Y203504D01*
X3078327Y197154D01*
X3078327Y56845D01*
X3079089Y50495D01*
X3080969Y45059D01*
X3084068Y40132D01*
X3088132Y36068D01*
X3093059Y32969D01*
X3098495Y31089D01*
G37*
G36*
X2850845Y30327D02*
G01*
X2991154Y30327D01*
X2997504Y31089D01*
X3002940Y32969D01*
X3007868Y36068D01*
X3011932Y40132D01*
X3015030Y45059D01*
X3016910Y50495D01*
X3017672Y56845D01*
X3017672Y197154D01*
X3016910Y203504D01*
X3015030Y208940D01*
X3011932Y213867D01*
X3007868Y217932D01*
X3002940Y221030D01*
X2997504Y222910D01*
X2991154Y223621D01*
X2850845Y223621D01*
X2844495Y222910D01*
X2839059Y221030D01*
X2834132Y217932D01*
X2830068Y213867D01*
X2826969Y208940D01*
X2825089Y203504D01*
X2824327Y197154D01*
X2824327Y56845D01*
X2825089Y50495D01*
X2826969Y45059D01*
X2830068Y40132D01*
X2834132Y36068D01*
X2839059Y32969D01*
X2844495Y31089D01*
G37*
G36*
X-400456Y164033D02*
G01*
X-386943Y164033D01*
X-373583Y165862D01*
X-360629Y169418D01*
X-348183Y174650D01*
X-336600Y181508D01*
X-326034Y189890D01*
X-316636Y199542D01*
X-308660Y210413D01*
X-302209Y222250D01*
X-297332Y234797D01*
X-294233Y247904D01*
X-292862Y261315D01*
X-293319Y274777D01*
X-295554Y288086D01*
X-299567Y300939D01*
X-305206Y313182D01*
X-312470Y324561D01*
X-321157Y334822D01*
X-331165Y343865D01*
X-342290Y351485D01*
X-354330Y357581D01*
X-367030Y362000D01*
X-380238Y364693D01*
X-393700Y365607D01*
X-407162Y364693D01*
X-420370Y362000D01*
X-433070Y357581D01*
X-445109Y351485D01*
X-456234Y343865D01*
X-466242Y334822D01*
X-474929Y324561D01*
X-482193Y313182D01*
X-487832Y300939D01*
X-491845Y288086D01*
X-494080Y274777D01*
X-494538Y261315D01*
X-493166Y247904D01*
X-490067Y234797D01*
X-485190Y222250D01*
X-478739Y210413D01*
X-470763Y199542D01*
X-461365Y189890D01*
X-450799Y181508D01*
X-439216Y174650D01*
X-426770Y169418D01*
X-413816Y165862D01*
G37*
G36*
X512470Y270103D02*
G01*
X681329Y270103D01*
X687628Y270814D01*
X693115Y272694D01*
X697992Y275793D01*
X702106Y279908D01*
X705205Y284784D01*
X707085Y290271D01*
X707796Y296570D01*
X707796Y465429D01*
X707085Y471728D01*
X705205Y477215D01*
X702106Y482092D01*
X697992Y486206D01*
X693115Y489305D01*
X687628Y491185D01*
X681329Y491896D01*
X512470Y491896D01*
X506171Y491185D01*
X500684Y489305D01*
X495808Y486206D01*
X491693Y482092D01*
X488594Y477215D01*
X486714Y471728D01*
X486003Y465429D01*
X486003Y296570D01*
X486714Y290271D01*
X488594Y284784D01*
X491693Y279908D01*
X495808Y275793D01*
X500684Y272694D01*
X506171Y270814D01*
G37*
G36*
X1222451Y280873D02*
G01*
X1371346Y280873D01*
X1377645Y281584D01*
X1383131Y283514D01*
X1388008Y286613D01*
X1392123Y290677D01*
X1395171Y295605D01*
X1397101Y301040D01*
X1397812Y307340D01*
X1397812Y458622D01*
X1397101Y464921D01*
X1395171Y470408D01*
X1392123Y475284D01*
X1388008Y479399D01*
X1383131Y482498D01*
X1377645Y484378D01*
X1371346Y485089D01*
X1222451Y485089D01*
X1216152Y484378D01*
X1210665Y482498D01*
X1205788Y479399D01*
X1201674Y475284D01*
X1198626Y470408D01*
X1196695Y464921D01*
X1195984Y458622D01*
X1195984Y307340D01*
X1196695Y301040D01*
X1198626Y295605D01*
X1201674Y290677D01*
X1205788Y286613D01*
X1210665Y283514D01*
X1216152Y281584D01*
G37*
G36*
X-3245154Y284327D02*
G01*
X-3104845Y284327D01*
X-3098495Y285089D01*
X-3093059Y286969D01*
X-3088132Y290068D01*
X-3084068Y294132D01*
X-3080969Y299059D01*
X-3079089Y304495D01*
X-3078327Y310845D01*
X-3078327Y451154D01*
X-3079089Y457504D01*
X-3080969Y462940D01*
X-3084068Y467868D01*
X-3088132Y471932D01*
X-3093059Y475030D01*
X-3098495Y476910D01*
X-3104845Y477621D01*
X-3245154Y477621D01*
X-3251504Y476910D01*
X-3256940Y475030D01*
X-3261867Y471932D01*
X-3265932Y467868D01*
X-3269030Y462940D01*
X-3270910Y457504D01*
X-3271621Y451154D01*
X-3271621Y310845D01*
X-3270910Y304495D01*
X-3269030Y299059D01*
X-3265932Y294132D01*
X-3261867Y290068D01*
X-3256940Y286969D01*
X-3251504Y285089D01*
G37*
G36*
X3104845Y284327D02*
G01*
X3245154Y284327D01*
X3251504Y285089D01*
X3256940Y286969D01*
X3261867Y290068D01*
X3265932Y294132D01*
X3269030Y299059D01*
X3270910Y304495D01*
X3271672Y310845D01*
X3271672Y451154D01*
X3270910Y457504D01*
X3269030Y462940D01*
X3265932Y467868D01*
X3261867Y471932D01*
X3256940Y475030D01*
X3251504Y476910D01*
X3245154Y477621D01*
X3104845Y477621D01*
X3098495Y476910D01*
X3093059Y475030D01*
X3088132Y471932D01*
X3084068Y467868D01*
X3080969Y462940D01*
X3079089Y457504D01*
X3078327Y451154D01*
X3078327Y310845D01*
X3079089Y304495D01*
X3080969Y299059D01*
X3084068Y294132D01*
X3088132Y290068D01*
X3093059Y286969D01*
X3098495Y285089D01*
G37*
G36*
X2850845Y284327D02*
G01*
X2991154Y284327D01*
X2997504Y285089D01*
X3002940Y286969D01*
X3007868Y290068D01*
X3011932Y294132D01*
X3015030Y299059D01*
X3016910Y304495D01*
X3017672Y310845D01*
X3017672Y451154D01*
X3016910Y457504D01*
X3015030Y462940D01*
X3011932Y467868D01*
X3007868Y471932D01*
X3002940Y475030D01*
X2997504Y476910D01*
X2991154Y477621D01*
X2850845Y477621D01*
X2844495Y476910D01*
X2839059Y475030D01*
X2834132Y471932D01*
X2830068Y467868D01*
X2826969Y462940D01*
X2825089Y457504D01*
X2824327Y451154D01*
X2824327Y310845D01*
X2825089Y304495D01*
X2826969Y299059D01*
X2830068Y294132D01*
X2834132Y290068D01*
X2839059Y286969D01*
X2844495Y285089D01*
G37*
G36*
X2489962Y321513D02*
G01*
X2610002Y321513D01*
X2616301Y322224D01*
X2621788Y324154D01*
X2626664Y327202D01*
X2630779Y331317D01*
X2633878Y336194D01*
X2635758Y341680D01*
X2636469Y347980D01*
X2636469Y468020D01*
X2635758Y474319D01*
X2633878Y479806D01*
X2630779Y484682D01*
X2626664Y488797D01*
X2621788Y491845D01*
X2616301Y493776D01*
X2610002Y494487D01*
X2489962Y494487D01*
X2483662Y493776D01*
X2478227Y491845D01*
X2473299Y488797D01*
X2469235Y484682D01*
X2466136Y479806D01*
X2464206Y474319D01*
X2463495Y468020D01*
X2463495Y347980D01*
X2464206Y341680D01*
X2466136Y336194D01*
X2469235Y331317D01*
X2473299Y327202D01*
X2478227Y324154D01*
X2483662Y322224D01*
G37*
G36*
X1890979Y359867D02*
G01*
X1950567Y359867D01*
X1950567Y377037D01*
X1951380Y381101D01*
X1953818Y384505D01*
X1957374Y386638D01*
X1962302Y387096D01*
X2031492Y387096D01*
X2036419Y386638D01*
X2039975Y384505D01*
X2042414Y381101D01*
X2043226Y377037D01*
X2043226Y359867D01*
X2102815Y359867D01*
X2102815Y375412D01*
X2102104Y381762D01*
X2100173Y387197D01*
X2097125Y392125D01*
X2093010Y396189D01*
X2089302Y398526D01*
X2086254Y401574D01*
X2084679Y405587D01*
X2084933Y409905D01*
X2087016Y413715D01*
X2089251Y416356D01*
X2095042Y425805D01*
X2099310Y436118D01*
X2101900Y446887D01*
X2102764Y458012D01*
X2101900Y469087D01*
X2099310Y479907D01*
X2095042Y490169D01*
X2089251Y499668D01*
X2082038Y508101D01*
X2075383Y513791D01*
X2072741Y517245D01*
X2071827Y521512D01*
X2072741Y525729D01*
X2075383Y529234D01*
X2082038Y534873D01*
X2089251Y543356D01*
X2095042Y552805D01*
X2099310Y563118D01*
X2101900Y573887D01*
X2102764Y585012D01*
X2101900Y596087D01*
X2099310Y606907D01*
X2095042Y617169D01*
X2089251Y626668D01*
X2082038Y635101D01*
X2073554Y642315D01*
X2064054Y648157D01*
X2053793Y652424D01*
X2042972Y655015D01*
X2031492Y655929D01*
X1962302Y655929D01*
X1950821Y655015D01*
X1940001Y652424D01*
X1929739Y648157D01*
X1920239Y642315D01*
X1911756Y635101D01*
X1904542Y626668D01*
X1898751Y617169D01*
X1894484Y606907D01*
X1891893Y596087D01*
X1891030Y585012D01*
X1891893Y573887D01*
X1894484Y563118D01*
X1898751Y552805D01*
X1904542Y543356D01*
X1911756Y534873D01*
X1918411Y529234D01*
X1921052Y525729D01*
X1921967Y521512D01*
X1921052Y517245D01*
X1918411Y513791D01*
X1911756Y508101D01*
X1904542Y499668D01*
X1898751Y490169D01*
X1894484Y479907D01*
X1891893Y469087D01*
X1891030Y458012D01*
X1891893Y446887D01*
X1894484Y436118D01*
X1898751Y425805D01*
X1904542Y416356D01*
X1906778Y413715D01*
X1908860Y409905D01*
X1909114Y405587D01*
X1907539Y401574D01*
X1904492Y398526D01*
X1900783Y396189D01*
X1896668Y392125D01*
X1893620Y387197D01*
X1891690Y381762D01*
X1890979Y375412D01*
G37*
G36*
X589788Y524357D02*
G01*
X604012Y524357D01*
X618083Y526135D01*
X631850Y529742D01*
X645007Y535076D01*
X657402Y542086D01*
X668782Y550570D01*
X678992Y560425D01*
X687832Y571550D01*
X695198Y583692D01*
X700989Y596696D01*
X705002Y610311D01*
X707288Y624332D01*
X707745Y638556D01*
X706374Y652678D01*
X703224Y666546D01*
X698296Y679907D01*
X691743Y692505D01*
X683615Y704138D01*
X674065Y714654D01*
X663244Y723849D01*
X651306Y731621D01*
X638505Y737768D01*
X625043Y742238D01*
X611073Y744982D01*
X596900Y745896D01*
X582726Y744982D01*
X568756Y742238D01*
X555294Y737768D01*
X542493Y731621D01*
X530555Y723849D01*
X519734Y714654D01*
X510184Y704138D01*
X502056Y692505D01*
X495503Y679907D01*
X490575Y666546D01*
X487426Y652678D01*
X486054Y638556D01*
X486511Y624332D01*
X488797Y610311D01*
X492861Y596696D01*
X498601Y583692D01*
X505968Y571550D01*
X514807Y560425D01*
X525018Y550570D01*
X536397Y542086D01*
X548792Y535076D01*
X561949Y529742D01*
X575716Y526135D01*
G37*
G36*
X1290167Y532333D02*
G01*
X1303629Y532333D01*
X1316990Y534111D01*
X1329994Y537667D01*
X1342390Y542950D01*
X1353972Y549808D01*
X1364589Y558190D01*
X1373936Y567842D01*
X1381912Y578713D01*
X1388414Y590550D01*
X1393240Y603097D01*
X1396390Y616204D01*
X1397711Y629615D01*
X1397254Y643077D01*
X1395018Y656386D01*
X1391056Y669239D01*
X1385366Y681482D01*
X1378102Y692861D01*
X1369415Y703122D01*
X1359408Y712165D01*
X1348333Y719785D01*
X1336294Y725881D01*
X1323543Y730300D01*
X1310335Y732993D01*
X1296924Y733856D01*
X1283462Y732993D01*
X1270254Y730300D01*
X1257503Y725881D01*
X1245463Y719785D01*
X1234389Y712165D01*
X1224381Y703122D01*
X1215694Y692861D01*
X1208430Y681482D01*
X1202740Y669239D01*
X1198778Y656386D01*
X1196543Y643077D01*
X1196086Y629615D01*
X1197406Y616204D01*
X1200556Y603097D01*
X1205382Y590550D01*
X1211884Y578713D01*
X1219860Y567842D01*
X1229207Y558190D01*
X1239824Y549808D01*
X1251407Y542950D01*
X1263802Y537667D01*
X1276807Y534111D01*
G37*
G36*
X-2991154Y538327D02*
G01*
X-2850845Y538327D01*
X-2844495Y539089D01*
X-2839059Y540969D01*
X-2834132Y544068D01*
X-2830068Y548132D01*
X-2826969Y553059D01*
X-2825089Y558495D01*
X-2824327Y564845D01*
X-2824327Y705154D01*
X-2825089Y711504D01*
X-2826969Y716940D01*
X-2830068Y721868D01*
X-2834132Y725932D01*
X-2839059Y729030D01*
X-2844495Y730910D01*
X-2850845Y731621D01*
X-2991154Y731621D01*
X-2997504Y730910D01*
X-3002940Y729030D01*
X-3007868Y725932D01*
X-3011932Y721868D01*
X-3015030Y716940D01*
X-3016910Y711504D01*
X-3017621Y705154D01*
X-3017621Y564845D01*
X-3016910Y558495D01*
X-3015030Y553059D01*
X-3011932Y548132D01*
X-3007868Y544068D01*
X-3002940Y540969D01*
X-2997504Y539089D01*
G37*
G36*
X-3245154Y538327D02*
G01*
X-3104845Y538327D01*
X-3098495Y539089D01*
X-3093059Y540969D01*
X-3088132Y544068D01*
X-3084068Y548132D01*
X-3080969Y553059D01*
X-3079089Y558495D01*
X-3078327Y564845D01*
X-3078327Y705154D01*
X-3079089Y711504D01*
X-3080969Y716940D01*
X-3084068Y721868D01*
X-3088132Y725932D01*
X-3093059Y729030D01*
X-3098495Y730910D01*
X-3104845Y731621D01*
X-3245154Y731621D01*
X-3251504Y730910D01*
X-3256940Y729030D01*
X-3261867Y725932D01*
X-3265932Y721868D01*
X-3269030Y716940D01*
X-3270910Y711504D01*
X-3271621Y705154D01*
X-3271621Y564845D01*
X-3270910Y558495D01*
X-3269030Y553059D01*
X-3265932Y548132D01*
X-3261867Y544068D01*
X-3256940Y540969D01*
X-3251504Y539089D01*
G37*
G36*
X3104845Y538327D02*
G01*
X3245154Y538327D01*
X3251504Y539089D01*
X3256940Y540969D01*
X3261867Y544068D01*
X3265932Y548132D01*
X3269030Y553059D01*
X3270910Y558495D01*
X3271672Y564845D01*
X3271672Y705154D01*
X3270910Y711504D01*
X3269030Y716940D01*
X3265932Y721868D01*
X3261867Y725932D01*
X3256940Y729030D01*
X3251504Y730910D01*
X3245154Y731621D01*
X3104845Y731621D01*
X3098495Y730910D01*
X3093059Y729030D01*
X3088132Y725932D01*
X3084068Y721868D01*
X3080969Y716940D01*
X3079089Y711504D01*
X3078327Y705154D01*
X3078327Y564845D01*
X3079089Y558495D01*
X3080969Y553059D01*
X3084068Y548132D01*
X3088132Y544068D01*
X3093059Y540969D01*
X3098495Y539089D01*
G37*
G36*
X2850845Y538327D02*
G01*
X2991154Y538327D01*
X2997504Y539089D01*
X3002940Y540969D01*
X3007868Y544068D01*
X3011932Y548132D01*
X3015030Y553059D01*
X3016910Y558495D01*
X3017672Y564845D01*
X3017672Y705154D01*
X3016910Y711504D01*
X3015030Y716940D01*
X3011932Y721868D01*
X3007868Y725932D01*
X3002940Y729030D01*
X2997504Y730910D01*
X2991154Y731621D01*
X2850845Y731621D01*
X2844495Y730910D01*
X2839059Y729030D01*
X2834132Y725932D01*
X2830068Y721868D01*
X2826969Y716940D01*
X2825089Y711504D01*
X2824327Y705154D01*
X2824327Y564845D01*
X2825089Y558495D01*
X2826969Y553059D01*
X2830068Y548132D01*
X2834132Y544068D01*
X2839059Y540969D01*
X2844495Y539089D01*
G37*
G36*
X-1960524Y635508D02*
G01*
X-1947468Y635508D01*
X-1934514Y637286D01*
X-1921916Y640791D01*
X-1909927Y645972D01*
X-1898802Y652780D01*
X-1888642Y661009D01*
X-1879752Y670560D01*
X-1872183Y681278D01*
X-1866188Y692861D01*
X-1861820Y705154D01*
X-1859178Y717956D01*
X-1858264Y731012D01*
X-1859178Y744016D01*
X-1861820Y756818D01*
X-1866188Y769162D01*
X-1872183Y780745D01*
X-1879752Y791413D01*
X-1888642Y800963D01*
X-1898802Y809193D01*
X-1909927Y816000D01*
X-1921916Y821182D01*
X-1934514Y824737D01*
X-1947468Y826516D01*
X-1960524Y826516D01*
X-1973478Y824737D01*
X-1986076Y821182D01*
X-1998065Y816000D01*
X-2009190Y809193D01*
X-2019350Y800963D01*
X-2028240Y791413D01*
X-2035810Y780745D01*
X-2041804Y769162D01*
X-2046173Y756818D01*
X-2048814Y744016D01*
X-2049729Y731012D01*
X-2048814Y717956D01*
X-2046173Y705154D01*
X-2041804Y692861D01*
X-2035810Y681278D01*
X-2028240Y670560D01*
X-2019350Y661009D01*
X-2009190Y652780D01*
X-1998065Y645972D01*
X-1986076Y640791D01*
X-1973478Y637286D01*
G37*
G36*
X-1452524Y635508D02*
G01*
X-1439468Y635508D01*
X-1426514Y637286D01*
X-1413916Y640791D01*
X-1401927Y645972D01*
X-1390802Y652780D01*
X-1380642Y661009D01*
X-1371752Y670560D01*
X-1364183Y681278D01*
X-1358188Y692861D01*
X-1353820Y705154D01*
X-1351178Y717956D01*
X-1350264Y731012D01*
X-1351178Y744016D01*
X-1353820Y756818D01*
X-1358188Y769162D01*
X-1364183Y780745D01*
X-1371752Y791413D01*
X-1380642Y800963D01*
X-1390802Y809193D01*
X-1401927Y816000D01*
X-1413916Y821182D01*
X-1426514Y824737D01*
X-1439468Y826516D01*
X-1452524Y826516D01*
X-1465478Y824737D01*
X-1478076Y821182D01*
X-1490065Y816000D01*
X-1501190Y809193D01*
X-1511350Y800963D01*
X-1520240Y791413D01*
X-1527810Y780745D01*
X-1533804Y769162D01*
X-1538173Y756818D01*
X-1540814Y744016D01*
X-1541729Y731012D01*
X-1540814Y717956D01*
X-1538173Y705154D01*
X-1533804Y692861D01*
X-1527810Y681278D01*
X-1520240Y670560D01*
X-1511350Y661009D01*
X-1501190Y652780D01*
X-1490065Y645972D01*
X-1478076Y640791D01*
X-1465478Y637286D01*
G37*
G36*
X-1706524Y635508D02*
G01*
X-1693468Y635508D01*
X-1680514Y637286D01*
X-1667916Y640791D01*
X-1655927Y645972D01*
X-1644802Y652780D01*
X-1634642Y661009D01*
X-1625752Y670560D01*
X-1618183Y681278D01*
X-1612188Y692861D01*
X-1607820Y705154D01*
X-1605178Y717956D01*
X-1604264Y731012D01*
X-1605178Y744016D01*
X-1607820Y756818D01*
X-1612188Y769162D01*
X-1618183Y780745D01*
X-1625752Y791413D01*
X-1634642Y800963D01*
X-1644802Y809193D01*
X-1655927Y816000D01*
X-1667916Y821182D01*
X-1680514Y824737D01*
X-1693468Y826516D01*
X-1706524Y826516D01*
X-1719478Y824737D01*
X-1732076Y821182D01*
X-1744065Y816000D01*
X-1755190Y809193D01*
X-1765350Y800963D01*
X-1774240Y791413D01*
X-1781810Y780745D01*
X-1787804Y769162D01*
X-1792173Y756818D01*
X-1794814Y744016D01*
X-1795729Y731012D01*
X-1794814Y717956D01*
X-1792173Y705154D01*
X-1787804Y692861D01*
X-1781810Y681278D01*
X-1774240Y670560D01*
X-1765350Y661009D01*
X-1755190Y652780D01*
X-1744065Y645972D01*
X-1732076Y640791D01*
X-1719478Y637286D01*
G37*
G36*
X-2214524Y635508D02*
G01*
X-2201468Y635508D01*
X-2188514Y637286D01*
X-2175916Y640791D01*
X-2163927Y645972D01*
X-2152802Y652780D01*
X-2142642Y661009D01*
X-2133752Y670560D01*
X-2126183Y681278D01*
X-2120188Y692861D01*
X-2115820Y705154D01*
X-2113178Y717956D01*
X-2112264Y731012D01*
X-2113178Y744016D01*
X-2115820Y756818D01*
X-2120188Y769162D01*
X-2126183Y780745D01*
X-2133752Y791413D01*
X-2142642Y800963D01*
X-2152802Y809193D01*
X-2163927Y816000D01*
X-2175916Y821182D01*
X-2188514Y824737D01*
X-2201468Y826516D01*
X-2214524Y826516D01*
X-2227478Y824737D01*
X-2240076Y821182D01*
X-2252065Y816000D01*
X-2263190Y809193D01*
X-2273350Y800963D01*
X-2282240Y791413D01*
X-2289810Y780745D01*
X-2295804Y769162D01*
X-2300173Y756818D01*
X-2302814Y744016D01*
X-2303729Y731012D01*
X-2302814Y717956D01*
X-2300173Y705154D01*
X-2295804Y692861D01*
X-2289810Y681278D01*
X-2282240Y670560D01*
X-2273350Y661009D01*
X-2263190Y652780D01*
X-2252065Y645972D01*
X-2240076Y640791D01*
X-2227478Y637286D01*
G37*
G36*
X-1198524Y635508D02*
G01*
X-1185468Y635508D01*
X-1172514Y637286D01*
X-1159916Y640791D01*
X-1147927Y645972D01*
X-1136802Y652780D01*
X-1126642Y661009D01*
X-1117752Y670560D01*
X-1110183Y681278D01*
X-1104188Y692861D01*
X-1099820Y705154D01*
X-1097178Y717956D01*
X-1096264Y731012D01*
X-1097178Y744016D01*
X-1099820Y756818D01*
X-1104188Y769162D01*
X-1110183Y780745D01*
X-1117752Y791413D01*
X-1126642Y800963D01*
X-1136802Y809193D01*
X-1147927Y816000D01*
X-1159916Y821182D01*
X-1172514Y824737D01*
X-1185468Y826516D01*
X-1198524Y826516D01*
X-1211478Y824737D01*
X-1224076Y821182D01*
X-1236065Y816000D01*
X-1247190Y809193D01*
X-1257350Y800963D01*
X-1266240Y791413D01*
X-1273810Y780745D01*
X-1279804Y769162D01*
X-1284173Y756818D01*
X-1286814Y744016D01*
X-1287729Y731012D01*
X-1286814Y717956D01*
X-1284173Y705154D01*
X-1279804Y692861D01*
X-1273810Y681278D01*
X-1266240Y670560D01*
X-1257350Y661009D01*
X-1247190Y652780D01*
X-1236065Y645972D01*
X-1224076Y640791D01*
X-1211478Y637286D01*
G37*
G36*
X-2468524Y635508D02*
G01*
X-2455468Y635508D01*
X-2442514Y637286D01*
X-2429916Y640791D01*
X-2417927Y645972D01*
X-2406802Y652780D01*
X-2396642Y661009D01*
X-2387752Y670560D01*
X-2380183Y681278D01*
X-2374188Y692861D01*
X-2369820Y705154D01*
X-2367178Y717956D01*
X-2366264Y731012D01*
X-2367178Y744016D01*
X-2369820Y756818D01*
X-2374188Y769162D01*
X-2380183Y780745D01*
X-2387752Y791413D01*
X-2396642Y800963D01*
X-2406802Y809193D01*
X-2417927Y816000D01*
X-2429916Y821182D01*
X-2442514Y824737D01*
X-2455468Y826516D01*
X-2468524Y826516D01*
X-2481478Y824737D01*
X-2494076Y821182D01*
X-2506065Y816000D01*
X-2517190Y809193D01*
X-2527350Y800963D01*
X-2536240Y791413D01*
X-2543810Y780745D01*
X-2549804Y769162D01*
X-2554173Y756818D01*
X-2556814Y744016D01*
X-2557729Y731012D01*
X-2556814Y717956D01*
X-2554173Y705154D01*
X-2549804Y692861D01*
X-2543810Y681278D01*
X-2536240Y670560D01*
X-2527350Y661009D01*
X-2517190Y652780D01*
X-2506065Y645972D01*
X-2494076Y640791D01*
X-2481478Y637286D01*
G37*
G36*
X-944524Y635508D02*
G01*
X-931468Y635508D01*
X-918514Y637286D01*
X-905916Y640791D01*
X-893927Y645972D01*
X-882802Y652780D01*
X-872642Y661009D01*
X-863752Y670560D01*
X-856183Y681278D01*
X-850188Y692861D01*
X-845819Y705154D01*
X-843178Y717956D01*
X-842264Y731012D01*
X-843178Y744016D01*
X-845819Y756818D01*
X-850188Y769162D01*
X-856183Y780745D01*
X-863752Y791413D01*
X-872642Y800963D01*
X-882802Y809193D01*
X-893927Y816000D01*
X-905916Y821182D01*
X-918514Y824737D01*
X-931468Y826516D01*
X-944524Y826516D01*
X-957478Y824737D01*
X-970076Y821182D01*
X-982065Y816000D01*
X-993190Y809193D01*
X-1003350Y800963D01*
X-1012240Y791413D01*
X-1019810Y780745D01*
X-1025804Y769162D01*
X-1030173Y756818D01*
X-1032814Y744016D01*
X-1033729Y731012D01*
X-1032814Y717956D01*
X-1030173Y705154D01*
X-1025804Y692861D01*
X-1019810Y681278D01*
X-1012240Y670560D01*
X-1003350Y661009D01*
X-993190Y652780D01*
X-982065Y645972D01*
X-970076Y640791D01*
X-957478Y637286D01*
G37*
G36*
X79705Y777087D02*
G01*
X199694Y777087D01*
X206044Y777849D01*
X211480Y779729D01*
X216408Y782828D01*
X220471Y786892D01*
X223570Y791819D01*
X225450Y797255D01*
X226212Y803605D01*
X226212Y923594D01*
X225450Y929944D01*
X223570Y935380D01*
X220471Y940308D01*
X216408Y944371D01*
X211480Y947470D01*
X206044Y949350D01*
X199694Y950061D01*
X79705Y950061D01*
X73355Y949350D01*
X67919Y947470D01*
X62991Y944371D01*
X58928Y940308D01*
X55829Y935380D01*
X53949Y929944D01*
X53238Y923594D01*
X53238Y803605D01*
X53949Y797255D01*
X55829Y791819D01*
X58928Y786892D01*
X62991Y782828D01*
X67919Y779729D01*
X73355Y777849D01*
G37*
G36*
X-3245154Y792327D02*
G01*
X-3104845Y792327D01*
X-3098495Y793089D01*
X-3093059Y794969D01*
X-3088132Y798068D01*
X-3084068Y802132D01*
X-3080969Y807059D01*
X-3079089Y812495D01*
X-3078327Y818845D01*
X-3078327Y959154D01*
X-3079089Y965504D01*
X-3080969Y970940D01*
X-3084068Y975868D01*
X-3088132Y979932D01*
X-3093059Y983030D01*
X-3098495Y984910D01*
X-3104845Y985621D01*
X-3245154Y985621D01*
X-3251504Y984910D01*
X-3256940Y983030D01*
X-3261867Y979932D01*
X-3265932Y975868D01*
X-3269030Y970940D01*
X-3270910Y965504D01*
X-3271621Y959154D01*
X-3271621Y818845D01*
X-3270910Y812495D01*
X-3269030Y807059D01*
X-3265932Y802132D01*
X-3261867Y798068D01*
X-3256940Y794969D01*
X-3251504Y793089D01*
G37*
G36*
X-2991154Y792327D02*
G01*
X-2850845Y792327D01*
X-2844495Y793089D01*
X-2839059Y794969D01*
X-2834132Y798068D01*
X-2830068Y802132D01*
X-2826969Y807059D01*
X-2825089Y812495D01*
X-2824327Y818845D01*
X-2824327Y959154D01*
X-2825089Y965504D01*
X-2826969Y970940D01*
X-2830068Y975868D01*
X-2834132Y979932D01*
X-2839059Y983030D01*
X-2844495Y984910D01*
X-2850845Y985621D01*
X-2991154Y985621D01*
X-2997504Y984910D01*
X-3002940Y983030D01*
X-3007868Y979932D01*
X-3011932Y975868D01*
X-3015030Y970940D01*
X-3016910Y965504D01*
X-3017621Y959154D01*
X-3017621Y818845D01*
X-3016910Y812495D01*
X-3015030Y807059D01*
X-3011932Y802132D01*
X-3007868Y798068D01*
X-3002940Y794969D01*
X-2997504Y793089D01*
G37*
G36*
X2850845Y792327D02*
G01*
X2991154Y792327D01*
X2997504Y793089D01*
X3002940Y794969D01*
X3007868Y798068D01*
X3011932Y802132D01*
X3015030Y807059D01*
X3016910Y812495D01*
X3017672Y818845D01*
X3017672Y959154D01*
X3016910Y965504D01*
X3015030Y970940D01*
X3011932Y975868D01*
X3007868Y979932D01*
X3002940Y983030D01*
X2997504Y984910D01*
X2991154Y985621D01*
X2850845Y985621D01*
X2844495Y984910D01*
X2839059Y983030D01*
X2834132Y979932D01*
X2830068Y975868D01*
X2826969Y970940D01*
X2825089Y965504D01*
X2824327Y959154D01*
X2824327Y818845D01*
X2825089Y812495D01*
X2826969Y807059D01*
X2830068Y802132D01*
X2834132Y798068D01*
X2839059Y794969D01*
X2844495Y793089D01*
G37*
G36*
X3104845Y792327D02*
G01*
X3245154Y792327D01*
X3251504Y793089D01*
X3256940Y794969D01*
X3261867Y798068D01*
X3265932Y802132D01*
X3269030Y807059D01*
X3270910Y812495D01*
X3271672Y818845D01*
X3271672Y959154D01*
X3270910Y965504D01*
X3269030Y970940D01*
X3265932Y975868D01*
X3261867Y979932D01*
X3256940Y983030D01*
X3251504Y984910D01*
X3245154Y985621D01*
X3104845Y985621D01*
X3098495Y984910D01*
X3093059Y983030D01*
X3088132Y979932D01*
X3084068Y975868D01*
X3080969Y970940D01*
X3079089Y965504D01*
X3078327Y959154D01*
X3078327Y818845D01*
X3079089Y812495D01*
X3080969Y807059D01*
X3084068Y802132D01*
X3088132Y798068D01*
X3093059Y794969D01*
X3098495Y793089D01*
G37*
G36*
X-2991154Y1046327D02*
G01*
X-2850845Y1046327D01*
X-2844495Y1047089D01*
X-2839059Y1048969D01*
X-2834132Y1052068D01*
X-2830068Y1056132D01*
X-2826969Y1061059D01*
X-2825089Y1066495D01*
X-2824327Y1072845D01*
X-2824327Y1213154D01*
X-2825089Y1219504D01*
X-2826969Y1224940D01*
X-2830068Y1229868D01*
X-2834132Y1233932D01*
X-2839059Y1237030D01*
X-2844495Y1238910D01*
X-2850845Y1239621D01*
X-2991154Y1239621D01*
X-2997504Y1238910D01*
X-3002940Y1237030D01*
X-3007868Y1233932D01*
X-3011932Y1229868D01*
X-3015030Y1224940D01*
X-3016910Y1219504D01*
X-3017621Y1213154D01*
X-3017621Y1072845D01*
X-3016910Y1066495D01*
X-3015030Y1061059D01*
X-3011932Y1056132D01*
X-3007868Y1052068D01*
X-3002940Y1048969D01*
X-2997504Y1047089D01*
G37*
G36*
X-3245154Y1046327D02*
G01*
X-3104845Y1046327D01*
X-3098495Y1047089D01*
X-3093059Y1048969D01*
X-3088132Y1052068D01*
X-3084068Y1056132D01*
X-3080969Y1061059D01*
X-3079089Y1066495D01*
X-3078327Y1072845D01*
X-3078327Y1213154D01*
X-3079089Y1219504D01*
X-3080969Y1224940D01*
X-3084068Y1229868D01*
X-3088132Y1233932D01*
X-3093059Y1237030D01*
X-3098495Y1238910D01*
X-3104845Y1239621D01*
X-3245154Y1239621D01*
X-3251504Y1238910D01*
X-3256940Y1237030D01*
X-3261867Y1233932D01*
X-3265932Y1229868D01*
X-3269030Y1224940D01*
X-3270910Y1219504D01*
X-3271621Y1213154D01*
X-3271621Y1072845D01*
X-3270910Y1066495D01*
X-3269030Y1061059D01*
X-3265932Y1056132D01*
X-3261867Y1052068D01*
X-3256940Y1048969D01*
X-3251504Y1047089D01*
G37*
G36*
X2850845Y1046327D02*
G01*
X2991154Y1046327D01*
X2997504Y1047089D01*
X3002940Y1048969D01*
X3007868Y1052068D01*
X3011932Y1056132D01*
X3015030Y1061059D01*
X3016910Y1066495D01*
X3017672Y1072845D01*
X3017672Y1213154D01*
X3016910Y1219504D01*
X3015030Y1224940D01*
X3011932Y1229868D01*
X3007868Y1233932D01*
X3002940Y1237030D01*
X2997504Y1238910D01*
X2991154Y1239621D01*
X2850845Y1239621D01*
X2844495Y1238910D01*
X2839059Y1237030D01*
X2834132Y1233932D01*
X2830068Y1229868D01*
X2826969Y1224940D01*
X2825089Y1219504D01*
X2824327Y1213154D01*
X2824327Y1072845D01*
X2825089Y1066495D01*
X2826969Y1061059D01*
X2830068Y1056132D01*
X2834132Y1052068D01*
X2839059Y1048969D01*
X2844495Y1047089D01*
G37*
G36*
X3104845Y1046327D02*
G01*
X3245154Y1046327D01*
X3251504Y1047089D01*
X3256940Y1048969D01*
X3261867Y1052068D01*
X3265932Y1056132D01*
X3269030Y1061059D01*
X3270910Y1066495D01*
X3271672Y1072845D01*
X3271672Y1213154D01*
X3270910Y1219504D01*
X3269030Y1224940D01*
X3265932Y1229868D01*
X3261867Y1233932D01*
X3256940Y1237030D01*
X3251504Y1238910D01*
X3245154Y1239621D01*
X3104845Y1239621D01*
X3098495Y1238910D01*
X3093059Y1237030D01*
X3088132Y1233932D01*
X3084068Y1229868D01*
X3080969Y1224940D01*
X3079089Y1219504D01*
X3078327Y1213154D01*
X3078327Y1072845D01*
X3079089Y1066495D01*
X3080969Y1061059D01*
X3084068Y1056132D01*
X3088132Y1052068D01*
X3093059Y1048969D01*
X3098495Y1047089D01*
G37*
G36*
X1936750Y1096873D02*
G01*
X1969871Y1096873D01*
X1969871Y1138936D01*
X1910283Y1138936D01*
X1910283Y1123391D01*
X1910994Y1117041D01*
X1912924Y1111605D01*
X1915972Y1106678D01*
X1920087Y1102614D01*
X1924964Y1099515D01*
X1930450Y1097584D01*
G37*
G36*
X2062530Y1096873D02*
G01*
X2095652Y1096873D01*
X2101951Y1097584D01*
X2107438Y1099515D01*
X2112314Y1102614D01*
X2116429Y1106678D01*
X2119477Y1111605D01*
X2121408Y1117041D01*
X2122119Y1123391D01*
X2122119Y1138936D01*
X2062530Y1138936D01*
G37*
G36*
X512470Y1146403D02*
G01*
X681329Y1146403D01*
X687628Y1147114D01*
X693115Y1148994D01*
X697992Y1152093D01*
X702106Y1156208D01*
X705205Y1161084D01*
X707085Y1166571D01*
X707796Y1172870D01*
X707796Y1341729D01*
X707085Y1348028D01*
X705205Y1353515D01*
X702106Y1358392D01*
X697992Y1362506D01*
X693115Y1365605D01*
X687628Y1367485D01*
X681329Y1368196D01*
X512470Y1368196D01*
X506171Y1367485D01*
X500684Y1365605D01*
X495808Y1362506D01*
X491693Y1358392D01*
X488594Y1353515D01*
X486714Y1348028D01*
X486003Y1341729D01*
X486003Y1172870D01*
X486714Y1166571D01*
X488594Y1161084D01*
X491693Y1156208D01*
X495808Y1152093D01*
X500684Y1148994D01*
X506171Y1147114D01*
G37*
G36*
X1222451Y1157173D02*
G01*
X1371346Y1157173D01*
X1377645Y1157884D01*
X1383131Y1159814D01*
X1388008Y1162913D01*
X1392123Y1166977D01*
X1395171Y1171905D01*
X1397101Y1177340D01*
X1397812Y1183640D01*
X1397812Y1334922D01*
X1397101Y1341221D01*
X1395171Y1346708D01*
X1392123Y1351584D01*
X1388008Y1355699D01*
X1383131Y1358798D01*
X1377645Y1360678D01*
X1371346Y1361389D01*
X1222451Y1361389D01*
X1216152Y1360678D01*
X1210665Y1358798D01*
X1205788Y1355699D01*
X1201674Y1351584D01*
X1198626Y1346708D01*
X1196695Y1341221D01*
X1195984Y1334922D01*
X1195984Y1183640D01*
X1196695Y1177340D01*
X1198626Y1171905D01*
X1201674Y1166977D01*
X1205788Y1162913D01*
X1210665Y1159814D01*
X1216152Y1157884D01*
G37*
G36*
X1910283Y1196644D02*
G01*
X1969871Y1196644D01*
X1969871Y1213815D01*
X1970684Y1217879D01*
X1973122Y1221282D01*
X1976678Y1223416D01*
X1981606Y1223873D01*
X2050796Y1223873D01*
X2055723Y1223416D01*
X2059279Y1221282D01*
X2061718Y1217879D01*
X2062530Y1213815D01*
X2062530Y1196644D01*
X2122119Y1196644D01*
X2122119Y1212240D01*
X2121408Y1218539D01*
X2119477Y1224026D01*
X2116429Y1228902D01*
X2112314Y1233017D01*
X2108606Y1235303D01*
X2105558Y1238351D01*
X2103983Y1242415D01*
X2104237Y1246733D01*
X2106320Y1250543D01*
X2108555Y1253134D01*
X2114346Y1262634D01*
X2118614Y1272895D01*
X2121204Y1283716D01*
X2122068Y1294790D01*
X2121204Y1305915D01*
X2118614Y1316685D01*
X2114346Y1326997D01*
X2108555Y1336446D01*
X2101342Y1344930D01*
X2094687Y1350568D01*
X2092045Y1354074D01*
X2091131Y1358290D01*
X2092045Y1362557D01*
X2094687Y1366012D01*
X2101342Y1371701D01*
X2108555Y1380134D01*
X2114346Y1389634D01*
X2118614Y1399895D01*
X2121204Y1410716D01*
X2122068Y1421790D01*
X2121204Y1432915D01*
X2118614Y1443685D01*
X2114346Y1453997D01*
X2108555Y1463446D01*
X2101342Y1471930D01*
X2092858Y1479143D01*
X2083358Y1484934D01*
X2073097Y1489202D01*
X2062276Y1491792D01*
X2050796Y1492707D01*
X1981606Y1492707D01*
X1970125Y1491792D01*
X1959305Y1489202D01*
X1949043Y1484934D01*
X1939543Y1479143D01*
X1931060Y1471930D01*
X1923846Y1463446D01*
X1918055Y1453997D01*
X1913788Y1443685D01*
X1911197Y1432915D01*
X1910334Y1421790D01*
X1911197Y1410716D01*
X1913788Y1399895D01*
X1918055Y1389634D01*
X1923846Y1380134D01*
X1931060Y1371701D01*
X1937715Y1366012D01*
X1940356Y1362557D01*
X1941271Y1358290D01*
X1940356Y1354074D01*
X1937715Y1350568D01*
X1931060Y1344930D01*
X1923846Y1336446D01*
X1918055Y1326997D01*
X1913788Y1316685D01*
X1911197Y1305915D01*
X1910334Y1294790D01*
X1911197Y1283716D01*
X1913788Y1272895D01*
X1918055Y1262634D01*
X1923846Y1253134D01*
X1926082Y1250543D01*
X1928164Y1246733D01*
X1928418Y1242415D01*
X1926843Y1238351D01*
X1923796Y1235303D01*
X1920087Y1233017D01*
X1915972Y1228902D01*
X1912924Y1224026D01*
X1910994Y1218539D01*
X1910283Y1212240D01*
G37*
G36*
X-2991154Y1300327D02*
G01*
X-2850845Y1300327D01*
X-2844495Y1301089D01*
X-2839059Y1302969D01*
X-2834132Y1306068D01*
X-2830068Y1310132D01*
X-2826969Y1315059D01*
X-2825089Y1320495D01*
X-2824327Y1326845D01*
X-2824327Y1467154D01*
X-2825089Y1473504D01*
X-2826969Y1478940D01*
X-2830068Y1483868D01*
X-2834132Y1487932D01*
X-2839059Y1491030D01*
X-2844495Y1492910D01*
X-2850845Y1493621D01*
X-2991154Y1493621D01*
X-2997504Y1492910D01*
X-3002940Y1491030D01*
X-3007868Y1487932D01*
X-3011932Y1483868D01*
X-3015030Y1478940D01*
X-3016910Y1473504D01*
X-3017621Y1467154D01*
X-3017621Y1326845D01*
X-3016910Y1320495D01*
X-3015030Y1315059D01*
X-3011932Y1310132D01*
X-3007868Y1306068D01*
X-3002940Y1302969D01*
X-2997504Y1301089D01*
G37*
G36*
X-3245154Y1300327D02*
G01*
X-3104845Y1300327D01*
X-3098495Y1301089D01*
X-3093059Y1302969D01*
X-3088132Y1306068D01*
X-3084068Y1310132D01*
X-3080969Y1315059D01*
X-3079089Y1320495D01*
X-3078327Y1326845D01*
X-3078327Y1467154D01*
X-3079089Y1473504D01*
X-3080969Y1478940D01*
X-3084068Y1483868D01*
X-3088132Y1487932D01*
X-3093059Y1491030D01*
X-3098495Y1492910D01*
X-3104845Y1493621D01*
X-3245154Y1493621D01*
X-3251504Y1492910D01*
X-3256940Y1491030D01*
X-3261867Y1487932D01*
X-3265932Y1483868D01*
X-3269030Y1478940D01*
X-3270910Y1473504D01*
X-3271621Y1467154D01*
X-3271621Y1326845D01*
X-3270910Y1320495D01*
X-3269030Y1315059D01*
X-3265932Y1310132D01*
X-3261867Y1306068D01*
X-3256940Y1302969D01*
X-3251504Y1301089D01*
G37*
G36*
X2850845Y1300327D02*
G01*
X2991154Y1300327D01*
X2997504Y1301089D01*
X3002940Y1302969D01*
X3007868Y1306068D01*
X3011932Y1310132D01*
X3015030Y1315059D01*
X3016910Y1320495D01*
X3017672Y1326845D01*
X3017672Y1467154D01*
X3016910Y1473504D01*
X3015030Y1478940D01*
X3011932Y1483868D01*
X3007868Y1487932D01*
X3002940Y1491030D01*
X2997504Y1492910D01*
X2991154Y1493621D01*
X2850845Y1493621D01*
X2844495Y1492910D01*
X2839059Y1491030D01*
X2834132Y1487932D01*
X2830068Y1483868D01*
X2826969Y1478940D01*
X2825089Y1473504D01*
X2824327Y1467154D01*
X2824327Y1326845D01*
X2825089Y1320495D01*
X2826969Y1315059D01*
X2830068Y1310132D01*
X2834132Y1306068D01*
X2839059Y1302969D01*
X2844495Y1301089D01*
G37*
G36*
X3104845Y1300327D02*
G01*
X3245154Y1300327D01*
X3251504Y1301089D01*
X3256940Y1302969D01*
X3261867Y1306068D01*
X3265932Y1310132D01*
X3269030Y1315059D01*
X3270910Y1320495D01*
X3271672Y1326845D01*
X3271672Y1467154D01*
X3270910Y1473504D01*
X3269030Y1478940D01*
X3265932Y1483868D01*
X3261867Y1487932D01*
X3256940Y1491030D01*
X3251504Y1492910D01*
X3245154Y1493621D01*
X3104845Y1493621D01*
X3098495Y1492910D01*
X3093059Y1491030D01*
X3088132Y1487932D01*
X3084068Y1483868D01*
X3080969Y1478940D01*
X3079089Y1473504D01*
X3078327Y1467154D01*
X3078327Y1326845D01*
X3079089Y1320495D01*
X3080969Y1315059D01*
X3084068Y1310132D01*
X3088132Y1306068D01*
X3093059Y1302969D01*
X3098495Y1301089D01*
G37*
G36*
X589788Y1400657D02*
G01*
X604012Y1400657D01*
X618083Y1402435D01*
X631850Y1406042D01*
X645007Y1411376D01*
X657402Y1418386D01*
X668782Y1426870D01*
X678992Y1436725D01*
X687832Y1447850D01*
X695198Y1459992D01*
X700989Y1472996D01*
X705002Y1486611D01*
X707288Y1500632D01*
X707745Y1514856D01*
X706374Y1528978D01*
X703224Y1542846D01*
X698296Y1556207D01*
X691743Y1568805D01*
X683615Y1580438D01*
X674065Y1590954D01*
X663244Y1600149D01*
X651306Y1607921D01*
X638505Y1614068D01*
X625043Y1618538D01*
X611073Y1621282D01*
X596900Y1622196D01*
X582726Y1621282D01*
X568756Y1618538D01*
X555294Y1614068D01*
X542493Y1607921D01*
X530555Y1600149D01*
X519734Y1590954D01*
X510184Y1580438D01*
X502056Y1568805D01*
X495503Y1556207D01*
X490575Y1542846D01*
X487426Y1528978D01*
X486054Y1514856D01*
X486511Y1500632D01*
X488797Y1486611D01*
X492861Y1472996D01*
X498601Y1459992D01*
X505968Y1447850D01*
X514807Y1436725D01*
X525018Y1426870D01*
X536397Y1418386D01*
X548792Y1411376D01*
X561949Y1406042D01*
X575716Y1402435D01*
G37*
G36*
X1290167Y1408633D02*
G01*
X1303629Y1408633D01*
X1316990Y1410411D01*
X1329994Y1413967D01*
X1342390Y1419250D01*
X1353972Y1426108D01*
X1364589Y1434490D01*
X1373936Y1444142D01*
X1381912Y1455013D01*
X1388414Y1466850D01*
X1393240Y1479397D01*
X1396390Y1492504D01*
X1397711Y1505915D01*
X1397254Y1519377D01*
X1395018Y1532686D01*
X1391056Y1545539D01*
X1385366Y1557782D01*
X1378102Y1569161D01*
X1369415Y1579422D01*
X1359408Y1588465D01*
X1348333Y1596085D01*
X1336294Y1602181D01*
X1323543Y1606600D01*
X1310335Y1609293D01*
X1296924Y1610156D01*
X1283462Y1609293D01*
X1270254Y1606600D01*
X1257503Y1602181D01*
X1245463Y1596085D01*
X1234389Y1588465D01*
X1224381Y1579422D01*
X1215694Y1569161D01*
X1208430Y1557782D01*
X1202740Y1545539D01*
X1198778Y1532686D01*
X1196543Y1519377D01*
X1196086Y1505915D01*
X1197406Y1492504D01*
X1200556Y1479397D01*
X1205382Y1466850D01*
X1211884Y1455013D01*
X1219860Y1444142D01*
X1229207Y1434490D01*
X1239824Y1426108D01*
X1251407Y1419250D01*
X1263802Y1413967D01*
X1276807Y1410411D01*
G37*
G36*
X-2991154Y1554327D02*
G01*
X-2850845Y1554327D01*
X-2844495Y1555089D01*
X-2839059Y1556969D01*
X-2834132Y1560068D01*
X-2830068Y1564132D01*
X-2826969Y1569059D01*
X-2825089Y1574495D01*
X-2824327Y1580845D01*
X-2824327Y1721154D01*
X-2825089Y1727504D01*
X-2826969Y1732940D01*
X-2830068Y1737868D01*
X-2834132Y1741932D01*
X-2839059Y1745030D01*
X-2844495Y1746910D01*
X-2850845Y1747621D01*
X-2991154Y1747621D01*
X-2997504Y1746910D01*
X-3002940Y1745030D01*
X-3007868Y1741932D01*
X-3011932Y1737868D01*
X-3015030Y1732940D01*
X-3016910Y1727504D01*
X-3017621Y1721154D01*
X-3017621Y1580845D01*
X-3016910Y1574495D01*
X-3015030Y1569059D01*
X-3011932Y1564132D01*
X-3007868Y1560068D01*
X-3002940Y1556969D01*
X-2997504Y1555089D01*
G37*
G36*
X-3245154Y1554327D02*
G01*
X-3104845Y1554327D01*
X-3098495Y1555089D01*
X-3093059Y1556969D01*
X-3088132Y1560068D01*
X-3084068Y1564132D01*
X-3080969Y1569059D01*
X-3079089Y1574495D01*
X-3078327Y1580845D01*
X-3078327Y1721154D01*
X-3079089Y1727504D01*
X-3080969Y1732940D01*
X-3084068Y1737868D01*
X-3088132Y1741932D01*
X-3093059Y1745030D01*
X-3098495Y1746910D01*
X-3104845Y1747621D01*
X-3245154Y1747621D01*
X-3251504Y1746910D01*
X-3256940Y1745030D01*
X-3261867Y1741932D01*
X-3265932Y1737868D01*
X-3269030Y1732940D01*
X-3270910Y1727504D01*
X-3271621Y1721154D01*
X-3271621Y1580845D01*
X-3270910Y1574495D01*
X-3269030Y1569059D01*
X-3265932Y1564132D01*
X-3261867Y1560068D01*
X-3256940Y1556969D01*
X-3251504Y1555089D01*
G37*
G36*
X2850845Y1554327D02*
G01*
X2991154Y1554327D01*
X2997504Y1555089D01*
X3002940Y1556969D01*
X3007868Y1560068D01*
X3011932Y1564132D01*
X3015030Y1569059D01*
X3016910Y1574495D01*
X3017672Y1580845D01*
X3017672Y1721154D01*
X3016910Y1727504D01*
X3015030Y1732940D01*
X3011932Y1737868D01*
X3007868Y1741932D01*
X3002940Y1745030D01*
X2997504Y1746910D01*
X2991154Y1747621D01*
X2850845Y1747621D01*
X2844495Y1746910D01*
X2839059Y1745030D01*
X2834132Y1741932D01*
X2830068Y1737868D01*
X2826969Y1732940D01*
X2825089Y1727504D01*
X2824327Y1721154D01*
X2824327Y1580845D01*
X2825089Y1574495D01*
X2826969Y1569059D01*
X2830068Y1564132D01*
X2834132Y1560068D01*
X2839059Y1556969D01*
X2844495Y1555089D01*
G37*
G36*
X3104845Y1554327D02*
G01*
X3245154Y1554327D01*
X3251504Y1555089D01*
X3256940Y1556969D01*
X3261867Y1560068D01*
X3265932Y1564132D01*
X3269030Y1569059D01*
X3270910Y1574495D01*
X3271672Y1580845D01*
X3271672Y1721154D01*
X3270910Y1727504D01*
X3269030Y1732940D01*
X3265932Y1737868D01*
X3261867Y1741932D01*
X3256940Y1745030D01*
X3251504Y1746910D01*
X3245154Y1747621D01*
X3104845Y1747621D01*
X3098495Y1746910D01*
X3093059Y1745030D01*
X3088132Y1741932D01*
X3084068Y1737868D01*
X3080969Y1732940D01*
X3079089Y1727504D01*
X3078327Y1721154D01*
X3078327Y1580845D01*
X3079089Y1574495D01*
X3080969Y1569059D01*
X3084068Y1564132D01*
X3088132Y1560068D01*
X3093059Y1556969D01*
X3098495Y1555089D01*
G37*
G36*
X825601Y1638604D02*
G01*
X1666341Y1638655D01*
X1675180Y1639468D01*
X1677619Y1639874D01*
X1686255Y1642008D01*
X1688592Y1642770D01*
X1696821Y1646174D01*
X1699006Y1647291D01*
X1706625Y1651914D01*
X1715465Y1658975D01*
X2138324Y2081834D01*
X2145385Y2090674D01*
X2150008Y2098294D01*
X2151126Y2100478D01*
X2154529Y2108708D01*
X2155291Y2111044D01*
X2157425Y2119680D01*
X2157831Y2122119D01*
X2158644Y2130958D01*
X2158695Y2520645D01*
X2159355Y2524252D01*
X2161286Y2527401D01*
X2164181Y2529687D01*
X2167737Y2530754D01*
X2173528Y2531414D01*
X2179015Y2533294D01*
X2183892Y2536393D01*
X2188006Y2540508D01*
X2191105Y2545384D01*
X2192985Y2550871D01*
X2193696Y2557170D01*
X2193696Y2726029D01*
X2192985Y2732328D01*
X2191105Y2737815D01*
X2188006Y2742692D01*
X2183892Y2746806D01*
X2179015Y2749905D01*
X2173528Y2751785D01*
X2167229Y2752496D01*
X1998370Y2752496D01*
X1992071Y2751785D01*
X1986584Y2749905D01*
X1981707Y2746806D01*
X1977593Y2742692D01*
X1974494Y2737815D01*
X1972614Y2732328D01*
X1971903Y2726029D01*
X1971903Y2557170D01*
X1972614Y2550871D01*
X1974494Y2545384D01*
X1977593Y2540508D01*
X1981707Y2536393D01*
X1986584Y2533294D01*
X1992071Y2531414D01*
X1997862Y2530754D01*
X2001418Y2529687D01*
X2004314Y2527401D01*
X2006244Y2524252D01*
X2006904Y2520645D01*
X2006904Y2169261D01*
X2006142Y2165350D01*
X2003907Y2162048D01*
X1635251Y1793392D01*
X1631950Y1791157D01*
X1628038Y1790395D01*
X861161Y1790395D01*
X857250Y1791157D01*
X853948Y1793392D01*
X699465Y1947824D01*
X690626Y1954885D01*
X683006Y1959508D01*
X680821Y1960625D01*
X672592Y1964029D01*
X670255Y1964791D01*
X661619Y1966925D01*
X659180Y1967331D01*
X650341Y1968144D01*
X454761Y1968195D01*
X450850Y1968957D01*
X447548Y1971192D01*
X306171Y2112467D01*
X299313Y2118156D01*
X297332Y2119579D01*
X289712Y2124151D01*
X287528Y2125268D01*
X279298Y2128672D01*
X276961Y2129434D01*
X268325Y2131618D01*
X265938Y2132025D01*
X257048Y2132838D01*
X33172Y2132888D01*
X29260Y2133650D01*
X25958Y2135886D01*
X23774Y2139137D01*
X23012Y2143048D01*
X23012Y2257094D01*
X22250Y2263444D01*
X20370Y2268880D01*
X17272Y2273808D01*
X13208Y2277872D01*
X8280Y2280970D01*
X2844Y2282850D01*
X-3505Y2283561D01*
X-123494Y2283561D01*
X-129844Y2282850D01*
X-135280Y2280970D01*
X-140208Y2277872D01*
X-144272Y2273808D01*
X-147370Y2268880D01*
X-149250Y2263444D01*
X-149961Y2257094D01*
X-149961Y2199589D01*
X-150774Y2195677D01*
X-152958Y2192375D01*
X-156260Y2190191D01*
X-160121Y2189429D01*
X-164033Y2190191D01*
X-167335Y2192375D01*
X-227634Y2252624D01*
X-236474Y2259685D01*
X-244094Y2264308D01*
X-246278Y2265426D01*
X-254508Y2268829D01*
X-256844Y2269591D01*
X-265480Y2271725D01*
X-267919Y2272131D01*
X-276758Y2272944D01*
X-2212238Y2272995D01*
X-2216150Y2273757D01*
X-2219452Y2275992D01*
X-2346807Y2403348D01*
X-2349042Y2406650D01*
X-2349804Y2410561D01*
X-2349804Y2444597D01*
X-2348839Y2448915D01*
X-2346096Y2452420D01*
X-2342388Y2455519D01*
X-2332380Y2466136D01*
X-2323846Y2477922D01*
X-2316835Y2490673D01*
X-2311501Y2504186D01*
X-2307844Y2518308D01*
X-2306777Y2526893D01*
X-2305405Y2530805D01*
X-2302611Y2533904D01*
X-2298750Y2535580D01*
X-2294636Y2535580D01*
X-2290775Y2533904D01*
X-2287981Y2530805D01*
X-2286609Y2526893D01*
X-2285542Y2518308D01*
X-2281885Y2504186D01*
X-2276551Y2490673D01*
X-2269540Y2477922D01*
X-2261006Y2466136D01*
X-2250998Y2455519D01*
X-2239822Y2446274D01*
X-2227529Y2438450D01*
X-2214372Y2432253D01*
X-2200503Y2427782D01*
X-2186228Y2425039D01*
X-2171700Y2424125D01*
X-2157171Y2425039D01*
X-2142845Y2427782D01*
X-2129028Y2432253D01*
X-2115870Y2438450D01*
X-2103577Y2446274D01*
X-2092350Y2455519D01*
X-2082393Y2466136D01*
X-2073859Y2477922D01*
X-2066848Y2490673D01*
X-2061464Y2504186D01*
X-2057857Y2518308D01*
X-2056790Y2526792D01*
X-2055418Y2530754D01*
X-2052574Y2533802D01*
X-2048764Y2535478D01*
X-2044598Y2535478D01*
X-2040788Y2533802D01*
X-2037994Y2530754D01*
X-2036622Y2526792D01*
X-2035556Y2518308D01*
X-2031898Y2504186D01*
X-2026564Y2490673D01*
X-2019554Y2477922D01*
X-2011019Y2466136D01*
X-2001012Y2455519D01*
X-1989836Y2446274D01*
X-1977542Y2438450D01*
X-1964385Y2432253D01*
X-1950516Y2427782D01*
X-1936242Y2425039D01*
X-1921713Y2424125D01*
X-1907184Y2425039D01*
X-1892858Y2427782D01*
X-1879041Y2432253D01*
X-1865884Y2438450D01*
X-1853590Y2446274D01*
X-1842363Y2455519D01*
X-1832406Y2466136D01*
X-1823872Y2477922D01*
X-1816862Y2490673D01*
X-1811477Y2504186D01*
X-1807870Y2518308D01*
X-1806041Y2532735D01*
X-1806041Y2547264D01*
X-1807870Y2561742D01*
X-1811477Y2575814D01*
X-1816862Y2589377D01*
X-1823872Y2602128D01*
X-1832406Y2613863D01*
X-1842363Y2624480D01*
X-1853590Y2633776D01*
X-1865884Y2641549D01*
X-1879041Y2647746D01*
X-1892858Y2652268D01*
X-1907184Y2655011D01*
X-1921713Y2655925D01*
X-1936242Y2655011D01*
X-1950516Y2652268D01*
X-1964385Y2647746D01*
X-1977542Y2641549D01*
X-1989836Y2633776D01*
X-2001012Y2624480D01*
X-2011019Y2613863D01*
X-2019554Y2602128D01*
X-2026564Y2589377D01*
X-2031898Y2575814D01*
X-2035556Y2561742D01*
X-2036622Y2553208D01*
X-2037994Y2549296D01*
X-2040788Y2546248D01*
X-2044598Y2544572D01*
X-2048764Y2544572D01*
X-2052574Y2546248D01*
X-2055418Y2549296D01*
X-2056790Y2553208D01*
X-2057857Y2561742D01*
X-2061464Y2575814D01*
X-2066848Y2589377D01*
X-2073859Y2602128D01*
X-2082393Y2613863D01*
X-2092350Y2624480D01*
X-2103577Y2633776D01*
X-2115870Y2641549D01*
X-2129028Y2647746D01*
X-2142845Y2652268D01*
X-2157171Y2655011D01*
X-2171700Y2655925D01*
X-2186228Y2655011D01*
X-2200503Y2652268D01*
X-2214372Y2647746D01*
X-2227529Y2641549D01*
X-2239822Y2633776D01*
X-2250998Y2624480D01*
X-2261006Y2613863D01*
X-2269540Y2602128D01*
X-2276551Y2589377D01*
X-2281885Y2575814D01*
X-2285542Y2561742D01*
X-2286609Y2553106D01*
X-2287981Y2549194D01*
X-2290775Y2546146D01*
X-2294636Y2544470D01*
X-2298750Y2544470D01*
X-2302611Y2546146D01*
X-2305405Y2549194D01*
X-2306777Y2553106D01*
X-2307844Y2561742D01*
X-2311501Y2575814D01*
X-2316835Y2589377D01*
X-2323846Y2602128D01*
X-2332380Y2613863D01*
X-2342388Y2624480D01*
X-2353564Y2633776D01*
X-2365857Y2641549D01*
X-2379014Y2647746D01*
X-2392883Y2652268D01*
X-2407158Y2655011D01*
X-2421686Y2655925D01*
X-2436215Y2655011D01*
X-2450541Y2652268D01*
X-2464358Y2647746D01*
X-2477516Y2641549D01*
X-2489809Y2633776D01*
X-2501036Y2624480D01*
X-2510993Y2613863D01*
X-2519527Y2602128D01*
X-2526538Y2589377D01*
X-2531922Y2575814D01*
X-2535529Y2561742D01*
X-2537358Y2547264D01*
X-2537358Y2532735D01*
X-2535529Y2518308D01*
X-2531922Y2504186D01*
X-2526538Y2490673D01*
X-2519527Y2477922D01*
X-2510993Y2466136D01*
X-2504338Y2459075D01*
X-2502306Y2455875D01*
X-2501595Y2452116D01*
X-2501544Y2372258D01*
X-2500731Y2363419D01*
X-2500325Y2360980D01*
X-2498191Y2352344D01*
X-2497429Y2350008D01*
X-2494026Y2341778D01*
X-2492908Y2339594D01*
X-2488285Y2331974D01*
X-2481224Y2323134D01*
X-2299665Y2141575D01*
X-2290826Y2134514D01*
X-2283206Y2129891D01*
X-2281021Y2128774D01*
X-2272792Y2125370D01*
X-2270455Y2124608D01*
X-2261819Y2122474D01*
X-2259380Y2122068D01*
X-2250541Y2121255D01*
X-315061Y2121204D01*
X-311150Y2120442D01*
X-307848Y2118207D01*
X-191058Y2001469D01*
X-184200Y1995779D01*
X-182219Y1994357D01*
X-174599Y1989785D01*
X-172364Y1988667D01*
X-164439Y1985365D01*
X-157530Y1983536D01*
X-153619Y1981504D01*
X-150926Y1977999D01*
X-149961Y1973732D01*
X-149961Y1857705D01*
X-149250Y1851355D01*
X-147370Y1845919D01*
X-144272Y1840992D01*
X-140208Y1836928D01*
X-135280Y1833829D01*
X-129844Y1831949D01*
X-123494Y1831187D01*
X-3505Y1831187D01*
X2844Y1831949D01*
X8280Y1833829D01*
X13208Y1836928D01*
X17272Y1840992D01*
X20370Y1845919D01*
X22250Y1851355D01*
X23012Y1857705D01*
X23012Y1970887D01*
X23774Y1974799D01*
X25958Y1978101D01*
X29260Y1980285D01*
X33172Y1981047D01*
X218744Y1981047D01*
X222656Y1980285D01*
X225958Y1978101D01*
X367334Y1836775D01*
X376174Y1829714D01*
X383794Y1825091D01*
X385978Y1823974D01*
X394208Y1820570D01*
X396544Y1819808D01*
X405180Y1817674D01*
X407619Y1817268D01*
X416458Y1816455D01*
X612038Y1816404D01*
X615950Y1815642D01*
X619252Y1813407D01*
X773734Y1658975D01*
X782574Y1651914D01*
X790194Y1647291D01*
X792378Y1646174D01*
X800608Y1642770D01*
X802944Y1642008D01*
X811580Y1639874D01*
X814019Y1639468D01*
X822858Y1638655D01*
G37*
G36*
X2337206Y1716328D02*
G01*
X2457196Y1716328D01*
X2463546Y1717039D01*
X2468981Y1718919D01*
X2473909Y1722018D01*
X2477973Y1726133D01*
X2481072Y1731010D01*
X2482951Y1736496D01*
X2483713Y1742795D01*
X2483713Y1862836D01*
X2482951Y1869135D01*
X2481072Y1874570D01*
X2477973Y1879498D01*
X2473909Y1883562D01*
X2468981Y1886661D01*
X2463546Y1888591D01*
X2457196Y1889302D01*
X2337206Y1889302D01*
X2330856Y1888591D01*
X2325420Y1886661D01*
X2320493Y1883562D01*
X2316429Y1879498D01*
X2313330Y1874570D01*
X2311450Y1869135D01*
X2310739Y1862836D01*
X2310739Y1742795D01*
X2311450Y1736496D01*
X2313330Y1731010D01*
X2316429Y1726133D01*
X2320493Y1722018D01*
X2325420Y1718919D01*
X2330856Y1717039D01*
G37*
G36*
X-2991154Y1808327D02*
G01*
X-2850845Y1808327D01*
X-2844495Y1809089D01*
X-2839059Y1810969D01*
X-2834132Y1814068D01*
X-2830068Y1818132D01*
X-2826969Y1823059D01*
X-2825089Y1828495D01*
X-2824327Y1834845D01*
X-2824327Y1975154D01*
X-2825089Y1981504D01*
X-2826969Y1986940D01*
X-2830068Y1991868D01*
X-2834132Y1995932D01*
X-2839059Y1999030D01*
X-2844495Y2000910D01*
X-2850845Y2001621D01*
X-2991154Y2001621D01*
X-2997504Y2000910D01*
X-3002940Y1999030D01*
X-3007868Y1995932D01*
X-3011932Y1991868D01*
X-3015030Y1986940D01*
X-3016910Y1981504D01*
X-3017621Y1975154D01*
X-3017621Y1834845D01*
X-3016910Y1828495D01*
X-3015030Y1823059D01*
X-3011932Y1818132D01*
X-3007868Y1814068D01*
X-3002940Y1810969D01*
X-2997504Y1809089D01*
G37*
G36*
X-3245154Y1808327D02*
G01*
X-3104845Y1808327D01*
X-3098495Y1809089D01*
X-3093059Y1810969D01*
X-3088132Y1814068D01*
X-3084068Y1818132D01*
X-3080969Y1823059D01*
X-3079089Y1828495D01*
X-3078327Y1834845D01*
X-3078327Y1975154D01*
X-3079089Y1981504D01*
X-3080969Y1986940D01*
X-3084068Y1991868D01*
X-3088132Y1995932D01*
X-3093059Y1999030D01*
X-3098495Y2000910D01*
X-3104845Y2001621D01*
X-3245154Y2001621D01*
X-3251504Y2000910D01*
X-3256940Y1999030D01*
X-3261867Y1995932D01*
X-3265932Y1991868D01*
X-3269030Y1986940D01*
X-3270910Y1981504D01*
X-3271621Y1975154D01*
X-3271621Y1834845D01*
X-3270910Y1828495D01*
X-3269030Y1823059D01*
X-3265932Y1818132D01*
X-3261867Y1814068D01*
X-3256940Y1810969D01*
X-3251504Y1809089D01*
G37*
G36*
X3104845Y1808327D02*
G01*
X3245154Y1808327D01*
X3251504Y1809089D01*
X3256940Y1810969D01*
X3261867Y1814068D01*
X3265932Y1818132D01*
X3269030Y1823059D01*
X3270910Y1828495D01*
X3271672Y1834845D01*
X3271672Y1975154D01*
X3270910Y1981504D01*
X3269030Y1986940D01*
X3265932Y1991868D01*
X3261867Y1995932D01*
X3256940Y1999030D01*
X3251504Y2000910D01*
X3245154Y2001621D01*
X3104845Y2001621D01*
X3098495Y2000910D01*
X3093059Y1999030D01*
X3088132Y1995932D01*
X3084068Y1991868D01*
X3080969Y1986940D01*
X3079089Y1981504D01*
X3078327Y1975154D01*
X3078327Y1834845D01*
X3079089Y1828495D01*
X3080969Y1823059D01*
X3084068Y1818132D01*
X3088132Y1814068D01*
X3093059Y1810969D01*
X3098495Y1809089D01*
G37*
G36*
X2850845Y1808327D02*
G01*
X2991154Y1808327D01*
X2997504Y1809089D01*
X3002940Y1810969D01*
X3007868Y1814068D01*
X3011932Y1818132D01*
X3015030Y1823059D01*
X3016910Y1828495D01*
X3017672Y1834845D01*
X3017672Y1975154D01*
X3016910Y1981504D01*
X3015030Y1986940D01*
X3011932Y1991868D01*
X3007868Y1995932D01*
X3002940Y1999030D01*
X2997504Y2000910D01*
X2991154Y2001621D01*
X2850845Y2001621D01*
X2844495Y2000910D01*
X2839059Y1999030D01*
X2834132Y1995932D01*
X2830068Y1991868D01*
X2826969Y1986940D01*
X2825089Y1981504D01*
X2824327Y1975154D01*
X2824327Y1834845D01*
X2825089Y1828495D01*
X2826969Y1823059D01*
X2830068Y1818132D01*
X2834132Y1814068D01*
X2839059Y1810969D01*
X2844495Y1809089D01*
G37*
G36*
X892505Y1831187D02*
G01*
X1012494Y1831187D01*
X1018844Y1831949D01*
X1024280Y1833829D01*
X1029208Y1836928D01*
X1031087Y1838807D01*
X1034389Y1841042D01*
X1038301Y1841804D01*
X1437741Y1841855D01*
X1446580Y1842668D01*
X1449019Y1843074D01*
X1457655Y1845208D01*
X1459992Y1845970D01*
X1468221Y1849374D01*
X1470406Y1850491D01*
X1478026Y1855114D01*
X1486865Y1862175D01*
X1630324Y2005634D01*
X1637385Y2014474D01*
X1642008Y2022093D01*
X1643125Y2024278D01*
X1646529Y2032507D01*
X1647291Y2034844D01*
X1649425Y2043480D01*
X1649831Y2045919D01*
X1650644Y2054758D01*
X1650695Y2556814D01*
X1651457Y2560624D01*
X1653590Y2563876D01*
X1659229Y2569718D01*
X1667713Y2581097D01*
X1674723Y2593492D01*
X1680057Y2606649D01*
X1683664Y2620416D01*
X1685442Y2634488D01*
X1685442Y2648712D01*
X1683664Y2662783D01*
X1680057Y2676550D01*
X1674723Y2689707D01*
X1667713Y2702102D01*
X1659229Y2713482D01*
X1649374Y2723692D01*
X1638249Y2732532D01*
X1626107Y2739898D01*
X1613103Y2745638D01*
X1599488Y2749702D01*
X1585468Y2751988D01*
X1571244Y2752445D01*
X1557121Y2751074D01*
X1543253Y2747924D01*
X1529892Y2742996D01*
X1517294Y2736443D01*
X1505661Y2728315D01*
X1495145Y2718765D01*
X1485950Y2707944D01*
X1478178Y2696006D01*
X1472031Y2683205D01*
X1467561Y2669743D01*
X1464818Y2655773D01*
X1463903Y2641600D01*
X1464818Y2627426D01*
X1467561Y2613456D01*
X1472031Y2599994D01*
X1478178Y2587193D01*
X1485950Y2575255D01*
X1495552Y2564079D01*
X1498041Y2560675D01*
X1498904Y2556560D01*
X1498904Y2093061D01*
X1498142Y2089150D01*
X1495907Y2085848D01*
X1406652Y1996592D01*
X1403350Y1994357D01*
X1399438Y1993595D01*
X1038301Y1993595D01*
X1034389Y1994357D01*
X1031087Y1996592D01*
X1029208Y1998472D01*
X1024280Y2001570D01*
X1018844Y2003450D01*
X1012494Y2004161D01*
X892505Y2004161D01*
X886155Y2003450D01*
X880719Y2001570D01*
X875792Y1998472D01*
X871728Y1994407D01*
X868629Y1989480D01*
X866749Y1984044D01*
X866038Y1977694D01*
X866038Y1857705D01*
X866749Y1851355D01*
X868629Y1845919D01*
X871728Y1840992D01*
X875792Y1836928D01*
X880719Y1833829D01*
X886155Y1831949D01*
G37*
G36*
X-2991154Y2062327D02*
G01*
X-2850845Y2062327D01*
X-2844495Y2063089D01*
X-2839059Y2064969D01*
X-2834132Y2068068D01*
X-2830068Y2072132D01*
X-2826969Y2077059D01*
X-2825089Y2082495D01*
X-2824327Y2088845D01*
X-2824327Y2229154D01*
X-2825089Y2235504D01*
X-2826969Y2240940D01*
X-2830068Y2245868D01*
X-2834132Y2249932D01*
X-2839059Y2253030D01*
X-2844495Y2254910D01*
X-2850845Y2255621D01*
X-2991154Y2255621D01*
X-2997504Y2254910D01*
X-3002940Y2253030D01*
X-3007868Y2249932D01*
X-3011932Y2245868D01*
X-3015030Y2240940D01*
X-3016910Y2235504D01*
X-3017621Y2229154D01*
X-3017621Y2088845D01*
X-3016910Y2082495D01*
X-3015030Y2077059D01*
X-3011932Y2072132D01*
X-3007868Y2068068D01*
X-3002940Y2064969D01*
X-2997504Y2063089D01*
G37*
G36*
X-3245154Y2062327D02*
G01*
X-3104845Y2062327D01*
X-3098495Y2063089D01*
X-3093059Y2064969D01*
X-3088132Y2068068D01*
X-3084068Y2072132D01*
X-3080969Y2077059D01*
X-3079089Y2082495D01*
X-3078327Y2088845D01*
X-3078327Y2229154D01*
X-3079089Y2235504D01*
X-3080969Y2240940D01*
X-3084068Y2245868D01*
X-3088132Y2249932D01*
X-3093059Y2253030D01*
X-3098495Y2254910D01*
X-3104845Y2255621D01*
X-3245154Y2255621D01*
X-3251504Y2254910D01*
X-3256940Y2253030D01*
X-3261867Y2249932D01*
X-3265932Y2245868D01*
X-3269030Y2240940D01*
X-3270910Y2235504D01*
X-3271621Y2229154D01*
X-3271621Y2088845D01*
X-3270910Y2082495D01*
X-3269030Y2077059D01*
X-3265932Y2072132D01*
X-3261867Y2068068D01*
X-3256940Y2064969D01*
X-3251504Y2063089D01*
G37*
G36*
X2850845Y2062327D02*
G01*
X2991154Y2062327D01*
X2997504Y2063089D01*
X3002940Y2064969D01*
X3007868Y2068068D01*
X3011932Y2072132D01*
X3015030Y2077059D01*
X3016910Y2082495D01*
X3017672Y2088845D01*
X3017672Y2229154D01*
X3016910Y2235504D01*
X3015030Y2240940D01*
X3011932Y2245868D01*
X3007868Y2249932D01*
X3002940Y2253030D01*
X2997504Y2254910D01*
X2991154Y2255621D01*
X2850845Y2255621D01*
X2844495Y2254910D01*
X2839059Y2253030D01*
X2834132Y2249932D01*
X2830068Y2245868D01*
X2826969Y2240940D01*
X2825089Y2235504D01*
X2824327Y2229154D01*
X2824327Y2088845D01*
X2825089Y2082495D01*
X2826969Y2077059D01*
X2830068Y2072132D01*
X2834132Y2068068D01*
X2839059Y2064969D01*
X2844495Y2063089D01*
G37*
G36*
X3104845Y2062327D02*
G01*
X3245154Y2062327D01*
X3251504Y2063089D01*
X3256940Y2064969D01*
X3261867Y2068068D01*
X3265932Y2072132D01*
X3269030Y2077059D01*
X3270910Y2082495D01*
X3271672Y2088845D01*
X3271672Y2229154D01*
X3270910Y2235504D01*
X3269030Y2240940D01*
X3265932Y2245868D01*
X3261867Y2249932D01*
X3256940Y2253030D01*
X3251504Y2254910D01*
X3245154Y2255621D01*
X3104845Y2255621D01*
X3098495Y2254910D01*
X3093059Y2253030D01*
X3088132Y2249932D01*
X3084068Y2245868D01*
X3080969Y2240940D01*
X3079089Y2235504D01*
X3078327Y2229154D01*
X3078327Y2088845D01*
X3079089Y2082495D01*
X3080969Y2077059D01*
X3084068Y2072132D01*
X3088132Y2068068D01*
X3093059Y2064969D01*
X3098495Y2063089D01*
G37*
G36*
X892505Y2110587D02*
G01*
X1012494Y2110587D01*
X1018844Y2111349D01*
X1024280Y2113229D01*
X1029208Y2116328D01*
X1031087Y2118207D01*
X1034389Y2120442D01*
X1038301Y2121204D01*
X1183741Y2121255D01*
X1192580Y2122068D01*
X1195019Y2122474D01*
X1203655Y2124608D01*
X1205992Y2125370D01*
X1214221Y2128774D01*
X1216406Y2129891D01*
X1224026Y2134514D01*
X1232865Y2141575D01*
X1376324Y2285034D01*
X1383385Y2293874D01*
X1388008Y2301494D01*
X1389126Y2303678D01*
X1392529Y2311908D01*
X1393291Y2314244D01*
X1395425Y2322880D01*
X1395831Y2325319D01*
X1396644Y2334158D01*
X1396695Y2556814D01*
X1397457Y2560624D01*
X1399590Y2563876D01*
X1405229Y2569718D01*
X1413713Y2581097D01*
X1420723Y2593492D01*
X1426057Y2606649D01*
X1429664Y2620416D01*
X1431442Y2634488D01*
X1431442Y2648712D01*
X1429664Y2662783D01*
X1426057Y2676550D01*
X1420723Y2689707D01*
X1413713Y2702102D01*
X1405229Y2713482D01*
X1395374Y2723692D01*
X1384249Y2732532D01*
X1372108Y2739898D01*
X1359103Y2745638D01*
X1345488Y2749702D01*
X1331468Y2751988D01*
X1317244Y2752445D01*
X1303121Y2751074D01*
X1289253Y2747924D01*
X1275892Y2742996D01*
X1263294Y2736443D01*
X1251661Y2728315D01*
X1241145Y2718765D01*
X1231950Y2707944D01*
X1224178Y2696006D01*
X1218031Y2683205D01*
X1213561Y2669743D01*
X1210818Y2655773D01*
X1209903Y2641600D01*
X1210818Y2627426D01*
X1213561Y2613456D01*
X1218031Y2599994D01*
X1224178Y2587193D01*
X1231950Y2575255D01*
X1241552Y2564079D01*
X1244041Y2560675D01*
X1244904Y2556560D01*
X1244904Y2372461D01*
X1244142Y2368550D01*
X1241907Y2365248D01*
X1152652Y2275992D01*
X1149350Y2273757D01*
X1145438Y2272995D01*
X1038301Y2272995D01*
X1034389Y2273757D01*
X1031087Y2275992D01*
X1029208Y2277872D01*
X1024280Y2280970D01*
X1018844Y2282850D01*
X1012494Y2283561D01*
X892505Y2283561D01*
X886155Y2282850D01*
X880719Y2280970D01*
X875792Y2277872D01*
X871728Y2273808D01*
X868629Y2268880D01*
X866749Y2263444D01*
X866038Y2257094D01*
X866038Y2137105D01*
X866749Y2130755D01*
X868629Y2125319D01*
X871728Y2120392D01*
X875792Y2116328D01*
X880719Y2113229D01*
X886155Y2111349D01*
G37*
G36*
X-3245154Y2316327D02*
G01*
X-3104845Y2316327D01*
X-3098495Y2317089D01*
X-3093059Y2318969D01*
X-3088132Y2322068D01*
X-3084068Y2326132D01*
X-3080969Y2331059D01*
X-3079089Y2336495D01*
X-3078327Y2342845D01*
X-3078327Y2483154D01*
X-3079089Y2489504D01*
X-3080969Y2494940D01*
X-3084068Y2499868D01*
X-3088132Y2503932D01*
X-3093059Y2507030D01*
X-3098495Y2508910D01*
X-3104845Y2509621D01*
X-3245154Y2509621D01*
X-3251504Y2508910D01*
X-3256940Y2507030D01*
X-3261867Y2503932D01*
X-3265932Y2499868D01*
X-3269030Y2494940D01*
X-3270910Y2489504D01*
X-3271621Y2483154D01*
X-3271621Y2342845D01*
X-3270910Y2336495D01*
X-3269030Y2331059D01*
X-3265932Y2326132D01*
X-3261867Y2322068D01*
X-3256940Y2318969D01*
X-3251504Y2317089D01*
G37*
G36*
X-2991154Y2316327D02*
G01*
X-2850845Y2316327D01*
X-2844495Y2317089D01*
X-2839059Y2318969D01*
X-2834132Y2322068D01*
X-2830068Y2326132D01*
X-2826969Y2331059D01*
X-2825089Y2336495D01*
X-2824327Y2342845D01*
X-2824327Y2483154D01*
X-2825089Y2489504D01*
X-2826969Y2494940D01*
X-2830068Y2499868D01*
X-2834132Y2503932D01*
X-2839059Y2507030D01*
X-2844495Y2508910D01*
X-2850845Y2509621D01*
X-2991154Y2509621D01*
X-2997504Y2508910D01*
X-3002940Y2507030D01*
X-3007868Y2503932D01*
X-3011932Y2499868D01*
X-3015030Y2494940D01*
X-3016910Y2489504D01*
X-3017621Y2483154D01*
X-3017621Y2342845D01*
X-3016910Y2336495D01*
X-3015030Y2331059D01*
X-3011932Y2326132D01*
X-3007868Y2322068D01*
X-3002940Y2318969D01*
X-2997504Y2317089D01*
G37*
G36*
X3104845Y2316327D02*
G01*
X3245154Y2316327D01*
X3251504Y2317089D01*
X3256940Y2318969D01*
X3261867Y2322068D01*
X3265932Y2326132D01*
X3269030Y2331059D01*
X3270910Y2336495D01*
X3271672Y2342845D01*
X3271672Y2483154D01*
X3270910Y2489504D01*
X3269030Y2494940D01*
X3265932Y2499868D01*
X3261867Y2503932D01*
X3256940Y2507030D01*
X3251504Y2508910D01*
X3245154Y2509621D01*
X3104845Y2509621D01*
X3098495Y2508910D01*
X3093059Y2507030D01*
X3088132Y2503932D01*
X3084068Y2499868D01*
X3080969Y2494940D01*
X3079089Y2489504D01*
X3078327Y2483154D01*
X3078327Y2342845D01*
X3079089Y2336495D01*
X3080969Y2331059D01*
X3084068Y2326132D01*
X3088132Y2322068D01*
X3093059Y2318969D01*
X3098495Y2317089D01*
G37*
G36*
X2850845Y2316327D02*
G01*
X2991154Y2316327D01*
X2997504Y2317089D01*
X3002940Y2318969D01*
X3007868Y2322068D01*
X3011932Y2326132D01*
X3015030Y2331059D01*
X3016910Y2336495D01*
X3017672Y2342845D01*
X3017672Y2483154D01*
X3016910Y2489504D01*
X3015030Y2494940D01*
X3011932Y2499868D01*
X3007868Y2503932D01*
X3002940Y2507030D01*
X2997504Y2508910D01*
X2991154Y2509621D01*
X2850845Y2509621D01*
X2844495Y2508910D01*
X2839059Y2507030D01*
X2834132Y2503932D01*
X2830068Y2499868D01*
X2826969Y2494940D01*
X2825089Y2489504D01*
X2824327Y2483154D01*
X2824327Y2342845D01*
X2825089Y2336495D01*
X2826969Y2331059D01*
X2830068Y2326132D01*
X2834132Y2322068D01*
X2839059Y2318969D01*
X2844495Y2317089D01*
G37*
G36*
X767892Y2366314D02*
G01*
X792124Y2366314D01*
X816254Y2368296D01*
X840181Y2372156D01*
X863701Y2377998D01*
X886714Y2385669D01*
X909015Y2395169D01*
X930452Y2406396D01*
X950925Y2419350D01*
X970280Y2433929D01*
X988415Y2449982D01*
X1005230Y2467457D01*
X1020571Y2486253D01*
X1034338Y2506167D01*
X1046429Y2527147D01*
X1056843Y2549042D01*
X1065428Y2571699D01*
X1072134Y2594965D01*
X1077010Y2618740D01*
X1079906Y2642768D01*
X1080922Y2667000D01*
X1079906Y2691231D01*
X1077010Y2715260D01*
X1072134Y2738983D01*
X1065428Y2762300D01*
X1056843Y2784957D01*
X1046429Y2806852D01*
X1034338Y2827832D01*
X1020571Y2847746D01*
X1005230Y2866542D01*
X988415Y2884017D01*
X970280Y2900070D01*
X950925Y2914650D01*
X930452Y2927604D01*
X909015Y2938830D01*
X886714Y2948330D01*
X863701Y2956001D01*
X840181Y2961792D01*
X816254Y2965704D01*
X792124Y2967634D01*
X767892Y2967634D01*
X743712Y2965704D01*
X719836Y2961792D01*
X696264Y2956001D01*
X673303Y2948330D01*
X651002Y2938830D01*
X629564Y2927604D01*
X609092Y2914650D01*
X589686Y2900070D01*
X571550Y2884017D01*
X554786Y2866542D01*
X539445Y2847746D01*
X525678Y2827832D01*
X513588Y2806852D01*
X503174Y2784957D01*
X494588Y2762300D01*
X487832Y2738983D01*
X483006Y2715260D01*
X480059Y2691231D01*
X479094Y2667000D01*
X480059Y2642768D01*
X483006Y2618740D01*
X487832Y2594965D01*
X494588Y2571699D01*
X503174Y2549042D01*
X513588Y2527147D01*
X525678Y2506167D01*
X539445Y2486253D01*
X554786Y2467457D01*
X571550Y2449982D01*
X589686Y2433929D01*
X609092Y2419350D01*
X629564Y2406396D01*
X651002Y2395169D01*
X673303Y2385669D01*
X696264Y2377998D01*
X719836Y2372156D01*
X743712Y2368296D01*
G37*
G36*
X-833119Y2366365D02*
G01*
X-808888Y2366365D01*
X-784707Y2368296D01*
X-760831Y2372156D01*
X-737260Y2377998D01*
X-714298Y2385669D01*
X-691997Y2395169D01*
X-670560Y2406396D01*
X-650087Y2419350D01*
X-630682Y2433929D01*
X-612546Y2449982D01*
X-595782Y2467457D01*
X-580440Y2486253D01*
X-566674Y2506167D01*
X-554583Y2527147D01*
X-544169Y2549042D01*
X-535584Y2571699D01*
X-528828Y2594965D01*
X-524001Y2618740D01*
X-521055Y2642768D01*
X-520090Y2667000D01*
X-521055Y2691231D01*
X-524001Y2715260D01*
X-528828Y2739034D01*
X-535584Y2762300D01*
X-544169Y2784957D01*
X-554583Y2806852D01*
X-566674Y2827832D01*
X-580440Y2847746D01*
X-595782Y2866542D01*
X-612546Y2884017D01*
X-630682Y2900070D01*
X-650087Y2914650D01*
X-670560Y2927604D01*
X-691997Y2938830D01*
X-714298Y2948330D01*
X-737260Y2956001D01*
X-760831Y2961843D01*
X-784707Y2965704D01*
X-808888Y2967634D01*
X-833119Y2967634D01*
X-857250Y2965704D01*
X-881176Y2961843D01*
X-904697Y2956001D01*
X-927709Y2948330D01*
X-950010Y2938830D01*
X-971448Y2927604D01*
X-991920Y2914650D01*
X-1011326Y2900070D01*
X-1029462Y2884017D01*
X-1046226Y2866542D01*
X-1061567Y2847746D01*
X-1075334Y2827832D01*
X-1087424Y2806852D01*
X-1097838Y2784957D01*
X-1106424Y2762300D01*
X-1113180Y2739034D01*
X-1118006Y2715260D01*
X-1120902Y2691231D01*
X-1121918Y2667000D01*
X-1120902Y2642768D01*
X-1118006Y2618740D01*
X-1113180Y2594965D01*
X-1106424Y2571699D01*
X-1097838Y2549042D01*
X-1087424Y2527147D01*
X-1075334Y2506167D01*
X-1061567Y2486253D01*
X-1046226Y2467457D01*
X-1029462Y2449982D01*
X-1011326Y2433929D01*
X-991920Y2419350D01*
X-971448Y2406396D01*
X-950010Y2395169D01*
X-927709Y2385669D01*
X-904697Y2377998D01*
X-881176Y2372156D01*
X-857250Y2368296D01*
G37*
G36*
X1825243Y2530754D02*
G01*
X1839468Y2531211D01*
X1853488Y2533497D01*
X1867103Y2537510D01*
X1880107Y2543302D01*
X1892249Y2550668D01*
X1903374Y2559507D01*
X1913229Y2569718D01*
X1921713Y2581097D01*
X1928723Y2593492D01*
X1934057Y2606649D01*
X1937664Y2620416D01*
X1939442Y2634488D01*
X1939442Y2648712D01*
X1937664Y2662783D01*
X1934057Y2676550D01*
X1928723Y2689707D01*
X1921713Y2702102D01*
X1913229Y2713482D01*
X1903374Y2723692D01*
X1892249Y2732532D01*
X1880107Y2739898D01*
X1867103Y2745638D01*
X1853488Y2749702D01*
X1839468Y2751988D01*
X1825243Y2752445D01*
X1811121Y2751074D01*
X1797253Y2747924D01*
X1783892Y2742996D01*
X1771294Y2736443D01*
X1759661Y2728315D01*
X1749145Y2718765D01*
X1739950Y2707944D01*
X1732178Y2696006D01*
X1726031Y2683205D01*
X1721561Y2669743D01*
X1718818Y2655773D01*
X1717903Y2641600D01*
X1718818Y2627426D01*
X1721561Y2613456D01*
X1726031Y2599994D01*
X1732178Y2587193D01*
X1739950Y2575255D01*
X1749145Y2564434D01*
X1759661Y2554884D01*
X1771294Y2546756D01*
X1783892Y2540203D01*
X1797253Y2535275D01*
X1811121Y2532126D01*
G37*

%LPD*%
D10*
X596900Y-2050034D02*
G01*
X596900Y-2159000D01*
X469900Y-2286000D01*
X-2501900Y-2286000D01*
X-2616200Y-2171700D01*
X-2616200Y-1028700D01*
X-2755900Y-889000D01*
X-2921000Y-889000D01*
X2400300Y952500D02*
G01*
X2400300Y774700D01*
X2235200Y609600D01*
X2235200Y342900D01*
X2082800Y190500D01*
X1739900Y190500D01*
X1536700Y-12700D01*
X1536700Y-444500D01*
X1295400Y-685800D01*
X1295400Y-2311400D01*
X1003300Y-2603500D01*
X-3289300Y-2603500D01*
X-3365500Y-2527300D01*
X-3365500Y-2095500D01*
X-3175000Y-1905000D01*
X952500Y2197100D02*
G01*
X1181100Y2197100D01*
X1320800Y2336800D01*
X1320800Y2641600D01*
X952500Y1917700D02*
G01*
X1435100Y1917700D01*
X1574800Y2057400D01*
X1574800Y2641600D01*
X-63500Y2197100D02*
G01*
X-63500Y1917700D01*
X-2421686Y2540000D02*
G01*
X-2425700Y2535986D01*
X-2425700Y2374900D01*
X-2247900Y2197100D01*
X-279400Y2197100D01*
X-139280Y2056980D01*
X-63500Y2056980D01*
X2082800Y2641600D02*
G01*
X2082800Y2133600D01*
X1663700Y1714500D01*
X825500Y1714500D01*
X647700Y1892300D01*
X419100Y1892300D01*
X254419Y2056980D01*
X-63500Y2056980D01*
X-1699996Y-31013D02*
G01*
X-1699996Y-154058D01*
X-1898439Y-352501D01*
X-2479598Y-352501D01*
X-2196998Y-635101D01*
X-2196998Y-2050008D01*
X-1638300Y-952500D02*
G01*
X-1898439Y-692360D01*
X-1898439Y-352501D01*
X-2921000Y381000D02*
G01*
X-2819400Y381000D01*
X-2705100Y266700D01*
X-2705100Y-127000D01*
X-2479547Y-352552D01*
D11*
G01*
X-393700Y264693D03*
G01*
X-393700Y14706D03*
D12*
G01*
X952500Y2197100D03*
G01*
X-63500Y2197100D03*
G01*
X952500Y1917700D03*
G01*
X-63500Y1917700D03*
D13*
G01*
X2082800Y2641600D03*
D14*
G01*
X1828800Y2641600D03*
G01*
X1574800Y2641600D03*
G01*
X1320800Y2641600D03*
D15*
G01*
X-2421686Y2540000D03*
G01*
X-2171674Y2540000D03*
G01*
X-1921687Y2540000D03*
D12*
G01*
X-7873Y-649986D03*
G01*
X1008126Y-649986D03*
G01*
X139700Y863600D03*
G01*
X139700Y-152400D03*
D16*
G01*
X800023Y-199999D03*
G01*
X1300022Y-199999D03*
D11*
G01*
X1875002Y-250012D03*
G01*
X2124989Y-250012D03*
G01*
X1296898Y632993D03*
D17*
G01*
X1296898Y382981D03*
D11*
G01*
X1296898Y1509293D03*
D17*
G01*
X1296898Y1259281D03*
D11*
G01*
X2124989Y-1199997D03*
D18*
G01*
X1875002Y-1199997D03*
D19*
G01*
X1996897Y584987D03*
G01*
X1996897Y457987D03*
D20*
G01*
X1996897Y331012D03*
D19*
G01*
X2016201Y1421790D03*
G01*
X2016201Y1294790D03*
D20*
G01*
X2016201Y1167815D03*
D12*
G01*
X2550007Y-607999D03*
G01*
X2550007Y408000D03*
G01*
X2397201Y786790D03*
G01*
X2397201Y1802790D03*
G01*
X-1638300Y-952500D03*
G01*
X-622300Y-952500D03*
G01*
X-622300Y-655599D03*
G01*
X-1638300Y-655599D03*
G01*
X-622300Y-355600D03*
G01*
X-1638300Y-355600D03*
G01*
X-8001Y-950010D03*
G01*
X1007998Y-950010D03*
D21*
G01*
X1649984Y-2350007D03*
G01*
X2149983Y-2350007D03*
D22*
G01*
X597001Y-2050008D03*
G01*
X89001Y-2050008D03*
G01*
X-2196998Y-2050008D03*
D23*
G01*
X-3175000Y2413000D03*
G01*
X-3175000Y2159000D03*
G01*
X-3175000Y1905000D03*
G01*
X-3175000Y1651000D03*
G01*
X-3175000Y1397000D03*
G01*
X-3175000Y1143000D03*
G01*
X-2921000Y2413000D03*
G01*
X-2921000Y2159000D03*
G01*
X-2921000Y1905000D03*
G01*
X-2921000Y1651000D03*
G01*
X-2921000Y1397000D03*
G01*
X-2921000Y1143000D03*
G01*
X-3175000Y889000D03*
G01*
X-2921000Y889000D03*
G01*
X-3175000Y635000D03*
G01*
X-3175000Y381000D03*
G01*
X-3175000Y127000D03*
G01*
X-3175000Y-127000D03*
G01*
X-3175000Y-381000D03*
G01*
X-3175000Y-635000D03*
G01*
X-2921000Y635000D03*
G01*
X-2921000Y381000D03*
G01*
X-2921000Y127000D03*
G01*
X-2921000Y-127000D03*
G01*
X-2921000Y-381000D03*
G01*
X-2921000Y-635000D03*
G01*
X-3175000Y-889000D03*
G01*
X-2921000Y-889000D03*
G01*
X-3175000Y-1143000D03*
G01*
X-3175000Y-1397000D03*
G01*
X-3175000Y-1651000D03*
G01*
X-3175000Y-1905000D03*
G01*
X-3175000Y-2159000D03*
G01*
X-3175000Y-2413000D03*
G01*
X-2921000Y-1143000D03*
G01*
X-2921000Y-1397000D03*
G01*
X-2921000Y-1651000D03*
G01*
X-2921000Y-1905000D03*
G01*
X-2921000Y-2159000D03*
G01*
X-2921000Y-2413000D03*
G01*
X2921000Y2413000D03*
G01*
X2921000Y2159000D03*
G01*
X2921000Y1905000D03*
G01*
X2921000Y1651000D03*
G01*
X2921000Y1397000D03*
G01*
X2921000Y1143000D03*
G01*
X3175000Y2413000D03*
G01*
X3175000Y2159000D03*
G01*
X3175000Y1905000D03*
G01*
X3175000Y1651000D03*
G01*
X3175000Y1397000D03*
G01*
X3175000Y1143000D03*
G01*
X2921000Y889000D03*
G01*
X3175000Y889000D03*
G01*
X2921000Y635000D03*
G01*
X2921000Y381000D03*
G01*
X2921000Y127000D03*
G01*
X2921000Y-127000D03*
G01*
X2921000Y-381000D03*
G01*
X2921000Y-635000D03*
G01*
X3175000Y635000D03*
G01*
X3175000Y381000D03*
G01*
X3175000Y127000D03*
G01*
X3175000Y-127000D03*
G01*
X3175000Y-381000D03*
G01*
X3175000Y-635000D03*
G01*
X2921000Y-889000D03*
G01*
X3175000Y-889000D03*
G01*
X2921000Y-1143000D03*
G01*
X2921000Y-1397000D03*
G01*
X2921000Y-1651000D03*
G01*
X2921000Y-1905000D03*
G01*
X2921000Y-2159000D03*
G01*
X2921000Y-2413000D03*
G01*
X3175000Y-1143000D03*
G01*
X3175000Y-1397000D03*
G01*
X3175000Y-1651000D03*
G01*
X3175000Y-1905000D03*
G01*
X3175000Y-2159000D03*
G01*
X3175000Y-2413000D03*
D24*
G01*
X-2461996Y-31013D03*
D25*
G01*
X-2207996Y-31013D03*
G01*
X-1953996Y-31013D03*
G01*
X-1699996Y-31013D03*
G01*
X-1445996Y-31013D03*
G01*
X-1191996Y-31013D03*
G01*
X-937996Y-31013D03*
G01*
X-937996Y730986D03*
G01*
X-1191996Y730986D03*
G01*
X-1445996Y730986D03*
G01*
X-1699996Y730986D03*
G01*
X-1953996Y730986D03*
G01*
X-2207996Y730986D03*
G01*
X-2461996Y730986D03*
D13*
G01*
X1872995Y-1699996D03*
D14*
G01*
X2126995Y-1699996D03*
D13*
G01*
X596900Y1257300D03*
D14*
G01*
X596900Y1511274D03*
D13*
G01*
X596900Y381000D03*
D14*
G01*
X596900Y634974D03*
M02*
