G04 Layer: BottomSolderMaskLayer*
G04 EasyEDA v6.5.42, 2024-06-07 11:44:59*
G04 8452c85e2a7e40808aef99803c7b0139,2402692d15bd446891542ced5281a4ad,10*
G04 Gerber Generator version 0.2*
G04 Scale: 100 percent, Rotated: No, Reflected: No *
G04 Dimensions in millimeters *
G04 leading zeros omitted , absolute positions ,4 integer and 5 decimal *
%FSLAX45Y45*%
%MOMM*%

%AMMACRO1*1,1,$1,$2,$3*1,1,$1,$4,$5*1,1,$1,0-$2,0-$3*1,1,$1,0-$4,0-$5*20,1,$1,$2,$3,$4,$5,0*20,1,$1,$4,$5,0-$2,0-$3,0*20,1,$1,0-$2,0-$3,0-$4,0-$5,0*20,1,$1,0-$4,0-$5,$2,$3,0*4,1,4,$2,$3,$4,$5,0-$2,0-$3,0-$4,0-$5,$2,$3,0*%
%ADD10C,1.6000*%
%ADD11MACRO1,0.1016X0.6058X-0.6058X-0.6058X-0.6058*%
%ADD12MACRO1,0.1016X0.85X-0.85X-0.85X-0.85*%
%ADD13C,1.8016*%
%ADD14C,1.9017*%
%ADD15MACRO1,0.1016X-0.6058X0.6058X0.6058X0.6058*%
%ADD16MACRO1,0.1016X0.6058X0.6058X0.6058X-0.6058*%
%ADD17C,1.6240*%
%ADD18C,1.6000*%
%ADD19R,1.6000X1.6240*%
%ADD20MACRO1,0.1X-0.762X0.75X0.762X0.75*%
%ADD21O,1.7015968X1.0015981999999999*%
%ADD22R,1.7016X1.0016*%
%ADD23R,1.3132X1.3132*%
%ADD24C,2.1016*%
%ADD25C,2.6016*%
%ADD26MACRO1,0.1016X0.7074X0.7074X0.7074X-0.7074*%
%ADD27MACRO1,0.1016X-0.6985X0.6985X0.6985X0.6985*%
%ADD28C,1.4986*%
%ADD29MACRO1,0.1016X-0.85X0.85X0.85X0.85*%
%ADD30R,1.8016X1.8016*%

%LPD*%
D10*
G01*
X-393700Y264693D03*
G01*
X-393700Y14706D03*
D11*
G01*
X952500Y2197100D03*
G01*
X-63500Y2197100D03*
G01*
X952500Y1917700D03*
G01*
X-63500Y1917700D03*
D12*
G01*
X2082800Y2641600D03*
D13*
G01*
X1828800Y2641600D03*
G01*
X1574800Y2641600D03*
G01*
X1320800Y2641600D03*
D14*
G01*
X-2421686Y2540000D03*
G01*
X-2171674Y2540000D03*
G01*
X-1921687Y2540000D03*
D15*
G01*
X-7874Y-649985D03*
G01*
X1008125Y-649985D03*
D16*
G01*
X139700Y863600D03*
G01*
X139700Y-152400D03*
D17*
G01*
X800023Y-199999D03*
G01*
X1300022Y-199999D03*
D10*
G01*
X1875002Y-250012D03*
G01*
X2124989Y-250012D03*
D18*
G01*
X1296898Y632993D03*
D19*
G01*
X1296898Y382981D03*
D18*
G01*
X1296898Y1509293D03*
D19*
G01*
X1296898Y1259281D03*
D18*
G01*
X2124989Y-1199997D03*
D20*
G01*
X1874989Y-1199998D03*
D21*
G01*
X1996897Y584987D03*
G01*
X1996897Y457987D03*
D22*
G01*
X1996897Y331012D03*
D21*
G01*
X2016201Y1421790D03*
G01*
X2016201Y1294790D03*
D22*
G01*
X2016201Y1167815D03*
D23*
G01*
X2550007Y-607999D03*
G01*
X2550007Y408000D03*
G01*
X2397201Y786790D03*
G01*
X2397201Y1802790D03*
D15*
G01*
X-1638300Y-952500D03*
G01*
X-622300Y-952500D03*
D11*
G01*
X-622300Y-655599D03*
G01*
X-1638300Y-655599D03*
G01*
X-622300Y-355600D03*
G01*
X-1638300Y-355600D03*
D15*
G01*
X-8000Y-949998D03*
G01*
X1007999Y-949998D03*
D24*
G01*
X1649984Y-2350007D03*
G01*
X2149983Y-2350007D03*
D25*
G01*
X597001Y-2050008D03*
G01*
X89001Y-2050008D03*
G01*
X-2196998Y-2050008D03*
D26*
G01*
X-3175000Y2413000D03*
G01*
X-3175000Y2159000D03*
G01*
X-3175000Y1905000D03*
G01*
X-3175000Y1651000D03*
G01*
X-3175000Y1397000D03*
G01*
X-3175000Y1143000D03*
G01*
X-2921000Y2413000D03*
G01*
X-2921000Y2159000D03*
G01*
X-2921000Y1905000D03*
G01*
X-2921000Y1651000D03*
G01*
X-2921000Y1397000D03*
G01*
X-2921000Y1143000D03*
G01*
X-3175000Y889000D03*
G01*
X-2921000Y889000D03*
G01*
X-3175000Y635000D03*
G01*
X-3175000Y381000D03*
G01*
X-3175000Y127000D03*
G01*
X-3175000Y-127000D03*
G01*
X-3175000Y-381000D03*
G01*
X-3175000Y-635000D03*
G01*
X-2921000Y635000D03*
G01*
X-2921000Y381000D03*
G01*
X-2921000Y127000D03*
G01*
X-2921000Y-127000D03*
G01*
X-2921000Y-381000D03*
G01*
X-2921000Y-635000D03*
G01*
X-3175000Y-889000D03*
G01*
X-2921000Y-889000D03*
G01*
X-3175000Y-1143000D03*
G01*
X-3175000Y-1397000D03*
G01*
X-3175000Y-1651000D03*
G01*
X-3175000Y-1905000D03*
G01*
X-3175000Y-2159000D03*
G01*
X-3175000Y-2413000D03*
G01*
X-2921000Y-1143000D03*
G01*
X-2921000Y-1397000D03*
G01*
X-2921000Y-1651000D03*
G01*
X-2921000Y-1905000D03*
G01*
X-2921000Y-2159000D03*
G01*
X-2921000Y-2413000D03*
G01*
X2921000Y2413000D03*
G01*
X2921000Y2159000D03*
G01*
X2921000Y1905000D03*
G01*
X2921000Y1651000D03*
G01*
X2921000Y1397000D03*
G01*
X2921000Y1143000D03*
G01*
X3175000Y2413000D03*
G01*
X3175000Y2159000D03*
G01*
X3175000Y1905000D03*
G01*
X3175000Y1651000D03*
G01*
X3175000Y1397000D03*
G01*
X3175000Y1143000D03*
G01*
X2921000Y889000D03*
G01*
X3175000Y889000D03*
G01*
X2921000Y635000D03*
G01*
X2921000Y381000D03*
G01*
X2921000Y127000D03*
G01*
X2921000Y-127000D03*
G01*
X2921000Y-381000D03*
G01*
X2921000Y-635000D03*
G01*
X3175000Y635000D03*
G01*
X3175000Y381000D03*
G01*
X3175000Y127000D03*
G01*
X3175000Y-127000D03*
G01*
X3175000Y-381000D03*
G01*
X3175000Y-635000D03*
G01*
X2921000Y-889000D03*
G01*
X3175000Y-889000D03*
G01*
X2921000Y-1143000D03*
G01*
X2921000Y-1397000D03*
G01*
X2921000Y-1651000D03*
G01*
X2921000Y-1905000D03*
G01*
X2921000Y-2159000D03*
G01*
X2921000Y-2413000D03*
G01*
X3175000Y-1143000D03*
G01*
X3175000Y-1397000D03*
G01*
X3175000Y-1651000D03*
G01*
X3175000Y-1905000D03*
G01*
X3175000Y-2159000D03*
G01*
X3175000Y-2413000D03*
D27*
G01*
X-2461996Y-31000D03*
D28*
G01*
X-2207996Y-31013D03*
G01*
X-1953996Y-31013D03*
G01*
X-1699996Y-31013D03*
G01*
X-1445996Y-31013D03*
G01*
X-1191996Y-31013D03*
G01*
X-937996Y-31013D03*
G01*
X-937996Y730986D03*
G01*
X-1191996Y730986D03*
G01*
X-1445996Y730986D03*
G01*
X-1699996Y730986D03*
G01*
X-1953996Y730986D03*
G01*
X-2207996Y730986D03*
G01*
X-2461996Y730986D03*
D29*
G01*
X1872997Y-1699997D03*
D13*
G01*
X2126995Y-1699996D03*
D30*
G01*
X596900Y1257300D03*
D13*
G01*
X596900Y1511274D03*
D30*
G01*
X596900Y381000D03*
D13*
G01*
X596900Y634974D03*
M02*
