G04 Layer: BottomSilkscreenLayer*
G04 EasyEDA v6.5.42, 2024-06-07 11:44:59*
G04 8452c85e2a7e40808aef99803c7b0139,2402692d15bd446891542ced5281a4ad,10*
G04 Gerber Generator version 0.2*
G04 Scale: 100 percent, Rotated: No, Reflected: No *
G04 Dimensions in millimeters *
G04 leading zeros omitted , absolute positions ,4 integer and 5 decimal *
%FSLAX45Y45*%
%MOMM*%

%ADD10C,0.0001*%

%LPD*%
G36*
X-627989Y2010511D02*
G01*
X-664464Y2009902D01*
X-695502Y2008733D01*
X-704189Y2007971D01*
X-709066Y2007768D01*
X-739546Y2004669D01*
X-756158Y2002129D01*
X-776884Y1998573D01*
X-783031Y1997049D01*
X-792022Y1995170D01*
X-810463Y1989886D01*
X-830884Y1983028D01*
X-832612Y1982063D01*
X-834542Y1981555D01*
X-843178Y1977898D01*
X-859942Y1969516D01*
X-871728Y1962454D01*
X-883412Y1954275D01*
X-888644Y1950110D01*
X-894842Y1944674D01*
X-903020Y1936800D01*
X-908050Y1931466D01*
X-915568Y1922780D01*
X-922274Y1914042D01*
X-927455Y1906778D01*
X-941171Y1884984D01*
X-949909Y1870151D01*
X-952906Y1864664D01*
X-960069Y1853285D01*
X-963117Y1848815D01*
X-963625Y1847443D01*
X-966622Y1842871D01*
X-974344Y1832102D01*
X-982421Y1821992D01*
X-1006754Y1795729D01*
X-1013155Y1787702D01*
X-1021232Y1776780D01*
X-1024686Y1771700D01*
X-1033170Y1757476D01*
X-1039469Y1744218D01*
X-1042314Y1736445D01*
X-1044651Y1728825D01*
X-1045718Y1724406D01*
X-1048207Y1710689D01*
X-1048244Y1707134D01*
X-1008278Y1707134D01*
X-1007719Y1723389D01*
X-1006348Y1731010D01*
X-1005128Y1736039D01*
X-1002334Y1743252D01*
X-995984Y1754987D01*
X-994714Y1756308D01*
X-989482Y1763369D01*
X-983437Y1769719D01*
X-976274Y1776374D01*
X-963371Y1786483D01*
X-954379Y1792325D01*
X-938326Y1800758D01*
X-925423Y1806600D01*
X-920800Y1808225D01*
X-920140Y1808784D01*
X-918413Y1809140D01*
X-915771Y1810257D01*
X-913130Y1811070D01*
X-912266Y1811680D01*
X-910488Y1812036D01*
X-903579Y1814322D01*
X-901852Y1815084D01*
X-899007Y1815846D01*
X-898550Y1816252D01*
X-896518Y1816607D01*
X-889304Y1818843D01*
X-878484Y1821637D01*
X-865327Y1824634D01*
X-848664Y1827784D01*
X-832612Y1829866D01*
X-815035Y1831441D01*
X-787806Y1831644D01*
X-775665Y1831543D01*
X-752094Y1829257D01*
X-737311Y1827123D01*
X-724103Y1824583D01*
X-706831Y1819605D01*
X-700074Y1817065D01*
X-697433Y1816303D01*
X-676859Y1806193D01*
X-668121Y1800453D01*
X-660095Y1794205D01*
X-655828Y1790141D01*
X-651662Y1785518D01*
X-647700Y1780539D01*
X-644093Y1775409D01*
X-641096Y1770430D01*
X-638759Y1765706D01*
X-637184Y1761032D01*
X-636219Y1759457D01*
X-635863Y1757832D01*
X-634187Y1753006D01*
X-631799Y1743303D01*
X-629818Y1731721D01*
X-628650Y1720545D01*
X-628446Y1715770D01*
X-629056Y1707845D01*
X-630478Y1697939D01*
X-632155Y1689201D01*
X-634034Y1683918D01*
X-634542Y1681937D01*
X-636371Y1677263D01*
X-640384Y1669135D01*
X-646277Y1659585D01*
X-650697Y1653844D01*
X-655929Y1647799D01*
X-660908Y1642668D01*
X-668680Y1635810D01*
X-676198Y1630070D01*
X-684834Y1624533D01*
X-697382Y1617472D01*
X-714756Y1609902D01*
X-730656Y1604416D01*
X-741578Y1601368D01*
X-742746Y1601266D01*
X-746912Y1599946D01*
X-758240Y1597558D01*
X-776071Y1594713D01*
X-796747Y1592580D01*
X-829716Y1592072D01*
X-849071Y1593697D01*
X-869696Y1596339D01*
X-885494Y1599438D01*
X-895603Y1601825D01*
X-909269Y1605838D01*
X-915517Y1607870D01*
X-929843Y1613712D01*
X-937971Y1617472D01*
X-951077Y1624533D01*
X-956411Y1627784D01*
X-965657Y1634134D01*
X-974953Y1641906D01*
X-980084Y1647037D01*
X-985266Y1652778D01*
X-992886Y1662785D01*
X-995883Y1667814D01*
X-996391Y1669135D01*
X-997508Y1670761D01*
X-1000201Y1676349D01*
X-1003096Y1683257D01*
X-1005890Y1692910D01*
X-1008278Y1707134D01*
X-1048244Y1707134D01*
X-1048410Y1691284D01*
X-1045667Y1674266D01*
X-1043381Y1664766D01*
X-1042720Y1663649D01*
X-1042162Y1661058D01*
X-1039672Y1652981D01*
X-1031494Y1630680D01*
X-1030630Y1629511D01*
X-1030274Y1627784D01*
X-1029208Y1625346D01*
X-1028395Y1622704D01*
X-1026058Y1617319D01*
X-1025296Y1614830D01*
X-1024432Y1613509D01*
X-1024331Y1612696D01*
X-1021537Y1605686D01*
X-1016152Y1590446D01*
X-1015390Y1589328D01*
X-1015034Y1587347D01*
X-1013815Y1584807D01*
X-1013561Y1583232D01*
X-1011986Y1578864D01*
X-1008481Y1566062D01*
X-1007211Y1559356D01*
X-1006297Y1552448D01*
X-1005687Y1545640D01*
X-1005332Y1538427D01*
X-1005890Y1523492D01*
X-1006398Y1516126D01*
X-1007465Y1507998D01*
X-1010412Y1474165D01*
X-1010414Y1472133D01*
X-959053Y1472133D01*
X-957630Y1512316D01*
X-955852Y1534464D01*
X-954684Y1546504D01*
X-953211Y1556359D01*
X-951280Y1559102D01*
X-946505Y1560118D01*
X-933856Y1558645D01*
X-919327Y1555750D01*
X-870610Y1544167D01*
X-849782Y1539646D01*
X-820115Y1534261D01*
X-794969Y1531213D01*
X-776173Y1530248D01*
X-762203Y1529892D01*
X-746455Y1530451D01*
X-738733Y1530959D01*
X-731062Y1532026D01*
X-718362Y1534160D01*
X-707593Y1536446D01*
X-699008Y1538732D01*
X-693674Y1540865D01*
X-691388Y1541373D01*
X-685952Y1543456D01*
X-671474Y1550314D01*
X-659485Y1557172D01*
X-654405Y1560779D01*
X-652983Y1562201D01*
X-651865Y1562658D01*
X-648665Y1564944D01*
X-638251Y1574038D01*
X-631698Y1580743D01*
X-625195Y1588312D01*
X-615289Y1601724D01*
X-611733Y1607261D01*
X-608482Y1613001D01*
X-601370Y1627022D01*
X-598474Y1633372D01*
X-596646Y1638503D01*
X-595122Y1641856D01*
X-593801Y1646072D01*
X-590397Y1655368D01*
X-587044Y1666697D01*
X-585825Y1671878D01*
X-585012Y1674469D01*
X-581761Y1691284D01*
X-580186Y1702612D01*
X-579069Y1709166D01*
X-578612Y1746707D01*
X-580542Y1764792D01*
X-581609Y1770938D01*
X-583692Y1780946D01*
X-586689Y1791207D01*
X-588416Y1796288D01*
X-592328Y1805736D01*
X-594360Y1810004D01*
X-599287Y1818893D01*
X-606704Y1828495D01*
X-610768Y1832762D01*
X-615188Y1836826D01*
X-619912Y1840585D01*
X-624738Y1843989D01*
X-629564Y1846935D01*
X-634288Y1849323D01*
X-650798Y1855317D01*
X-666394Y1859737D01*
X-677976Y1862328D01*
X-690168Y1864512D01*
X-700328Y1866087D01*
X-722020Y1868271D01*
X-737666Y1869186D01*
X-759307Y1869795D01*
X-848004Y1870710D01*
X-858164Y1872691D01*
X-860348Y1873808D01*
X-862431Y1875180D01*
X-864362Y1876958D01*
X-865987Y1878990D01*
X-868019Y1883257D01*
X-868070Y1889556D01*
X-867359Y1890064D01*
X-866495Y1892757D01*
X-863447Y1898599D01*
X-859688Y1903780D01*
X-857250Y1906473D01*
X-849376Y1913940D01*
X-847445Y1915515D01*
X-842467Y1918970D01*
X-839673Y1920646D01*
X-838962Y1921510D01*
X-836269Y1922678D01*
X-831342Y1925523D01*
X-821537Y1930450D01*
X-810717Y1935327D01*
X-796493Y1940255D01*
X-785418Y1943607D01*
X-763981Y1949043D01*
X-737514Y1954326D01*
X-719378Y1957120D01*
X-705510Y1958898D01*
X-703173Y1959356D01*
X-683869Y1961134D01*
X-649224Y1963521D01*
X-623570Y1964436D01*
X-590651Y1965248D01*
X-585571Y1963775D01*
X-579882Y1961388D01*
X-566826Y1954275D01*
X-558139Y1949297D01*
X-556920Y1948789D01*
X-555396Y1947468D01*
X-552450Y1945589D01*
X-541985Y1938121D01*
X-532993Y1930400D01*
X-528320Y1925929D01*
X-519988Y1916887D01*
X-516229Y1912264D01*
X-512978Y1907743D01*
X-504901Y1894992D01*
X-497281Y1879295D01*
X-492912Y1868932D01*
X-486562Y1849780D01*
X-481990Y1832762D01*
X-478078Y1815592D01*
X-474624Y1796338D01*
X-471881Y1776882D01*
X-467766Y1735988D01*
X-464464Y1696059D01*
X-462186Y1662480D01*
X-396595Y1662480D01*
X-396087Y1669592D01*
X-394106Y1673148D01*
X-391109Y1676603D01*
X-389280Y1678025D01*
X-387197Y1679244D01*
X-382524Y1680921D01*
X-367385Y1681175D01*
X-359765Y1680768D01*
X-352856Y1679905D01*
X-346862Y1678686D01*
X-337362Y1675892D01*
X-328980Y1672132D01*
X-325729Y1669745D01*
X-323596Y1667865D01*
X-321716Y1664258D01*
X-320446Y1660601D01*
X-319633Y1659229D01*
X-317906Y1653946D01*
X-315417Y1643430D01*
X-315061Y1642922D01*
X-309575Y1610106D01*
X-306679Y1581353D01*
X-303987Y1539138D01*
X-302920Y1517548D01*
X-302158Y1495704D01*
X-300888Y1472742D01*
X-303428Y1392377D01*
X-304800Y1366113D01*
X-305562Y1357528D01*
X-305917Y1350822D01*
X-308102Y1332484D01*
X-311962Y1307490D01*
X-314706Y1294231D01*
X-317906Y1281633D01*
X-321614Y1271016D01*
X-325323Y1263548D01*
X-326593Y1261465D01*
X-331317Y1258976D01*
X-334721Y1257960D01*
X-344017Y1254201D01*
X-345998Y1253896D01*
X-351129Y1252016D01*
X-361543Y1248714D01*
X-372313Y1246378D01*
X-380238Y1248105D01*
X-386588Y1251153D01*
X-391363Y1256080D01*
X-392074Y1260805D01*
X-391109Y1279245D01*
X-390245Y1290523D01*
X-386994Y1363522D01*
X-386029Y1393799D01*
X-385165Y1413764D01*
X-385114Y1531010D01*
X-387553Y1572412D01*
X-390499Y1605635D01*
X-392480Y1622602D01*
X-393649Y1634489D01*
X-395579Y1650746D01*
X-396595Y1662480D01*
X-462186Y1662480D01*
X-459993Y1616456D01*
X-458876Y1577543D01*
X-457301Y1478127D01*
X-456895Y1462125D01*
X-456641Y1360932D01*
X-457504Y1345488D01*
X-458216Y1311859D01*
X-459181Y1292656D01*
X-460705Y1254048D01*
X-462584Y1221638D01*
X-465277Y1186230D01*
X-468884Y1145997D01*
X-471017Y1127963D01*
X-479196Y1069390D01*
X-480110Y1064818D01*
X-482396Y1059434D01*
X-485648Y1054049D01*
X-489356Y1049629D01*
X-491896Y1047597D01*
X-495300Y1045311D01*
X-499059Y1043127D01*
X-506730Y1039418D01*
X-508660Y1038961D01*
X-512114Y1037691D01*
X-520192Y1035608D01*
X-531672Y1033475D01*
X-546455Y1032256D01*
X-562711Y1031697D01*
X-570788Y1033780D01*
X-574598Y1035253D01*
X-579831Y1038606D01*
X-588518Y1044752D01*
X-616813Y1066088D01*
X-618490Y1067562D01*
X-620217Y1069797D01*
X-621944Y1072642D01*
X-624433Y1077976D01*
X-623976Y1099566D01*
X-622096Y1137513D01*
X-621893Y1150620D01*
X-622249Y1161999D01*
X-623519Y1179474D01*
X-625144Y1189888D01*
X-628599Y1203299D01*
X-630377Y1207668D01*
X-631444Y1211072D01*
X-633679Y1215542D01*
X-636320Y1220114D01*
X-640283Y1225448D01*
X-647293Y1231849D01*
X-650494Y1234033D01*
X-654710Y1236319D01*
X-658723Y1238148D01*
X-662482Y1239164D01*
X-663600Y1239723D01*
X-668731Y1240739D01*
X-676960Y1242009D01*
X-682701Y1241552D01*
X-712114Y1235049D01*
X-727151Y1232814D01*
X-737057Y1231696D01*
X-774293Y1229309D01*
X-786739Y1228750D01*
X-797915Y1228496D01*
X-814527Y1228496D01*
X-841197Y1230477D01*
X-848512Y1230833D01*
X-855624Y1229614D01*
X-858519Y1227937D01*
X-860399Y1226362D01*
X-862634Y1223670D01*
X-863295Y1219149D01*
X-862634Y1213205D01*
X-859180Y1207719D01*
X-856996Y1204671D01*
X-853490Y1200962D01*
X-848106Y1196543D01*
X-815187Y1174851D01*
X-812495Y1173276D01*
X-809599Y1170787D01*
X-807161Y1167333D01*
X-803808Y1153718D01*
X-802386Y1146556D01*
X-801319Y1139596D01*
X-799947Y1126439D01*
X-800404Y1102055D01*
X-802436Y1093825D01*
X-804265Y1087882D01*
X-806907Y1082243D01*
X-812596Y1076553D01*
X-819607Y1073607D01*
X-824585Y1072388D01*
X-830935Y1071473D01*
X-848309Y1070152D01*
X-863092Y1071270D01*
X-874369Y1072845D01*
X-884986Y1075131D01*
X-894537Y1078026D01*
X-906068Y1082700D01*
X-908558Y1084376D01*
X-910488Y1086561D01*
X-913587Y1092403D01*
X-914095Y1097584D01*
X-914958Y1101699D01*
X-915365Y1105357D01*
X-919480Y1129436D01*
X-925728Y1168958D01*
X-926388Y1175004D01*
X-928827Y1189431D01*
X-950823Y1334312D01*
X-952144Y1343964D01*
X-954786Y1370076D01*
X-956614Y1395984D01*
X-958037Y1427530D01*
X-958545Y1443939D01*
X-959053Y1472133D01*
X-1010414Y1472133D01*
X-1010462Y1402588D01*
X-1008837Y1371244D01*
X-1006957Y1343456D01*
X-1003909Y1311706D01*
X-998067Y1264818D01*
X-995070Y1244295D01*
X-988720Y1204925D01*
X-985774Y1188669D01*
X-978001Y1151432D01*
X-973378Y1132535D01*
X-966266Y1106373D01*
X-961948Y1092250D01*
X-957224Y1078179D01*
X-952957Y1066952D01*
X-945692Y1050798D01*
X-942543Y1045159D01*
X-939241Y1040434D01*
X-935736Y1036523D01*
X-931824Y1033322D01*
X-927557Y1030782D01*
X-922731Y1028801D01*
X-911453Y1025906D01*
X-904341Y1024534D01*
X-889914Y1022451D01*
X-881887Y1021587D01*
X-873201Y1021080D01*
X-849020Y1020470D01*
X-827532Y1022553D01*
X-821436Y1023416D01*
X-816102Y1024483D01*
X-808228Y1026464D01*
X-799439Y1029208D01*
X-793699Y1031494D01*
X-785926Y1035253D01*
X-784402Y1036421D01*
X-780897Y1038148D01*
X-776681Y1041501D01*
X-772058Y1045768D01*
X-765860Y1052982D01*
X-761796Y1060043D01*
X-759409Y1064869D01*
X-755040Y1074775D01*
X-751027Y1086154D01*
X-748792Y1095806D01*
X-747268Y1103579D01*
X-746150Y1116126D01*
X-745642Y1125677D01*
X-747014Y1149959D01*
X-747217Y1157478D01*
X-747115Y1162862D01*
X-746709Y1166723D01*
X-746099Y1170076D01*
X-744626Y1173124D01*
X-741019Y1178255D01*
X-735838Y1182217D01*
X-728929Y1184960D01*
X-720140Y1186586D01*
X-715162Y1187196D01*
X-704342Y1185976D01*
X-701649Y1185011D01*
X-695147Y1181811D01*
X-690829Y1177036D01*
X-687933Y1169619D01*
X-685800Y1158392D01*
X-683615Y1136700D01*
X-677113Y1034542D01*
X-676148Y1033018D01*
X-674014Y1030427D01*
X-664260Y1020826D01*
X-654405Y1011936D01*
X-650595Y1008735D01*
X-645261Y1004722D01*
X-631494Y995730D01*
X-624179Y991717D01*
X-617067Y988161D01*
X-609498Y984961D01*
X-595528Y980186D01*
X-588162Y978306D01*
X-575614Y975817D01*
X-567893Y974547D01*
X-564489Y974394D01*
X-564489Y973378D01*
X-532028Y973378D01*
X-532028Y974394D01*
X-528828Y974445D01*
X-516432Y976274D01*
X-510489Y977442D01*
X-495147Y981100D01*
X-482295Y985316D01*
X-470712Y990193D01*
X-461518Y994867D01*
X-452424Y999845D01*
X-446684Y1003604D01*
X-443890Y1005687D01*
X-438607Y1010919D01*
X-435051Y1015492D01*
X-432866Y1019098D01*
X-430022Y1024890D01*
X-427634Y1037386D01*
X-426008Y1048562D01*
X-423875Y1066038D01*
X-422097Y1085951D01*
X-418185Y1148029D01*
X-417220Y1156106D01*
X-416051Y1163116D01*
X-413715Y1171702D01*
X-411886Y1176832D01*
X-411226Y1178102D01*
X-411073Y1179068D01*
X-410209Y1180998D01*
X-406450Y1186637D01*
X-402945Y1190040D01*
X-398881Y1192530D01*
X-393801Y1194409D01*
X-390804Y1195273D01*
X-375920Y1195832D01*
X-349554Y1194714D01*
X-339801Y1195374D01*
X-334822Y1195933D01*
X-329996Y1197051D01*
X-324358Y1198778D01*
X-319024Y1200810D01*
X-314401Y1203350D01*
X-309372Y1206500D01*
X-305358Y1209395D01*
X-298754Y1215898D01*
X-292709Y1222857D01*
X-288239Y1229004D01*
X-283718Y1236065D01*
X-283159Y1237640D01*
X-282397Y1238351D01*
X-273862Y1255217D01*
X-272491Y1258874D01*
X-269443Y1265783D01*
X-263702Y1281633D01*
X-262737Y1285494D01*
X-260959Y1290675D01*
X-256997Y1306220D01*
X-254863Y1316532D01*
X-253593Y1323949D01*
X-251714Y1338834D01*
X-248716Y1384300D01*
X-249072Y1459941D01*
X-249936Y1482852D01*
X-251002Y1499362D01*
X-251358Y1510893D01*
X-254558Y1560880D01*
X-257606Y1596339D01*
X-259435Y1614424D01*
X-263906Y1651101D01*
X-267258Y1668018D01*
X-268732Y1672793D01*
X-271272Y1679803D01*
X-273812Y1685391D01*
X-276301Y1690065D01*
X-281787Y1697278D01*
X-284581Y1700275D01*
X-287782Y1703273D01*
X-290931Y1705864D01*
X-298094Y1710639D01*
X-301599Y1712620D01*
X-308254Y1715414D01*
X-309727Y1715770D01*
X-312572Y1716938D01*
X-322427Y1719580D01*
X-327456Y1720392D01*
X-328930Y1720900D01*
X-379730Y1727047D01*
X-389636Y1728774D01*
X-396798Y1730654D01*
X-403453Y1733854D01*
X-405841Y1735226D01*
X-410311Y1739138D01*
X-412597Y1741678D01*
X-416051Y1746199D01*
X-418642Y1752955D01*
X-419811Y1756816D01*
X-425907Y1786534D01*
X-430530Y1811274D01*
X-433476Y1824278D01*
X-436626Y1836572D01*
X-441655Y1854098D01*
X-445516Y1866036D01*
X-450799Y1880768D01*
X-452069Y1883511D01*
X-452780Y1885899D01*
X-460501Y1903730D01*
X-468528Y1920138D01*
X-474573Y1931568D01*
X-481939Y1942693D01*
X-486105Y1947468D01*
X-492506Y1954022D01*
X-498906Y1960118D01*
X-511454Y1970278D01*
X-517550Y1974799D01*
X-520903Y1976932D01*
X-524052Y1979269D01*
X-532028Y1983892D01*
X-543255Y1989632D01*
X-554177Y1994763D01*
X-563473Y1998370D01*
X-582574Y2004314D01*
X-598525Y2007768D01*
X-615746Y2010206D01*
X-621690Y2010511D01*
G37*
G36*
X-1844954Y1707388D02*
G01*
X-1927352Y1707134D01*
X-1931720Y1706321D01*
X-1977136Y1702307D01*
X-1986178Y1700834D01*
X-1992579Y1699463D01*
X-1997303Y1698701D01*
X-1997964Y1698294D01*
X-2002942Y1697583D01*
X-2019096Y1692605D01*
X-2020112Y1691995D01*
X-2024329Y1690827D01*
X-2025396Y1690166D01*
X-2026462Y1689912D01*
X-2038197Y1684782D01*
X-2039264Y1683918D01*
X-2049424Y1678228D01*
X-2056536Y1673402D01*
X-2063851Y1667662D01*
X-2069338Y1662887D01*
X-2077720Y1654302D01*
X-2080412Y1651000D01*
X-2084578Y1644904D01*
X-2088083Y1639062D01*
X-2091080Y1633423D01*
X-2093518Y1628038D01*
X-2096414Y1620672D01*
X-2098446Y1613966D01*
X-2099919Y1607718D01*
X-2101138Y1601012D01*
X-2101900Y1598015D01*
X-2103577Y1583690D01*
X-2104745Y1568297D01*
X-2104446Y1565656D01*
X-2056130Y1565656D01*
X-2055520Y1587804D01*
X-2054453Y1588871D01*
X-2054453Y1595831D01*
X-2052421Y1602232D01*
X-2051761Y1605026D01*
X-2049983Y1608734D01*
X-2047392Y1614982D01*
X-2041702Y1622044D01*
X-2034336Y1629257D01*
X-2027021Y1634794D01*
X-2020163Y1638858D01*
X-2009648Y1643735D01*
X-1999437Y1647088D01*
X-1991715Y1648714D01*
X-1988616Y1649780D01*
X-1983282Y1650796D01*
X-1955901Y1654403D01*
X-1947113Y1654911D01*
X-1944725Y1655267D01*
X-1943455Y1655724D01*
X-1910689Y1656486D01*
X-1910130Y1657350D01*
X-1849678Y1657299D01*
X-1848104Y1656435D01*
X-1818639Y1655724D01*
X-1816963Y1655013D01*
X-1807108Y1653997D01*
X-1802028Y1653082D01*
X-1793849Y1652168D01*
X-1785467Y1650796D01*
X-1769668Y1647342D01*
X-1756308Y1643532D01*
X-1752854Y1642770D01*
X-1750923Y1641957D01*
X-1747723Y1640992D01*
X-1745691Y1640128D01*
X-1743557Y1639773D01*
X-1742287Y1638960D01*
X-1739544Y1638198D01*
X-1730654Y1634744D01*
X-1716379Y1628648D01*
X-1712010Y1626311D01*
X-1707794Y1624584D01*
X-1698853Y1620062D01*
X-1695602Y1618132D01*
X-1693672Y1617370D01*
X-1693214Y1616710D01*
X-1690573Y1615440D01*
X-1680006Y1609242D01*
X-1668729Y1601876D01*
X-1662175Y1597304D01*
X-1649831Y1587804D01*
X-1640179Y1579321D01*
X-1634947Y1574292D01*
X-1628851Y1567942D01*
X-1623212Y1561693D01*
X-1612239Y1548180D01*
X-1603451Y1536496D01*
X-1598422Y1527810D01*
X-1594662Y1520596D01*
X-1592478Y1517142D01*
X-1589836Y1510944D01*
X-1589176Y1510385D01*
X-1588871Y1509064D01*
X-1587601Y1506575D01*
X-1587144Y1504797D01*
X-1584350Y1498142D01*
X-1583537Y1494942D01*
X-1582267Y1491132D01*
X-1580235Y1480058D01*
X-1580388Y1464716D01*
X-1581048Y1454962D01*
X-1582115Y1448917D01*
X-1583080Y1440688D01*
X-1584401Y1434896D01*
X-1586331Y1434287D01*
X-1589328Y1435811D01*
X-1591868Y1436522D01*
X-1593443Y1437233D01*
X-1606092Y1441145D01*
X-1609750Y1442516D01*
X-1615135Y1444091D01*
X-1617980Y1444650D01*
X-1619351Y1445310D01*
X-1639214Y1451356D01*
X-1642211Y1452575D01*
X-1648612Y1454251D01*
X-1649780Y1454861D01*
X-1653895Y1455877D01*
X-1655165Y1456486D01*
X-1659077Y1457248D01*
X-1660499Y1458010D01*
X-1665732Y1459179D01*
X-1671726Y1461160D01*
X-1676247Y1461973D01*
X-1683359Y1463903D01*
X-1690420Y1465275D01*
X-1690928Y1465681D01*
X-1697532Y1466799D01*
X-1710893Y1470101D01*
X-1712620Y1470863D01*
X-1722018Y1471320D01*
X-1729384Y1472336D01*
X-1739950Y1472844D01*
X-1741932Y1473911D01*
X-1755444Y1474876D01*
X-1758899Y1475587D01*
X-1765350Y1476146D01*
X-1777695Y1477619D01*
X-1783130Y1478686D01*
X-1854250Y1479194D01*
X-1855520Y1480210D01*
X-1878787Y1480820D01*
X-1943201Y1481023D01*
X-1968703Y1478584D01*
X-1985568Y1474673D01*
X-1988769Y1474622D01*
X-1989531Y1474927D01*
X-1995525Y1480007D01*
X-2001164Y1483512D01*
X-2008987Y1488846D01*
X-2013051Y1491996D01*
X-2017420Y1494993D01*
X-2018334Y1496110D01*
X-2020316Y1497126D01*
X-2025345Y1501444D01*
X-2040026Y1515719D01*
X-2042109Y1519682D01*
X-2043633Y1522120D01*
X-2047341Y1529537D01*
X-2048306Y1532636D01*
X-2048916Y1533601D01*
X-2052675Y1544878D01*
X-2054910Y1556004D01*
X-2056130Y1565656D01*
X-2104446Y1565656D01*
X-2102916Y1551787D01*
X-2101748Y1543202D01*
X-2101392Y1541830D01*
X-2100834Y1540713D01*
X-2100681Y1531366D01*
X-2104136Y1530400D01*
X-2115413Y1536192D01*
X-2128570Y1540713D01*
X-2131618Y1541475D01*
X-2132177Y1541881D01*
X-2142896Y1544116D01*
X-2152294Y1543964D01*
X-2162251Y1543100D01*
X-2168855Y1541678D01*
X-2182012Y1535125D01*
X-2191308Y1528368D01*
X-2196338Y1524304D01*
X-2201468Y1519732D01*
X-2207463Y1513840D01*
X-2213102Y1507794D01*
X-2223109Y1495856D01*
X-2229764Y1486966D01*
X-2233472Y1481480D01*
X-2235809Y1477314D01*
X-2236774Y1476451D01*
X-2238806Y1473098D01*
X-2239873Y1471980D01*
X-2242464Y1466799D01*
X-2246122Y1460754D01*
X-2248814Y1455572D01*
X-2252014Y1450035D01*
X-2256586Y1439875D01*
X-2260600Y1430121D01*
X-2264054Y1420368D01*
X-2266188Y1412646D01*
X-2271420Y1389430D01*
X-2273655Y1374241D01*
X-2274773Y1364335D01*
X-2275384Y1354836D01*
X-2247138Y1354836D01*
X-2246376Y1356156D01*
X-2245868Y1359103D01*
X-2245156Y1366469D01*
X-2244039Y1374038D01*
X-2243124Y1376832D01*
X-2242972Y1379321D01*
X-2242058Y1385062D01*
X-2241296Y1388160D01*
X-2240686Y1392580D01*
X-2240280Y1393240D01*
X-2239060Y1400454D01*
X-2233828Y1415389D01*
X-2230932Y1422400D01*
X-2225344Y1434033D01*
X-2221585Y1441145D01*
X-2213660Y1454302D01*
X-2209952Y1459941D01*
X-2208834Y1462024D01*
X-2206752Y1464360D01*
X-2203602Y1468882D01*
X-2195118Y1479397D01*
X-2189886Y1484884D01*
X-2178354Y1496364D01*
X-2168093Y1503578D01*
X-2160930Y1506931D01*
X-2146655Y1507185D01*
X-2139848Y1505762D01*
X-2136140Y1504696D01*
X-2132431Y1503172D01*
X-2113280Y1493266D01*
X-2110130Y1491335D01*
X-2108403Y1489862D01*
X-2107742Y1489760D01*
X-2094230Y1481582D01*
X-2093061Y1481124D01*
X-2092655Y1480515D01*
X-2077872Y1470355D01*
X-2074113Y1468018D01*
X-2056079Y1455013D01*
X-2055469Y1454912D01*
X-2053386Y1453184D01*
X-2052167Y1452575D01*
X-2046427Y1448003D01*
X-2048154Y1446276D01*
X-2049881Y1445564D01*
X-2059736Y1439519D01*
X-2063851Y1436624D01*
X-2066036Y1435354D01*
X-2075586Y1428597D01*
X-2076196Y1428496D01*
X-2077313Y1427480D01*
X-2081123Y1424736D01*
X-2086406Y1420215D01*
X-2095855Y1411528D01*
X-2096922Y1410766D01*
X-2098903Y1408785D01*
X-2110232Y1395374D01*
X-2116378Y1386281D01*
X-2122170Y1376781D01*
X-2123694Y1373886D01*
X-2125218Y1369872D01*
X-2127961Y1363726D01*
X-2130653Y1356156D01*
X-2131568Y1352194D01*
X-2135022Y1340256D01*
X-2135784Y1335532D01*
X-2137816Y1326642D01*
X-2138680Y1325067D01*
X-2136902Y1322425D01*
X-2138019Y1321409D01*
X-2138578Y1320038D01*
X-2139848Y1314805D01*
X-2140559Y1308658D01*
X-2140864Y1303934D01*
X-2141880Y1299311D01*
X-2142388Y1293622D01*
X-2142979Y1279753D01*
X-2106269Y1279753D01*
X-2105152Y1280820D01*
X-2104948Y1288592D01*
X-2103831Y1301038D01*
X-2102307Y1312722D01*
X-2100935Y1320444D01*
X-2095957Y1341424D01*
X-2094179Y1346301D01*
X-2093163Y1349857D01*
X-2092756Y1350314D01*
X-2092401Y1351991D01*
X-2091842Y1353312D01*
X-2090420Y1355648D01*
X-2090267Y1356563D01*
X-2088896Y1359204D01*
X-2082596Y1369314D01*
X-2080818Y1371701D01*
X-2073808Y1379829D01*
X-2065883Y1387754D01*
X-2057501Y1395120D01*
X-2054809Y1397254D01*
X-2053691Y1397812D01*
X-2050745Y1400149D01*
X-2031441Y1412900D01*
X-2026869Y1415237D01*
X-2023770Y1417167D01*
X-2003043Y1428191D01*
X-1996236Y1431086D01*
X-1989429Y1434287D01*
X-1984044Y1436217D01*
X-1971751Y1439672D01*
X-1964283Y1440840D01*
X-1960625Y1441754D01*
X-1940052Y1443939D01*
X-1888439Y1444650D01*
X-1887829Y1444294D01*
X-1885035Y1443939D01*
X-1871370Y1443278D01*
X-1864258Y1441754D01*
X-1837994Y1441754D01*
X-1837029Y1440789D01*
X-1826768Y1440230D01*
X-1796592Y1436979D01*
X-1773936Y1433677D01*
X-1765046Y1431899D01*
X-1764080Y1431442D01*
X-1759966Y1430680D01*
X-1756206Y1429715D01*
X-1750263Y1428953D01*
X-1731213Y1423974D01*
X-1726285Y1422400D01*
X-1725218Y1421790D01*
X-1722120Y1421028D01*
X-1720494Y1420215D01*
X-1717344Y1419453D01*
X-1716024Y1418640D01*
X-1714042Y1418183D01*
X-1710537Y1416710D01*
X-1708353Y1416253D01*
X-1689760Y1408226D01*
X-1680616Y1403908D01*
X-1678787Y1403451D01*
X-1677212Y1402232D01*
X-1661972Y1394206D01*
X-1658467Y1392123D01*
X-1652778Y1389227D01*
X-1651050Y1387906D01*
X-1642008Y1382369D01*
X-1636420Y1378559D01*
X-1634947Y1378102D01*
X-1632966Y1376375D01*
X-1630273Y1374851D01*
X-1610207Y1359966D01*
X-1607718Y1357884D01*
X-1606194Y1357020D01*
X-1601012Y1352804D01*
X-1598980Y1350822D01*
X-1594256Y1346911D01*
X-1587347Y1340510D01*
X-1583232Y1337005D01*
X-1571752Y1325575D01*
X-1554175Y1306525D01*
X-1546250Y1296822D01*
X-1545132Y1295044D01*
X-1540611Y1289253D01*
X-1530756Y1274724D01*
X-1527860Y1269593D01*
X-1527403Y1269187D01*
X-1522323Y1260449D01*
X-1517040Y1248460D01*
X-1516583Y1246886D01*
X-1515211Y1243939D01*
X-1511960Y1234592D01*
X-1511046Y1230071D01*
X-1509674Y1225854D01*
X-1508810Y1215390D01*
X-1508404Y1205179D01*
X-1508201Y1187602D01*
X-1509115Y1186992D01*
X-1509471Y1179474D01*
X-1510995Y1170025D01*
X-1512265Y1165910D01*
X-1512366Y1164742D01*
X-1513789Y1160068D01*
X-1514551Y1156258D01*
X-1515364Y1155293D01*
X-1516126Y1152245D01*
X-1517142Y1150061D01*
X-1518056Y1146708D01*
X-1520698Y1140510D01*
X-1522628Y1136954D01*
X-1523644Y1139952D01*
X-1526032Y1151280D01*
X-1531366Y1167688D01*
X-1532229Y1168298D01*
X-1533499Y1172057D01*
X-1535430Y1175461D01*
X-1537004Y1178864D01*
X-1541780Y1186891D01*
X-1543964Y1190091D01*
X-1544116Y1190701D01*
X-1548180Y1196187D01*
X-1556105Y1205484D01*
X-1566976Y1215644D01*
X-1569821Y1217726D01*
X-1570431Y1217980D01*
X-1571447Y1218996D01*
X-1576171Y1221994D01*
X-1582623Y1225296D01*
X-1584706Y1228902D01*
X-1584756Y1234592D01*
X-1585163Y1238859D01*
X-1588516Y1261313D01*
X-1589633Y1264869D01*
X-1589938Y1266647D01*
X-1590395Y1267968D01*
X-1590751Y1268425D01*
X-1591106Y1270508D01*
X-1594510Y1281074D01*
X-1599387Y1291894D01*
X-1604314Y1300480D01*
X-1607515Y1304594D01*
X-1614322Y1312265D01*
X-1627886Y1325930D01*
X-1637690Y1334566D01*
X-1641703Y1337665D01*
X-1643583Y1338732D01*
X-1647494Y1341882D01*
X-1652219Y1344980D01*
X-1655013Y1347317D01*
X-1656334Y1347876D01*
X-1656740Y1348587D01*
X-1658975Y1349705D01*
X-1667205Y1354836D01*
X-1670405Y1356512D01*
X-1675841Y1359814D01*
X-1678228Y1360932D01*
X-1678990Y1361541D01*
X-1681327Y1362202D01*
X-1682292Y1363014D01*
X-1685594Y1364792D01*
X-1694027Y1368196D01*
X-1695602Y1368602D01*
X-1695805Y1369009D01*
X-1705559Y1372819D01*
X-1707845Y1373378D01*
X-1708353Y1373784D01*
X-1724101Y1378204D01*
X-1727606Y1379372D01*
X-1742948Y1383131D01*
X-1747977Y1383995D01*
X-1752396Y1385112D01*
X-1758442Y1385925D01*
X-1761845Y1386840D01*
X-1766519Y1387449D01*
X-1769872Y1388313D01*
X-1776222Y1389075D01*
X-1779422Y1389837D01*
X-1786280Y1390497D01*
X-1791970Y1390497D01*
X-1793544Y1391818D01*
X-1803806Y1392072D01*
X-1806752Y1393190D01*
X-1848612Y1393748D01*
X-1867052Y1392580D01*
X-1882851Y1391005D01*
X-1902764Y1388110D01*
X-1905304Y1387398D01*
X-1907489Y1387144D01*
X-1910689Y1386179D01*
X-1917852Y1384909D01*
X-1918665Y1384452D01*
X-1921103Y1384096D01*
X-1934921Y1380744D01*
X-1938375Y1379524D01*
X-1941931Y1378559D01*
X-1942998Y1377950D01*
X-1946097Y1377188D01*
X-1947468Y1376375D01*
X-1949551Y1376019D01*
X-1964639Y1369974D01*
X-1973529Y1365453D01*
X-1986940Y1357274D01*
X-1992528Y1353210D01*
X-1997202Y1349095D01*
X-1999843Y1347114D01*
X-2014829Y1332230D01*
X-2014931Y1330553D01*
X-2016658Y1329283D01*
X-2018842Y1327099D01*
X-2020824Y1324660D01*
X-2022093Y1322425D01*
X-2025497Y1317853D01*
X-2027123Y1314653D01*
X-2030475Y1309776D01*
X-2033524Y1304137D01*
X-2034539Y1301597D01*
X-2035302Y1301038D01*
X-2036572Y1297635D01*
X-2038502Y1294231D01*
X-2039264Y1292047D01*
X-2040026Y1290929D01*
X-2040382Y1289253D01*
X-2043633Y1280414D01*
X-2045614Y1273200D01*
X-2047493Y1267917D01*
X-2048814Y1261160D01*
X-2049780Y1253337D01*
X-2050186Y1245717D01*
X-2050237Y1240129D01*
X-2051354Y1239012D01*
X-2050781Y1224178D01*
X-2014372Y1224178D01*
X-2014372Y1235557D01*
X-2013356Y1237538D01*
X-2012797Y1254252D01*
X-2012035Y1255318D01*
X-2010765Y1261465D01*
X-2008174Y1269949D01*
X-2005380Y1277620D01*
X-2003755Y1280109D01*
X-2003348Y1281734D01*
X-2001215Y1286205D01*
X-1997456Y1292809D01*
X-1988261Y1305814D01*
X-1985162Y1309471D01*
X-1973021Y1321206D01*
X-1971802Y1321917D01*
X-1970227Y1323644D01*
X-1969160Y1324508D01*
X-1966823Y1325778D01*
X-1964334Y1327708D01*
X-1960321Y1330350D01*
X-1957832Y1331671D01*
X-1957730Y1332077D01*
X-1954072Y1334211D01*
X-1952040Y1334871D01*
X-1948992Y1336751D01*
X-1942693Y1339037D01*
X-1939696Y1339240D01*
X-1936394Y1341526D01*
X-1931822Y1343152D01*
X-1926132Y1344523D01*
X-1922272Y1345793D01*
X-1915058Y1347470D01*
X-1912416Y1348333D01*
X-1899157Y1351229D01*
X-1893011Y1352296D01*
X-1891792Y1353058D01*
X-1873707Y1354734D01*
X-1866239Y1355039D01*
X-1864969Y1356106D01*
X-1836724Y1356410D01*
X-1813255Y1356106D01*
X-1807260Y1355699D01*
X-1802688Y1354988D01*
X-1785670Y1353362D01*
X-1777288Y1352956D01*
X-1772767Y1350772D01*
X-1769770Y1351838D01*
X-1768195Y1350264D01*
X-1763775Y1349654D01*
X-1759661Y1348587D01*
X-1757934Y1348333D01*
X-1755495Y1348486D01*
X-1754784Y1347876D01*
X-1752346Y1347012D01*
X-1745284Y1345641D01*
X-1742135Y1344523D01*
X-1740306Y1344117D01*
X-1732940Y1343355D01*
X-1729689Y1341628D01*
X-1723898Y1339494D01*
X-1715770Y1338072D01*
X-1715160Y1336141D01*
X-1711452Y1335328D01*
X-1705914Y1332992D01*
X-1698091Y1329334D01*
X-1696770Y1328928D01*
X-1696161Y1328369D01*
X-1685391Y1322476D01*
X-1682902Y1320546D01*
X-1680464Y1319276D01*
X-1677111Y1317142D01*
X-1675942Y1316634D01*
X-1674571Y1315364D01*
X-1669694Y1312468D01*
X-1660956Y1305407D01*
X-1659636Y1304036D01*
X-1659026Y1303832D01*
X-1654810Y1300175D01*
X-1646580Y1291894D01*
X-1638554Y1283258D01*
X-1633220Y1276756D01*
X-1631543Y1273505D01*
X-1630933Y1271320D01*
X-1629511Y1268476D01*
X-1628800Y1267815D01*
X-1628495Y1266037D01*
X-1627022Y1260957D01*
X-1626920Y1259738D01*
X-1626565Y1258671D01*
X-1625549Y1257604D01*
X-1624584Y1251254D01*
X-1624177Y1250289D01*
X-1623771Y1248308D01*
X-1623060Y1241704D01*
X-1622145Y1236014D01*
X-1623822Y1234744D01*
X-1633575Y1235303D01*
X-1634896Y1236319D01*
X-1642211Y1236624D01*
X-1645666Y1236980D01*
X-1647901Y1237691D01*
X-1661109Y1238250D01*
X-1666443Y1238656D01*
X-1668119Y1239062D01*
X-1680768Y1240231D01*
X-1688084Y1242060D01*
X-1694281Y1243076D01*
X-1695500Y1244193D01*
X-1697228Y1244904D01*
X-1698040Y1245768D01*
X-1702003Y1248867D01*
X-1707794Y1254201D01*
X-1709978Y1255776D01*
X-1712772Y1258417D01*
X-1714398Y1259179D01*
X-1718462Y1262786D01*
X-1725930Y1270000D01*
X-1730095Y1273708D01*
X-1732635Y1275588D01*
X-1734464Y1277366D01*
X-1738985Y1280566D01*
X-1743862Y1284427D01*
X-1747672Y1287018D01*
X-1749856Y1288084D01*
X-1754428Y1291234D01*
X-1765300Y1297330D01*
X-1768906Y1299006D01*
X-1780539Y1303121D01*
X-1783689Y1303324D01*
X-1784959Y1304594D01*
X-1797354Y1304340D01*
X-1798370Y1303680D01*
X-1805482Y1302461D01*
X-1806854Y1301750D01*
X-1807870Y1301699D01*
X-1812798Y1300073D01*
X-1816658Y1299260D01*
X-1817776Y1298600D01*
X-1820265Y1297889D01*
X-1824786Y1296212D01*
X-1827530Y1294841D01*
X-1828546Y1294130D01*
X-1832356Y1293012D01*
X-1832610Y1292606D01*
X-1836115Y1290980D01*
X-1843836Y1286713D01*
X-1844598Y1285900D01*
X-1845208Y1285798D01*
X-1850186Y1282700D01*
X-1858010Y1276045D01*
X-1866646Y1267917D01*
X-1871929Y1262532D01*
X-1877517Y1255369D01*
X-1882698Y1246987D01*
X-1886102Y1239367D01*
X-1889861Y1225397D01*
X-1889861Y1216304D01*
X-1852879Y1216304D01*
X-1852879Y1223365D01*
X-1849323Y1230731D01*
X-1847088Y1234541D01*
X-1844649Y1237640D01*
X-1837486Y1244803D01*
X-1830628Y1250797D01*
X-1824736Y1255318D01*
X-1821992Y1256944D01*
X-1813915Y1260754D01*
X-1810816Y1261872D01*
X-1808632Y1262938D01*
X-1800860Y1265478D01*
X-1795525Y1266748D01*
X-1794916Y1267409D01*
X-1788718Y1267409D01*
X-1788160Y1266698D01*
X-1784096Y1265478D01*
X-1783791Y1265072D01*
X-1781860Y1264259D01*
X-1774901Y1260602D01*
X-1771548Y1258366D01*
X-1769770Y1257554D01*
X-1758797Y1249578D01*
X-1749552Y1241399D01*
X-1741881Y1235506D01*
X-1719376Y1215644D01*
X-1709013Y1209497D01*
X-1704035Y1207566D01*
X-1701038Y1206804D01*
X-1700123Y1206398D01*
X-1694230Y1205636D01*
X-1688236Y1204366D01*
X-1671929Y1202639D01*
X-1649222Y1200708D01*
X-1635607Y1199184D01*
X-1624380Y1197508D01*
X-1616913Y1195882D01*
X-1613814Y1194460D01*
X-1607972Y1194612D01*
X-1606854Y1193850D01*
X-1605330Y1193393D01*
X-1602232Y1192885D01*
X-1593748Y1188415D01*
X-1591157Y1186789D01*
X-1588871Y1184910D01*
X-1583232Y1179220D01*
X-1578813Y1174089D01*
X-1574038Y1167384D01*
X-1570482Y1161288D01*
X-1566875Y1153922D01*
X-1564182Y1147724D01*
X-1561744Y1140815D01*
X-1561744Y1131874D01*
X-1563471Y1126693D01*
X-1565554Y1121918D01*
X-1570126Y1112926D01*
X-1574901Y1107236D01*
X-1577340Y1105306D01*
X-1580540Y1103325D01*
X-1589430Y1098753D01*
X-1595526Y1097635D01*
X-1606245Y1097686D01*
X-1613204Y1097991D01*
X-1621586Y1098702D01*
X-1627632Y1100937D01*
X-1629308Y1102004D01*
X-1632051Y1102055D01*
X-1633270Y1102309D01*
X-1634794Y1103172D01*
X-1636776Y1103833D01*
X-1641602Y1106678D01*
X-1645615Y1109370D01*
X-1649069Y1112113D01*
X-1654810Y1116126D01*
X-1662277Y1122172D01*
X-1663801Y1123137D01*
X-1680718Y1138529D01*
X-1685798Y1142593D01*
X-1689912Y1145387D01*
X-1692960Y1146708D01*
X-1693011Y1147470D01*
X-1696008Y1147470D01*
X-1698040Y1142949D01*
X-1698040Y1129639D01*
X-1697177Y1128471D01*
X-1696313Y1125931D01*
X-1695348Y1124356D01*
X-1694078Y1119378D01*
X-1693113Y1117803D01*
X-1691690Y1114704D01*
X-1691386Y1113485D01*
X-1690319Y1112215D01*
X-1689912Y1111351D01*
X-1689709Y1109929D01*
X-1686966Y1103477D01*
X-1686407Y1101445D01*
X-1685645Y1100124D01*
X-1683969Y1095298D01*
X-1681937Y1088034D01*
X-1681937Y1076909D01*
X-1683461Y1069695D01*
X-1686204Y1060500D01*
X-1688388Y1055370D01*
X-1690065Y1052118D01*
X-1691893Y1049680D01*
X-1694637Y1046937D01*
X-1698650Y1043381D01*
X-1702714Y1040180D01*
X-1706118Y1037894D01*
X-1718360Y1033018D01*
X-1726844Y1030732D01*
X-1736293Y1028801D01*
X-1745843Y1027480D01*
X-1765706Y1026414D01*
X-1785213Y1026109D01*
X-1791563Y1026312D01*
X-1797151Y1028750D01*
X-1808988Y1034745D01*
X-1812747Y1036980D01*
X-1814575Y1037742D01*
X-1820214Y1041196D01*
X-1822754Y1043330D01*
X-1824380Y1044397D01*
X-1825498Y1045413D01*
X-1826310Y1046886D01*
X-1827682Y1048512D01*
X-1828139Y1049680D01*
X-1830324Y1053084D01*
X-1831593Y1056589D01*
X-1832914Y1063294D01*
X-1833676Y1065428D01*
X-1834743Y1090117D01*
X-1833270Y1099261D01*
X-1832000Y1104036D01*
X-1831136Y1106525D01*
X-1829104Y1110386D01*
X-1825853Y1115771D01*
X-1821738Y1121410D01*
X-1813204Y1131570D01*
X-1812239Y1133195D01*
X-1809394Y1136751D01*
X-1807108Y1140409D01*
X-1805076Y1144422D01*
X-1802180Y1151940D01*
X-1802130Y1166723D01*
X-1803907Y1171397D01*
X-1808225Y1180185D01*
X-1810918Y1183792D01*
X-1815338Y1188212D01*
X-1820519Y1192631D01*
X-1828190Y1198016D01*
X-1830425Y1199083D01*
X-1831187Y1199743D01*
X-1834896Y1201775D01*
X-1836115Y1202842D01*
X-1839772Y1204925D01*
X-1847900Y1211224D01*
X-1850796Y1213967D01*
X-1852879Y1216304D01*
X-1889861Y1216304D01*
X-1889861Y1209548D01*
X-1887728Y1204925D01*
X-1885696Y1199489D01*
X-1882648Y1194562D01*
X-1878685Y1189278D01*
X-1874723Y1184960D01*
X-1869338Y1180236D01*
X-1856130Y1171600D01*
X-1853895Y1170584D01*
X-1852066Y1169111D01*
X-1843633Y1163878D01*
X-1839417Y1159865D01*
X-1839468Y1158494D01*
X-1839975Y1157478D01*
X-1846427Y1149756D01*
X-1850339Y1144574D01*
X-1850593Y1143863D01*
X-1853488Y1140612D01*
X-1857197Y1135329D01*
X-1861108Y1128674D01*
X-1865731Y1119632D01*
X-1866239Y1117498D01*
X-1867407Y1114348D01*
X-1868982Y1108760D01*
X-1871065Y1094689D01*
X-1871421Y1089456D01*
X-1873046Y1087780D01*
X-1885238Y1087221D01*
X-1899412Y1087069D01*
X-1912924Y1087323D01*
X-1921967Y1087882D01*
X-1924304Y1088491D01*
X-1935581Y1089456D01*
X-1935734Y1090066D01*
X-1940306Y1091285D01*
X-1940864Y1091895D01*
X-1942439Y1091336D01*
X-1957019Y1098753D01*
X-1962810Y1102512D01*
X-1964588Y1103274D01*
X-1972360Y1109522D01*
X-1978507Y1115466D01*
X-1985619Y1122832D01*
X-1986991Y1124610D01*
X-1988159Y1126744D01*
X-1988566Y1126998D01*
X-1993138Y1134008D01*
X-1994509Y1136802D01*
X-1994966Y1136954D01*
X-1995982Y1140002D01*
X-1999538Y1148994D01*
X-2001215Y1152702D01*
X-2002993Y1158443D01*
X-2005736Y1169771D01*
X-2007819Y1176578D01*
X-2008835Y1182776D01*
X-2009241Y1183386D01*
X-2012035Y1201623D01*
X-2012645Y1202690D01*
X-2013356Y1222197D01*
X-2014372Y1224178D01*
X-2050781Y1224178D01*
X-2049678Y1200048D01*
X-2048662Y1199032D01*
X-2048662Y1196340D01*
X-2047595Y1187958D01*
X-2046732Y1183335D01*
X-2045817Y1180084D01*
X-2045055Y1174699D01*
X-2042363Y1162659D01*
X-2040737Y1156970D01*
X-2040382Y1154785D01*
X-2038654Y1148943D01*
X-2037029Y1144270D01*
X-2036165Y1140968D01*
X-2033270Y1132433D01*
X-2032457Y1130960D01*
X-2029815Y1124458D01*
X-2026564Y1118311D01*
X-2025294Y1115466D01*
X-2020925Y1108506D01*
X-2017166Y1103325D01*
X-2010867Y1095248D01*
X-2003755Y1087729D01*
X-1997608Y1082040D01*
X-1991309Y1076909D01*
X-1980844Y1069746D01*
X-1977389Y1067968D01*
X-1976932Y1067460D01*
X-1973986Y1065682D01*
X-1961591Y1059484D01*
X-1957171Y1057859D01*
X-1955444Y1056995D01*
X-1950161Y1055319D01*
X-1947164Y1054658D01*
X-1946605Y1054252D01*
X-1936902Y1052372D01*
X-1924812Y1051306D01*
X-1906778Y1050188D01*
X-1869541Y1050848D01*
X-1864664Y1036726D01*
X-1858111Y1026363D01*
X-1853996Y1020927D01*
X-1850389Y1016914D01*
X-1847240Y1014730D01*
X-1846275Y1013256D01*
X-1846884Y1011631D01*
X-1885696Y1011986D01*
X-1903679Y1012393D01*
X-1917090Y1013104D01*
X-1927555Y1014171D01*
X-1945944Y1016609D01*
X-1948738Y1017320D01*
X-1952243Y1017778D01*
X-1959559Y1019251D01*
X-1963115Y1019708D01*
X-1964740Y1020470D01*
X-1968550Y1021283D01*
X-1981149Y1025702D01*
X-1982876Y1026058D01*
X-1984248Y1026972D01*
X-1994052Y1031341D01*
X-2005228Y1037488D01*
X-2015032Y1044448D01*
X-2021992Y1049731D01*
X-2032304Y1059688D01*
X-2040432Y1067968D01*
X-2050592Y1081278D01*
X-2054555Y1086764D01*
X-2061921Y1098550D01*
X-2064359Y1103122D01*
X-2067712Y1108608D01*
X-2076196Y1125575D01*
X-2079294Y1132382D01*
X-2080006Y1134364D01*
X-2083663Y1142288D01*
X-2084832Y1145590D01*
X-2090521Y1159560D01*
X-2091842Y1162304D01*
X-2092706Y1165402D01*
X-2094026Y1168755D01*
X-2094382Y1170686D01*
X-2095398Y1172972D01*
X-2096973Y1178204D01*
X-2097278Y1180439D01*
X-2097582Y1181303D01*
X-2097989Y1181760D01*
X-2100072Y1191310D01*
X-2102307Y1203502D01*
X-2103170Y1207160D01*
X-2104999Y1224483D01*
X-2105812Y1234389D01*
X-2106269Y1279753D01*
X-2142979Y1279753D01*
X-2143658Y1256538D01*
X-2142794Y1229969D01*
X-2141778Y1215542D01*
X-2140305Y1204061D01*
X-2138172Y1190396D01*
X-2137156Y1185722D01*
X-2137511Y1184452D01*
X-2135936Y1181354D01*
X-2137664Y1180693D01*
X-2165604Y1209700D01*
X-2168753Y1213561D01*
X-2190343Y1237183D01*
X-2192629Y1240180D01*
X-2199995Y1248206D01*
X-2201672Y1250594D01*
X-2215083Y1266850D01*
X-2218537Y1271371D01*
X-2228037Y1285087D01*
X-2231440Y1291082D01*
X-2236622Y1301445D01*
X-2239010Y1306779D01*
X-2239619Y1309065D01*
X-2240788Y1311757D01*
X-2241702Y1314958D01*
X-2242870Y1317904D01*
X-2243074Y1321155D01*
X-2244648Y1322476D01*
X-2244648Y1329131D01*
X-2245715Y1329791D01*
X-2245817Y1333804D01*
X-2246122Y1336344D01*
X-2246934Y1339545D01*
X-2247138Y1354836D01*
X-2275384Y1354836D01*
X-2275433Y1344879D01*
X-2275078Y1336090D01*
X-2273655Y1327353D01*
X-2272893Y1320952D01*
X-2271064Y1313992D01*
X-2267661Y1303426D01*
X-2263800Y1293164D01*
X-2260295Y1285240D01*
X-2256993Y1278483D01*
X-2254758Y1274927D01*
X-2254097Y1273302D01*
X-2251303Y1268628D01*
X-2249982Y1266901D01*
X-2249474Y1265580D01*
X-2248357Y1264310D01*
X-2245715Y1260144D01*
X-2242108Y1255826D01*
X-2240635Y1253337D01*
X-2233828Y1244295D01*
X-2230475Y1240282D01*
X-2229662Y1238859D01*
X-2213457Y1219911D01*
X-2186736Y1190650D01*
X-2185924Y1189532D01*
X-2152802Y1154785D01*
X-2098700Y1100632D01*
X-2094941Y1097127D01*
X-2090724Y1089710D01*
X-2081682Y1075080D01*
X-2081377Y1074267D01*
X-2080666Y1073962D01*
X-2078431Y1070356D01*
X-2074011Y1064158D01*
X-2068830Y1057452D01*
X-2058568Y1045464D01*
X-2051304Y1038250D01*
X-2042617Y1030325D01*
X-2034489Y1023569D01*
X-2028952Y1019454D01*
X-2026564Y1018184D01*
X-2022906Y1015441D01*
X-2021738Y1015085D01*
X-2021484Y1014679D01*
X-2012035Y1009192D01*
X-1997710Y1002131D01*
X-1984349Y997000D01*
X-1960118Y990447D01*
X-1925320Y985672D01*
X-1900529Y983945D01*
X-1852879Y982980D01*
X-1810105Y984453D01*
X-1747062Y989482D01*
X-1723389Y992073D01*
X-1716582Y993140D01*
X-1703527Y994765D01*
X-1687525Y997102D01*
X-1653641Y1003503D01*
X-1643634Y1006348D01*
X-1633321Y1008887D01*
X-1616303Y1014323D01*
X-1605026Y1019048D01*
X-1593799Y1024534D01*
X-1582064Y1030833D01*
X-1570888Y1037793D01*
X-1561338Y1044854D01*
X-1551432Y1053134D01*
X-1541830Y1061923D01*
X-1533194Y1070762D01*
X-1520139Y1086358D01*
X-1506016Y1105052D01*
X-1497787Y1118666D01*
X-1493215Y1127556D01*
X-1491792Y1129690D01*
X-1486306Y1144524D01*
X-1484680Y1148435D01*
X-1480718Y1162659D01*
X-1478686Y1171600D01*
X-1476146Y1191056D01*
X-1476095Y1222756D01*
X-1477924Y1236167D01*
X-1479194Y1243787D01*
X-1481124Y1250696D01*
X-1485087Y1263446D01*
X-1488541Y1271778D01*
X-1491386Y1277975D01*
X-1496517Y1287678D01*
X-1499412Y1292504D01*
X-1499768Y1293622D01*
X-1500378Y1293876D01*
X-1500886Y1295044D01*
X-1504543Y1301089D01*
X-1510690Y1310538D01*
X-1518310Y1320749D01*
X-1519885Y1322273D01*
X-1521104Y1323848D01*
X-1522222Y1325778D01*
X-1528267Y1332992D01*
X-1530400Y1335887D01*
X-1554581Y1361795D01*
X-1554581Y1364640D01*
X-1553819Y1364742D01*
X-1553362Y1365402D01*
X-1553057Y1366469D01*
X-1552244Y1367332D01*
X-1550314Y1372006D01*
X-1548587Y1377137D01*
X-1547926Y1379931D01*
X-1546453Y1384249D01*
X-1543354Y1395526D01*
X-1542491Y1397965D01*
X-1540408Y1406601D01*
X-1539494Y1409039D01*
X-1538935Y1412900D01*
X-1537309Y1420114D01*
X-1535836Y1425397D01*
X-1531823Y1450238D01*
X-1531264Y1452575D01*
X-1530705Y1482191D01*
X-1532026Y1493367D01*
X-1533753Y1501952D01*
X-1535836Y1508607D01*
X-1541272Y1523949D01*
X-1546098Y1534515D01*
X-1552244Y1547114D01*
X-1559712Y1559763D01*
X-1562354Y1563522D01*
X-1562963Y1565249D01*
X-1572006Y1577949D01*
X-1572158Y1578559D01*
X-1576679Y1584553D01*
X-1583182Y1592376D01*
X-1599133Y1609902D01*
X-1607464Y1617776D01*
X-1620621Y1629308D01*
X-1639925Y1643481D01*
X-1652574Y1651965D01*
X-1657959Y1655165D01*
X-1660398Y1656334D01*
X-1666595Y1660093D01*
X-1682445Y1668475D01*
X-1693164Y1673707D01*
X-1705406Y1678939D01*
X-1706829Y1679295D01*
X-1708099Y1680108D01*
X-1715516Y1683156D01*
X-1737969Y1691030D01*
X-1741424Y1691843D01*
X-1743862Y1692706D01*
X-1752701Y1695094D01*
X-1757222Y1696516D01*
X-1776882Y1700530D01*
X-1790903Y1702816D01*
X-1797862Y1703730D01*
X-1822399Y1706118D01*
G37*
M02*
