G04 Layer: TopSilkscreenLayer*
G04 EasyEDA v6.5.42, 2024-06-07 11:44:59*
G04 8452c85e2a7e40808aef99803c7b0139,2402692d15bd446891542ced5281a4ad,10*
G04 Gerber Generator version 0.2*
G04 Scale: 100 percent, Rotated: No, Reflected: No *
G04 Dimensions in millimeters *
G04 leading zeros omitted , absolute positions ,4 integer and 5 decimal *
%FSLAX45Y45*%
%MOMM*%

%ADD10C,0.2032*%
%ADD11C,0.1524*%
%ADD12C,0.1501*%
%ADD13C,0.2540*%
%ADD14C,0.1001*%
%ADD15C,0.2286*%
%ADD16C,0.0153*%

%LPD*%
G36*
X-1851609Y1714906D02*
G01*
X-1856790Y1714093D01*
X-1863750Y1711198D01*
X-1873300Y1703984D01*
X-1880565Y1690268D01*
X-1883308Y1682496D01*
X-1886661Y1665122D01*
X-1888489Y1636928D01*
X-1886610Y1603603D01*
X-1880819Y1569567D01*
X-1878520Y1559610D01*
X-1839975Y1559610D01*
X-1834997Y1567840D01*
X-1829663Y1580845D01*
X-1826666Y1593240D01*
X-1827479Y1619046D01*
X-1828800Y1622958D01*
X-1825396Y1622958D01*
X-1820164Y1615592D01*
X-1815592Y1605483D01*
X-1812493Y1606042D01*
X-1810918Y1618183D01*
X-1813915Y1633829D01*
X-1819249Y1647748D01*
X-1820773Y1649374D01*
X-1820773Y1651660D01*
X-1817776Y1651660D01*
X-1812137Y1645107D01*
X-1807311Y1635251D01*
X-1804365Y1634439D01*
X-1803400Y1637030D01*
X-1803400Y1645666D01*
X-1807768Y1658772D01*
X-1814830Y1672894D01*
X-1816303Y1674723D01*
X-1818132Y1679448D01*
X-1816709Y1679448D01*
X-1808835Y1674215D01*
X-1800758Y1667103D01*
X-1793087Y1657146D01*
X-1786077Y1643380D01*
X-1782572Y1632102D01*
X-1782572Y1613662D01*
X-1785823Y1603451D01*
X-1786833Y1601571D01*
X-1467307Y1601571D01*
X-1467307Y1610614D01*
X-1464716Y1617878D01*
X-1461109Y1622552D01*
X-1451254Y1632610D01*
X-1442415Y1638503D01*
X-1429512Y1645412D01*
X-1426260Y1645564D01*
X-1428648Y1642516D01*
X-1440281Y1630375D01*
X-1444701Y1624380D01*
X-1444701Y1620570D01*
X-1442161Y1618488D01*
X-1430985Y1624736D01*
X-1428648Y1624584D01*
X-1430832Y1623720D01*
X-1430832Y1621586D01*
X-1435658Y1616456D01*
X-1440840Y1609496D01*
X-1443990Y1603451D01*
X-1443431Y1597355D01*
X-1439875Y1596847D01*
X-1434744Y1602079D01*
X-1431493Y1602130D01*
X-1432763Y1599082D01*
X-1436166Y1584350D01*
X-1435404Y1556105D01*
X-1437030Y1556105D01*
X-1444396Y1561388D01*
X-1450594Y1569567D01*
X-1458366Y1581708D01*
X-1464462Y1593342D01*
X-1467307Y1601571D01*
X-1786833Y1601571D01*
X-1790141Y1595323D01*
X-1798167Y1584960D01*
X-1811629Y1573733D01*
X-1825548Y1564233D01*
X-1836166Y1557832D01*
X-1838909Y1557832D01*
X-1839975Y1559610D01*
X-1878520Y1559610D01*
X-1876348Y1548942D01*
X-1876348Y1538630D01*
X-1879142Y1526133D01*
X-1888439Y1507032D01*
X-1899615Y1487068D01*
X-1906320Y1475790D01*
X-1925167Y1446225D01*
X-1931924Y1436725D01*
X-1929536Y1434338D01*
X-1889810Y1455318D01*
X-1863750Y1468170D01*
X-1841195Y1478635D01*
X-1824685Y1485595D01*
X-1799488Y1495196D01*
X-1755190Y1510792D01*
X-1737817Y1515973D01*
X-1716125Y1521104D01*
X-1688134Y1525727D01*
X-1661414Y1527556D01*
X-1636217Y1526438D01*
X-1621434Y1524000D01*
X-1609293Y1521104D01*
X-1598879Y1517954D01*
X-1584350Y1512671D01*
X-1568450Y1504950D01*
X-1564132Y1504442D01*
X-1563573Y1513992D01*
X-1566367Y1533956D01*
X-1568958Y1546098D01*
X-1571650Y1556562D01*
X-1576832Y1572158D01*
X-1584401Y1590344D01*
X-1583385Y1591970D01*
X-1581302Y1589125D01*
X-1579524Y1589125D01*
X-1569262Y1577390D01*
X-1553565Y1557426D01*
X-1540611Y1538325D01*
X-1531569Y1523085D01*
X-1519834Y1501089D01*
X-1517040Y1499412D01*
X-1505051Y1505102D01*
X-1494637Y1507388D01*
X-1484071Y1507490D01*
X-1465630Y1504899D01*
X-1457299Y1502867D01*
X-1439062Y1497126D01*
X-1431239Y1494332D01*
X-1405178Y1481531D01*
X-1384350Y1469085D01*
X-1365250Y1456436D01*
X-1361338Y1455267D01*
X-1360220Y1458061D01*
X-1363522Y1464411D01*
X-1370888Y1477111D01*
X-1370888Y1477924D01*
X-1378000Y1489659D01*
X-1384198Y1499209D01*
X-1392072Y1509623D01*
X-1403197Y1522476D01*
X-1402283Y1527098D01*
X-1394663Y1540052D01*
X-1387500Y1554937D01*
X-1379423Y1576527D01*
X-1376832Y1585214D01*
X-1374343Y1594764D01*
X-1370888Y1615592D01*
X-1370939Y1639925D01*
X-1374241Y1659889D01*
X-1377645Y1667865D01*
X-1383334Y1674317D01*
X-1390446Y1677974D01*
X-1404721Y1677873D01*
X-1431239Y1669135D01*
X-1462532Y1655724D01*
X-1482445Y1645361D01*
X-1499666Y1634286D01*
X-1505153Y1633270D01*
X-1529384Y1641144D01*
X-1538071Y1643684D01*
X-1548485Y1646377D01*
X-1557172Y1648155D01*
X-1577136Y1651507D01*
X-1622298Y1654454D01*
X-1650085Y1653539D01*
X-1697024Y1651609D01*
X-1726946Y1648917D01*
X-1735226Y1646224D01*
X-1740966Y1640789D01*
X-1740154Y1631238D01*
X-1738934Y1626412D01*
X-1742236Y1627733D01*
X-1748434Y1634693D01*
X-1765046Y1659026D01*
X-1783181Y1680718D01*
X-1796897Y1692960D01*
X-1803806Y1698243D01*
X-1816862Y1705965D01*
X-1829866Y1711350D01*
X-1838553Y1714195D01*
G37*
G36*
X-1549806Y1523288D02*
G01*
X-1549857Y1447088D01*
X-1551381Y1430629D01*
X-1554073Y1411478D01*
X-1557020Y1405432D01*
X-1558899Y1404162D01*
X-1560068Y1404112D01*
X-1564741Y1414119D01*
X-1569516Y1423670D01*
X-1579575Y1441907D01*
X-1584553Y1449374D01*
X-1584553Y1450035D01*
X-1596440Y1467967D01*
X-1603857Y1477314D01*
X-1616252Y1490319D01*
X-1630375Y1501394D01*
X-1632966Y1501394D01*
X-1633931Y1498904D01*
X-1630375Y1494383D01*
X-1624533Y1486204D01*
X-1619300Y1475435D01*
X-1620926Y1471117D01*
X-1624685Y1469085D01*
X-1635353Y1471930D01*
X-1680362Y1471879D01*
X-1696161Y1469237D01*
X-1710029Y1466392D01*
X-1731721Y1460652D01*
X-1752600Y1453540D01*
X-1772564Y1445666D01*
X-1795119Y1435811D01*
X-1804963Y1430985D01*
X-1690776Y1430985D01*
X-1686153Y1437030D01*
X-1686153Y1439367D01*
X-1676755Y1448409D01*
X-1674317Y1448409D01*
X-1669338Y1453642D01*
X-1659128Y1453642D01*
X-1654454Y1451254D01*
X-1647596Y1449984D01*
X-1640890Y1446580D01*
X-1639976Y1444142D01*
X-1634032Y1440637D01*
X-1634032Y1437335D01*
X-1631442Y1435150D01*
X-1631442Y1432255D01*
X-1626209Y1427226D01*
X-1626209Y1424330D01*
X-1623517Y1422095D01*
X-1623872Y1412240D01*
X-1622704Y1410258D01*
X-1628851Y1403451D01*
X-1633626Y1401572D01*
X-1646986Y1398930D01*
X-1656181Y1398930D01*
X-1669288Y1402130D01*
X-1673555Y1404569D01*
X-1680514Y1409750D01*
X-1684832Y1414830D01*
X-1688541Y1421079D01*
X-1690776Y1430985D01*
X-1804963Y1430985D01*
X-1854758Y1406702D01*
X-1856892Y1406702D01*
X-1858518Y1405178D01*
X-1871573Y1399590D01*
X-1878398Y1397355D01*
X-1485595Y1397355D01*
X-1483360Y1400048D01*
X-1482496Y1419606D01*
X-1478432Y1423924D01*
X-1470660Y1426514D01*
X-1463700Y1424736D01*
X-1460804Y1427632D01*
X-1458823Y1424990D01*
X-1455369Y1424990D01*
X-1453184Y1422349D01*
X-1450136Y1422349D01*
X-1447952Y1419758D01*
X-1445666Y1419758D01*
X-1441246Y1414983D01*
X-1441246Y1413154D01*
X-1439214Y1411122D01*
X-1436928Y1404569D01*
X-1436878Y1396847D01*
X-1440738Y1388922D01*
X-1448917Y1381099D01*
X-1454708Y1378305D01*
X-1461922Y1375257D01*
X-1474673Y1375968D01*
X-1485087Y1381150D01*
X-1485595Y1397355D01*
X-1878398Y1397355D01*
X-1894789Y1391920D01*
X-1917598Y1386078D01*
X-1945386Y1380794D01*
X-1961896Y1379372D01*
X-1961896Y1375968D01*
X-1945386Y1370431D01*
X-1932381Y1367688D01*
X-1905609Y1365808D01*
X-1900529Y1366926D01*
X-1902409Y1363421D01*
X-1912366Y1360373D01*
X-1939289Y1359204D01*
X-1939594Y1358950D01*
X-1938680Y1355598D01*
X-1927148Y1352296D01*
X-1896770Y1346657D01*
X-1872589Y1347216D01*
X-1871929Y1345336D01*
X-1884019Y1339900D01*
X-1899361Y1336497D01*
X-1910232Y1335328D01*
X-1911959Y1332179D01*
X-1908911Y1331264D01*
X-1895500Y1328572D01*
X-1887016Y1328572D01*
X-1877669Y1326743D01*
X-1811629Y1325118D01*
X-1793392Y1322679D01*
X-1782114Y1320596D01*
X-1756105Y1314450D01*
X-1752600Y1313129D01*
X-1742186Y1310081D01*
X-1736089Y1307896D01*
X-1710029Y1299972D01*
X-1699615Y1297432D01*
X-1687423Y1295146D01*
X-1669237Y1295146D01*
X-1657908Y1297533D01*
X-1647494Y1300886D01*
X-1637283Y1306068D01*
X-1627632Y1312265D01*
X-1585823Y1354378D01*
X-1578000Y1359458D01*
X-1571447Y1362405D01*
X-1562303Y1363522D01*
X-1551076Y1360627D01*
X-1543304Y1356868D01*
X-1535480Y1351686D01*
X-1524609Y1340459D01*
X-1524609Y1338326D01*
X-1522018Y1336192D01*
X-1522018Y1329182D01*
X-1534668Y1315923D01*
X-1541830Y1306423D01*
X-1547876Y1294231D01*
X-1549095Y1286865D01*
X-1547926Y1278382D01*
X-1538630Y1264462D01*
X-1534922Y1256030D01*
X-1534871Y1247648D01*
X-1538935Y1243279D01*
X-1545132Y1240129D01*
X-1555699Y1237386D01*
X-1570228Y1237386D01*
X-1581505Y1240637D01*
X-1601470Y1249273D01*
X-1605788Y1250543D01*
X-1611020Y1252880D01*
X-1630984Y1258112D01*
X-1645767Y1260805D01*
X-1666798Y1261059D01*
X-1668983Y1259687D01*
X-1666392Y1258265D01*
X-1649222Y1254912D01*
X-1627632Y1247648D01*
X-1612747Y1240688D01*
X-1594510Y1231442D01*
X-1584960Y1227023D01*
X-1568450Y1221841D01*
X-1551584Y1218946D01*
X-1526794Y1219606D01*
X-1513281Y1226159D01*
X-1504188Y1237183D01*
X-1500987Y1247343D01*
X-1499717Y1249984D01*
X-1493774Y1252880D01*
X-1486814Y1255776D01*
X-1476400Y1261262D01*
X-1468577Y1266748D01*
X-1462176Y1273403D01*
X-1458214Y1282090D01*
X-1458163Y1295146D01*
X-1462430Y1303426D01*
X-1477264Y1319377D01*
X-1482394Y1327251D01*
X-1484884Y1331620D01*
X-1489862Y1341475D01*
X-1489862Y1344218D01*
X-1486814Y1344218D01*
X-1472082Y1332433D01*
X-1462836Y1325880D01*
X-1448358Y1318310D01*
X-1434744Y1313688D01*
X-1420825Y1311910D01*
X-1408684Y1313027D01*
X-1399997Y1315669D01*
X-1393037Y1318514D01*
X-1364691Y1335532D01*
X-1347876Y1343253D01*
X-1337462Y1346657D01*
X-1332687Y1347724D01*
X-1332687Y1351026D01*
X-1338326Y1352194D01*
X-1349146Y1355699D01*
X-1348333Y1356969D01*
X-1336598Y1358036D01*
X-1323441Y1360474D01*
X-1313535Y1365148D01*
X-1311656Y1368755D01*
X-1313992Y1370228D01*
X-1325372Y1370228D01*
X-1335633Y1372920D01*
X-1341475Y1376527D01*
X-1340053Y1377899D01*
X-1323543Y1378712D01*
X-1316278Y1381760D01*
X-1315262Y1384350D01*
X-1317193Y1386636D01*
X-1327048Y1388567D01*
X-1335735Y1392377D01*
X-1350467Y1401267D01*
X-1378254Y1419504D01*
X-1399997Y1432458D01*
X-1420266Y1442313D01*
X-1430375Y1445869D01*
X-1445920Y1450238D01*
X-1460754Y1452880D01*
X-1482496Y1453184D01*
X-1483360Y1475282D01*
X-1487119Y1479042D01*
X-1489811Y1473758D01*
X-1495196Y1453184D01*
X-1502714Y1417828D01*
X-1505356Y1415186D01*
X-1517548Y1452321D01*
X-1529842Y1486204D01*
X-1535226Y1499209D01*
X-1545894Y1520748D01*
G37*
G36*
X-1335735Y1314653D02*
G01*
X-1343507Y1314500D01*
X-1351432Y1312316D01*
X-1360576Y1307744D01*
X-1370736Y1299921D01*
X-1383487Y1288338D01*
X-1409547Y1262989D01*
X-1432102Y1241856D01*
X-1451254Y1226515D01*
X-1463903Y1217879D01*
X-1461109Y1215796D01*
X-1455572Y1217523D01*
X-1442516Y1221028D01*
X-1430375Y1222654D01*
X-1410716Y1223670D01*
X-1396492Y1221638D01*
X-1380032Y1216152D01*
X-1369568Y1210157D01*
X-1356817Y1200759D01*
X-1341221Y1184808D01*
X-1330248Y1168349D01*
X-1324965Y1156868D01*
X-1319682Y1140510D01*
X-1316736Y1124915D01*
X-1316685Y1096264D01*
X-1319784Y1080617D01*
X-1324711Y1063904D01*
X-1329029Y1054557D01*
X-1330096Y1050899D01*
X-1329029Y1048054D01*
X-1327556Y1048054D01*
X-1322425Y1055471D01*
X-1311148Y1078026D01*
X-1305052Y1093622D01*
X-1298651Y1112723D01*
X-1291031Y1139647D01*
X-1284986Y1166571D01*
X-1282750Y1183944D01*
X-1282750Y1229106D01*
X-1284986Y1243888D01*
X-1287627Y1254302D01*
X-1290370Y1263853D01*
X-1296314Y1278382D01*
X-1300784Y1286459D01*
X-1308506Y1298041D01*
X-1319225Y1308354D01*
X-1327048Y1312316D01*
G37*
G36*
X-1892401Y1299768D02*
G01*
X-1906320Y1297178D01*
X-1916734Y1294485D01*
X-1929739Y1290116D01*
X-1940204Y1285849D01*
X-1951685Y1280210D01*
X-1972767Y1267409D01*
X-1982317Y1259941D01*
X-1982317Y1256487D01*
X-1980133Y1256487D01*
X-1963166Y1260805D01*
X-1943303Y1260805D01*
X-1942338Y1259230D01*
X-1947418Y1255623D01*
X-1948738Y1255623D01*
X-1959305Y1247394D01*
X-1966874Y1239520D01*
X-1972868Y1232255D01*
X-1972310Y1228242D01*
X-1961032Y1228191D01*
X-1954072Y1226718D01*
X-1946656Y1222451D01*
X-1938782Y1213510D01*
X-1931060Y1197559D01*
X-1931060Y1195730D01*
X-1923948Y1179626D01*
X-1917395Y1166571D01*
X-1914143Y1161237D01*
X-1906371Y1151839D01*
X-1894941Y1141628D01*
X-1887677Y1137716D01*
X-1885442Y1135989D01*
X-1873554Y1131265D01*
X-1861159Y1127963D01*
X-1843786Y1127963D01*
X-1830730Y1131214D01*
X-1814575Y1138428D01*
X-1805787Y1144473D01*
X-1795068Y1154430D01*
X-1787956Y1163116D01*
X-1780082Y1177036D01*
X-1774952Y1190904D01*
X-1772107Y1203909D01*
X-1772107Y1220520D01*
X-1775714Y1236878D01*
X-1780032Y1247698D01*
X-1785416Y1257757D01*
X-1793138Y1267866D01*
X-1808632Y1281379D01*
X-1825548Y1290218D01*
X-1837689Y1294485D01*
X-1855063Y1299210D01*
G37*
G36*
X-1763369Y1267764D02*
G01*
X-1764995Y1264869D01*
X-1758035Y1257757D01*
X-1748637Y1245209D01*
X-1739544Y1227378D01*
X-1731010Y1200454D01*
X-1728724Y1189177D01*
X-1726133Y1158798D01*
X-1726082Y1142288D01*
X-1727911Y1127506D01*
X-1730603Y1112723D01*
X-1734007Y1101445D01*
X-1735632Y1098448D01*
X-1735632Y1096518D01*
X-1744116Y1079550D01*
X-1752142Y1067409D01*
X-1762912Y1055624D01*
X-1778101Y1043889D01*
X-1796135Y1035202D01*
X-1810766Y1031697D01*
X-1827275Y1029868D01*
X-1849882Y1032306D01*
X-1863445Y1036777D01*
X-1875028Y1043025D01*
X-1883714Y1049274D01*
X-1895652Y1060653D01*
X-1906422Y1073658D01*
X-1913839Y1085240D01*
X-1917141Y1086104D01*
X-1917141Y1081989D01*
X-1906422Y1062380D01*
X-1903272Y1057148D01*
X-1902104Y1054557D01*
X-1889252Y1034796D01*
X-1873961Y1014628D01*
X-1856333Y996899D01*
X-1845767Y988974D01*
X-1831593Y981354D01*
X-1819452Y977036D01*
X-1811223Y975868D01*
X-1808480Y973124D01*
X-1810410Y971905D01*
X-1828292Y972718D01*
X-1832152Y970635D01*
X-1831593Y967130D01*
X-1811629Y956665D01*
X-1795119Y950010D01*
X-1782114Y946556D01*
X-1769973Y944676D01*
X-1759254Y942543D01*
X-1758086Y941374D01*
X-1762150Y938682D01*
X-1780997Y932230D01*
X-1782318Y928624D01*
X-1777542Y925576D01*
X-1764690Y922172D01*
X-1749298Y919530D01*
X-1726742Y919530D01*
X-1709166Y922274D01*
X-1697024Y925474D01*
X-1684832Y929944D01*
X-1669237Y937869D01*
X-1652219Y949248D01*
X-1634439Y966825D01*
X-1626463Y977239D01*
X-1621485Y985062D01*
X-1616862Y994613D01*
X-1612493Y1005027D01*
X-1605432Y1025906D01*
X-1601012Y1043279D01*
X-1597558Y1066393D01*
X-1597558Y1090168D01*
X-1601012Y1112723D01*
X-1605432Y1129233D01*
X-1608226Y1137056D01*
X-1613611Y1150975D01*
X-1623466Y1170432D01*
X-1634794Y1187450D01*
X-1637944Y1190904D01*
X-1644650Y1199591D01*
X-1667967Y1222451D01*
X-1687423Y1237081D01*
X-1702206Y1245920D01*
X-1714347Y1252270D01*
X-1729993Y1258925D01*
X-1746453Y1264361D01*
X-1759051Y1267764D01*
G37*
G36*
X-1530248Y1188364D02*
G01*
X-1545031Y1187958D01*
X-1572818Y1186027D01*
X-1600555Y1186586D01*
X-1601114Y1183741D01*
X-1596237Y1181862D01*
X-1584096Y1175207D01*
X-1569313Y1165402D01*
X-1562354Y1160526D01*
X-1549196Y1149756D01*
X-1530908Y1130554D01*
X-1519631Y1113586D01*
X-1514246Y1104036D01*
X-1506677Y1086713D01*
X-1502054Y1071930D01*
X-1499158Y1057148D01*
X-1498396Y1028496D01*
X-1501292Y1010259D01*
X-1503934Y998118D01*
X-1509166Y982471D01*
X-1511757Y976376D01*
X-1518005Y963371D01*
X-1524812Y952093D01*
X-1535684Y938174D01*
X-1548587Y925931D01*
X-1559763Y917956D01*
X-1572818Y910945D01*
X-1587550Y904544D01*
X-1606702Y899566D01*
X-1625803Y897077D01*
X-1637944Y895959D01*
X-1641093Y895045D01*
X-1639214Y892759D01*
X-1627530Y890473D01*
X-1596237Y890574D01*
X-1579778Y893470D01*
X-1566722Y896264D01*
X-1543304Y903630D01*
X-1525066Y912621D01*
X-1521561Y914704D01*
X-1505204Y926795D01*
X-1491691Y940358D01*
X-1490726Y940358D01*
X-1490726Y936802D01*
X-1496263Y926896D01*
X-1500530Y918667D01*
X-1498346Y916025D01*
X-1494586Y916025D01*
X-1481632Y924966D01*
X-1472082Y932332D01*
X-1457807Y946861D01*
X-1451152Y955802D01*
X-1446072Y963777D01*
X-1443837Y963777D01*
X-1443837Y960932D01*
X-1449171Y949706D01*
X-1448257Y947318D01*
X-1445615Y947318D01*
X-1433830Y957427D01*
X-1421841Y970330D01*
X-1412748Y984199D01*
X-1406550Y997254D01*
X-1399743Y1018946D01*
X-1396542Y1036319D01*
X-1396593Y1074521D01*
X-1399743Y1087577D01*
X-1405026Y1104950D01*
X-1415389Y1126642D01*
X-1420368Y1134110D01*
X-1420368Y1135024D01*
X-1432966Y1150924D01*
X-1445768Y1163523D01*
X-1462532Y1174496D01*
X-1472133Y1179068D01*
X-1482496Y1182522D01*
X-1492046Y1185113D01*
X-1508556Y1187704D01*
G37*
D10*
X1228852Y-2374137D02*
G01*
X1215389Y-2380995D01*
X1201673Y-2394712D01*
X1194815Y-2408428D01*
X1194815Y-2435605D01*
X1201673Y-2449321D01*
X1215389Y-2462784D01*
X1228852Y-2469642D01*
X1249426Y-2476500D01*
X1283462Y-2476500D01*
X1304036Y-2469642D01*
X1317497Y-2462784D01*
X1331213Y-2449321D01*
X1338071Y-2435605D01*
X1338071Y-2408428D01*
X1331213Y-2394712D01*
X1317497Y-2380995D01*
X1304036Y-2374137D01*
X1283462Y-2374137D01*
X1283462Y-2408428D02*
G01*
X1283462Y-2374137D01*
X1194815Y-2329179D02*
G01*
X1338071Y-2329179D01*
X1194815Y-2329179D02*
G01*
X1338071Y-2233676D01*
X1194815Y-2233676D02*
G01*
X1338071Y-2233676D01*
X1194815Y-2188718D02*
G01*
X1338071Y-2188718D01*
X1194815Y-2188718D02*
G01*
X1194815Y-2140965D01*
X1201673Y-2120645D01*
X1215389Y-2106929D01*
X1228852Y-2100071D01*
X1249426Y-2093213D01*
X1283462Y-2093213D01*
X1304036Y-2100071D01*
X1317497Y-2106929D01*
X1331213Y-2120645D01*
X1338071Y-2140965D01*
X1338071Y-2188718D01*
X2477515Y-2394712D02*
G01*
X2477515Y-2462784D01*
X2538984Y-2469642D01*
X2532125Y-2462784D01*
X2525268Y-2442463D01*
X2525268Y-2421889D01*
X2532125Y-2401570D01*
X2545841Y-2387854D01*
X2566161Y-2380995D01*
X2579877Y-2380995D01*
X2600197Y-2387854D01*
X2613913Y-2401570D01*
X2620772Y-2421889D01*
X2620772Y-2442463D01*
X2613913Y-2462784D01*
X2607056Y-2469642D01*
X2593340Y-2476500D01*
X2477515Y-2336037D02*
G01*
X2620772Y-2281428D01*
X2477515Y-2227071D02*
G01*
X2620772Y-2281428D01*
X-180898Y1611287D02*
G01*
X-180898Y1468031D01*
X-180898Y1611287D02*
G01*
X-119430Y1611287D01*
X-99110Y1604429D01*
X-92252Y1597571D01*
X-85394Y1584109D01*
X-85394Y1563535D01*
X-92252Y1549819D01*
X-99110Y1542961D01*
X-119430Y1536357D01*
X-180898Y1536357D01*
X-40436Y1611287D02*
G01*
X-6400Y1468031D01*
X27635Y1611287D02*
G01*
X-6400Y1468031D01*
X27635Y1611287D02*
G01*
X61925Y1468031D01*
X95961Y1611287D02*
G01*
X61925Y1468031D01*
X140919Y1611287D02*
G01*
X140919Y1468031D01*
X140919Y1611287D02*
G01*
X195529Y1468031D01*
X249885Y1611287D02*
G01*
X195529Y1468031D01*
X249885Y1611287D02*
G01*
X249885Y1468031D01*
X301701Y1577251D02*
G01*
X301701Y1584109D01*
X308559Y1597571D01*
X315417Y1604429D01*
X329133Y1611287D01*
X356311Y1611287D01*
X370027Y1604429D01*
X376885Y1597571D01*
X383743Y1584109D01*
X383743Y1570393D01*
X376885Y1556677D01*
X363169Y1536357D01*
X295097Y1468031D01*
X390347Y1468031D01*
X317500Y1027684D02*
G01*
X317500Y884428D01*
X317500Y1027684D02*
G01*
X378968Y1027684D01*
X399287Y1020826D01*
X406145Y1013968D01*
X413004Y1000505D01*
X413004Y979931D01*
X406145Y966215D01*
X399287Y959357D01*
X378968Y952754D01*
X317500Y952754D01*
X457962Y1027684D02*
G01*
X491997Y884428D01*
X526034Y1027684D02*
G01*
X491997Y884428D01*
X526034Y1027684D02*
G01*
X560323Y884428D01*
X594360Y1027684D02*
G01*
X560323Y884428D01*
X639318Y1027684D02*
G01*
X639318Y884428D01*
X639318Y1027684D02*
G01*
X693928Y884428D01*
X748284Y1027684D02*
G01*
X693928Y884428D01*
X748284Y1027684D02*
G01*
X748284Y884428D01*
X793495Y1000505D02*
G01*
X806957Y1007110D01*
X827531Y1027684D01*
X827531Y884428D01*
X445262Y130047D02*
G01*
X438404Y143510D01*
X424687Y157226D01*
X410971Y164084D01*
X383794Y164084D01*
X370078Y157226D01*
X356615Y143510D01*
X349757Y130047D01*
X342900Y109473D01*
X342900Y75437D01*
X349757Y54863D01*
X356615Y41402D01*
X370078Y27686D01*
X383794Y20828D01*
X410971Y20828D01*
X424687Y27686D01*
X438404Y41402D01*
X445262Y54863D01*
X445262Y75437D01*
X410971Y75437D02*
G01*
X445262Y75437D01*
X490220Y164084D02*
G01*
X490220Y20828D01*
X490220Y164084D02*
G01*
X585723Y20828D01*
X585723Y164084D02*
G01*
X585723Y20828D01*
X630681Y164084D02*
G01*
X630681Y20828D01*
X630681Y164084D02*
G01*
X678434Y164084D01*
X698754Y157226D01*
X712470Y143510D01*
X719328Y130047D01*
X726186Y109473D01*
X726186Y75437D01*
X719328Y54863D01*
X712470Y41402D01*
X698754Y27686D01*
X678434Y20828D01*
X630681Y20828D01*
X99263Y1272451D02*
G01*
X92405Y1285913D01*
X78689Y1299629D01*
X64973Y1306487D01*
X37795Y1306487D01*
X24079Y1299629D01*
X10617Y1285913D01*
X3759Y1272451D01*
X-3098Y1251877D01*
X-3098Y1217841D01*
X3759Y1197267D01*
X10617Y1183805D01*
X24079Y1170089D01*
X37795Y1163231D01*
X64973Y1163231D01*
X78689Y1170089D01*
X92405Y1183805D01*
X99263Y1197267D01*
X99263Y1217841D01*
X64973Y1217841D02*
G01*
X99263Y1217841D01*
X144221Y1306487D02*
G01*
X144221Y1163231D01*
X144221Y1306487D02*
G01*
X239725Y1163231D01*
X239725Y1306487D02*
G01*
X239725Y1163231D01*
X284683Y1306487D02*
G01*
X284683Y1163231D01*
X284683Y1306487D02*
G01*
X332435Y1306487D01*
X352755Y1299629D01*
X366471Y1285913D01*
X373329Y1272451D01*
X380187Y1251877D01*
X380187Y1217841D01*
X373329Y1197267D01*
X366471Y1183805D01*
X352755Y1170089D01*
X332435Y1163231D01*
X284683Y1163231D01*
X2443988Y-1613915D02*
G01*
X2375915Y-1613915D01*
X2369058Y-1675384D01*
X2375915Y-1668526D01*
X2396236Y-1661668D01*
X2416809Y-1661668D01*
X2437129Y-1668526D01*
X2450845Y-1682242D01*
X2457704Y-1702562D01*
X2457704Y-1716278D01*
X2450845Y-1736597D01*
X2437129Y-1750313D01*
X2416809Y-1757171D01*
X2396236Y-1757171D01*
X2375915Y-1750313D01*
X2369058Y-1743455D01*
X2362200Y-1729739D01*
X2502661Y-1613915D02*
G01*
X2557272Y-1757171D01*
X2611627Y-1613915D02*
G01*
X2557272Y-1757171D01*
X1359662Y-1673352D02*
G01*
X1352804Y-1659889D01*
X1339087Y-1646173D01*
X1325371Y-1639315D01*
X1298194Y-1639315D01*
X1284478Y-1646173D01*
X1271015Y-1659889D01*
X1264157Y-1673352D01*
X1257300Y-1693926D01*
X1257300Y-1727962D01*
X1264157Y-1748536D01*
X1271015Y-1761997D01*
X1284478Y-1775713D01*
X1298194Y-1782571D01*
X1325371Y-1782571D01*
X1339087Y-1775713D01*
X1352804Y-1761997D01*
X1359662Y-1748536D01*
X1359662Y-1727962D01*
X1325371Y-1727962D02*
G01*
X1359662Y-1727962D01*
X1404620Y-1639315D02*
G01*
X1404620Y-1782571D01*
X1404620Y-1639315D02*
G01*
X1500123Y-1782571D01*
X1500123Y-1639315D02*
G01*
X1500123Y-1782571D01*
X1545081Y-1639315D02*
G01*
X1545081Y-1782571D01*
X1545081Y-1639315D02*
G01*
X1592834Y-1639315D01*
X1613154Y-1646173D01*
X1626870Y-1659889D01*
X1633728Y-1673352D01*
X1640586Y-1693926D01*
X1640586Y-1727962D01*
X1633728Y-1748536D01*
X1626870Y-1761997D01*
X1613154Y-1775713D01*
X1592834Y-1782571D01*
X1545081Y-1782571D01*
X1278889Y2178304D02*
G01*
X1265173Y2164587D01*
X1258315Y2144268D01*
X1258315Y2116836D01*
X1265173Y2096515D01*
X1278889Y2082800D01*
X1292352Y2082800D01*
X1306068Y2089657D01*
X1312926Y2096515D01*
X1319784Y2109978D01*
X1333245Y2150871D01*
X1340104Y2164587D01*
X1346962Y2171445D01*
X1360678Y2178304D01*
X1380997Y2178304D01*
X1394713Y2164587D01*
X1401571Y2144268D01*
X1401571Y2116836D01*
X1394713Y2096515D01*
X1380997Y2082800D01*
X1258315Y2223262D02*
G01*
X1401571Y2223262D01*
X1258315Y2223262D02*
G01*
X1258315Y2271013D01*
X1265173Y2291334D01*
X1278889Y2305050D01*
X1292352Y2311907D01*
X1312926Y2318765D01*
X1346962Y2318765D01*
X1367536Y2311907D01*
X1380997Y2305050D01*
X1394713Y2291334D01*
X1401571Y2271013D01*
X1401571Y2223262D01*
X1258315Y2418334D02*
G01*
X1401571Y2363723D01*
X1258315Y2418334D02*
G01*
X1401571Y2472689D01*
X1353820Y2384044D02*
G01*
X1353820Y2452370D01*
X1532889Y2191004D02*
G01*
X1519173Y2177287D01*
X1512315Y2156968D01*
X1512315Y2129536D01*
X1519173Y2109215D01*
X1532889Y2095500D01*
X1546352Y2095500D01*
X1560068Y2102357D01*
X1566926Y2109215D01*
X1573784Y2122678D01*
X1587245Y2163571D01*
X1594104Y2177287D01*
X1600962Y2184145D01*
X1614678Y2191004D01*
X1634997Y2191004D01*
X1648713Y2177287D01*
X1655571Y2156968D01*
X1655571Y2129536D01*
X1648713Y2109215D01*
X1634997Y2095500D01*
X1546352Y2338323D02*
G01*
X1532889Y2331465D01*
X1519173Y2317750D01*
X1512315Y2304034D01*
X1512315Y2276855D01*
X1519173Y2263139D01*
X1532889Y2249678D01*
X1546352Y2242820D01*
X1566926Y2235962D01*
X1600962Y2235962D01*
X1621536Y2242820D01*
X1634997Y2249678D01*
X1648713Y2263139D01*
X1655571Y2276855D01*
X1655571Y2304034D01*
X1648713Y2317750D01*
X1634997Y2331465D01*
X1621536Y2338323D01*
X1512315Y2383281D02*
G01*
X1655571Y2383281D01*
X1655571Y2383281D02*
G01*
X1655571Y2465070D01*
X1813052Y2185162D02*
G01*
X1799589Y2178304D01*
X1785873Y2164587D01*
X1779015Y2150871D01*
X1779015Y2123694D01*
X1785873Y2109978D01*
X1799589Y2096515D01*
X1813052Y2089657D01*
X1833626Y2082800D01*
X1867662Y2082800D01*
X1888236Y2089657D01*
X1901697Y2096515D01*
X1915413Y2109978D01*
X1922271Y2123694D01*
X1922271Y2150871D01*
X1915413Y2164587D01*
X1901697Y2178304D01*
X1888236Y2185162D01*
X1867662Y2185162D01*
X1867662Y2150871D02*
G01*
X1867662Y2185162D01*
X1779015Y2230120D02*
G01*
X1922271Y2230120D01*
X1779015Y2230120D02*
G01*
X1922271Y2325623D01*
X1779015Y2325623D02*
G01*
X1922271Y2325623D01*
X1779015Y2370581D02*
G01*
X1922271Y2370581D01*
X1779015Y2370581D02*
G01*
X1779015Y2418334D01*
X1785873Y2438654D01*
X1799589Y2452370D01*
X1813052Y2459228D01*
X1833626Y2466086D01*
X1867662Y2466086D01*
X1888236Y2459228D01*
X1901697Y2452370D01*
X1915413Y2438654D01*
X1922271Y2418334D01*
X1922271Y2370581D01*
X2033015Y2033015D02*
G01*
X2033015Y2107945D01*
X2087625Y2067052D01*
X2087625Y2087371D01*
X2094484Y2101087D01*
X2101341Y2107945D01*
X2121661Y2114804D01*
X2135377Y2114804D01*
X2155697Y2107945D01*
X2169413Y2094229D01*
X2176272Y2073910D01*
X2176272Y2053336D01*
X2169413Y2033015D01*
X2162556Y2026157D01*
X2148840Y2019300D01*
X2142236Y2166620D02*
G01*
X2148840Y2159762D01*
X2155697Y2166620D01*
X2148840Y2173478D01*
X2142236Y2166620D01*
X2033015Y2232152D02*
G01*
X2033015Y2307081D01*
X2087625Y2266187D01*
X2087625Y2286507D01*
X2094484Y2300223D01*
X2101341Y2307081D01*
X2121661Y2313939D01*
X2135377Y2313939D01*
X2155697Y2307081D01*
X2169413Y2293365D01*
X2176272Y2273045D01*
X2176272Y2252471D01*
X2169413Y2232152D01*
X2162556Y2225294D01*
X2148840Y2218436D01*
X2033015Y2358897D02*
G01*
X2176272Y2413507D01*
X2033015Y2467863D02*
G01*
X2176272Y2413507D01*
X-2540000Y1929384D02*
G01*
X-2540000Y1786128D01*
X-2540000Y1786128D02*
G01*
X-2458212Y1786128D01*
X-2413254Y1840737D02*
G01*
X-2331465Y1840737D01*
X-2331465Y1854454D01*
X-2338070Y1867915D01*
X-2344928Y1874773D01*
X-2358644Y1881631D01*
X-2379218Y1881631D01*
X-2392679Y1874773D01*
X-2406395Y1861057D01*
X-2413254Y1840737D01*
X-2413254Y1827021D01*
X-2406395Y1806702D01*
X-2392679Y1792986D01*
X-2379218Y1786128D01*
X-2358644Y1786128D01*
X-2344928Y1792986D01*
X-2331465Y1806702D01*
X-2286254Y1929384D02*
G01*
X-2286254Y1786128D01*
X-2286254Y1929384D02*
G01*
X-2225039Y1929384D01*
X-2204465Y1922526D01*
X-2197607Y1915668D01*
X-2191004Y1902205D01*
X-2191004Y1888489D01*
X-2197607Y1874773D01*
X-2204465Y1867915D01*
X-2225039Y1861057D01*
X-2286254Y1861057D01*
X-2238755Y1861057D02*
G01*
X-2191004Y1786128D01*
X-2064004Y1881631D02*
G01*
X-2064004Y1786128D01*
X-2064004Y1861057D02*
G01*
X-2077720Y1874773D01*
X-2091436Y1881631D01*
X-2111755Y1881631D01*
X-2125471Y1874773D01*
X-2139187Y1861057D01*
X-2145792Y1840737D01*
X-2145792Y1827021D01*
X-2139187Y1806702D01*
X-2125471Y1792986D01*
X-2111755Y1786128D01*
X-2091436Y1786128D01*
X-2077720Y1792986D01*
X-2064004Y1806702D01*
X-1998726Y1929384D02*
G01*
X-1998726Y1813560D01*
X-1991868Y1792986D01*
X-1978152Y1786128D01*
X-1964436Y1786128D01*
X-2019045Y1881631D02*
G01*
X-1971294Y1881631D01*
X-1885442Y1881631D02*
G01*
X-1899157Y1874773D01*
X-1912620Y1861057D01*
X-1919478Y1840737D01*
X-1919478Y1827021D01*
X-1912620Y1806702D01*
X-1899157Y1792986D01*
X-1885442Y1786128D01*
X-1865121Y1786128D01*
X-1851405Y1792986D01*
X-1837689Y1806702D01*
X-1830831Y1827021D01*
X-1830831Y1840737D01*
X-1837689Y1861057D01*
X-1851405Y1874773D01*
X-1865121Y1881631D01*
X-1885442Y1881631D01*
X-1785873Y1881631D02*
G01*
X-1785873Y1786128D01*
X-1785873Y1854454D02*
G01*
X-1765554Y1874773D01*
X-1751837Y1881631D01*
X-1731263Y1881631D01*
X-1717802Y1874773D01*
X-1710944Y1854454D01*
X-1710944Y1786128D01*
X-1553971Y1895347D02*
G01*
X-1553971Y1902205D01*
X-1547368Y1915668D01*
X-1540510Y1922526D01*
X-1526794Y1929384D01*
X-1499615Y1929384D01*
X-1485900Y1922526D01*
X-1479042Y1915668D01*
X-1472184Y1902205D01*
X-1472184Y1888489D01*
X-1479042Y1874773D01*
X-1492757Y1854454D01*
X-1560829Y1786128D01*
X-1465579Y1786128D01*
X-1379473Y1929384D02*
G01*
X-1400047Y1922526D01*
X-1413763Y1902205D01*
X-1420368Y1867915D01*
X-1420368Y1847595D01*
X-1413763Y1813560D01*
X-1400047Y1792986D01*
X-1379473Y1786128D01*
X-1366012Y1786128D01*
X-1345437Y1792986D01*
X-1331721Y1813560D01*
X-1325118Y1847595D01*
X-1325118Y1867915D01*
X-1331721Y1902205D01*
X-1345437Y1922526D01*
X-1366012Y1929384D01*
X-1379473Y1929384D01*
X-1273302Y1895347D02*
G01*
X-1273302Y1902205D01*
X-1266444Y1915668D01*
X-1259586Y1922526D01*
X-1245870Y1929384D01*
X-1218692Y1929384D01*
X-1204976Y1922526D01*
X-1198118Y1915668D01*
X-1191260Y1902205D01*
X-1191260Y1888489D01*
X-1198118Y1874773D01*
X-1211834Y1854454D01*
X-1279905Y1786128D01*
X-1184655Y1786128D01*
X-1071371Y1929384D02*
G01*
X-1139444Y1833879D01*
X-1037336Y1833879D01*
X-1071371Y1929384D02*
G01*
X-1071371Y1786128D01*
X-887221Y1929384D02*
G01*
X-832612Y1786128D01*
X-778255Y1929384D02*
G01*
X-832612Y1786128D01*
X-733297Y1902205D02*
G01*
X-719581Y1908810D01*
X-699007Y1929384D01*
X-699007Y1786128D01*
X-647192Y1820163D02*
G01*
X-654050Y1813560D01*
X-647192Y1806702D01*
X-640334Y1813560D01*
X-647192Y1820163D01*
X-588518Y1895347D02*
G01*
X-588518Y1902205D01*
X-581913Y1915668D01*
X-575055Y1922526D01*
X-561339Y1929384D01*
X-534162Y1929384D01*
X-520445Y1922526D01*
X-513587Y1915668D01*
X-506729Y1902205D01*
X-506729Y1888489D01*
X-513587Y1874773D01*
X-527304Y1854454D01*
X-595376Y1786128D01*
X-500126Y1786128D01*
X-2565400Y2183384D02*
G01*
X-2531363Y2040128D01*
X-2497328Y2183384D02*
G01*
X-2531363Y2040128D01*
X-2497328Y2183384D02*
G01*
X-2463037Y2040128D01*
X-2429002Y2183384D02*
G01*
X-2463037Y2040128D01*
X-2384044Y2183384D02*
G01*
X-2384044Y2040128D01*
X-2384044Y2183384D02*
G01*
X-2322576Y2183384D01*
X-2302255Y2176526D01*
X-2295397Y2169668D01*
X-2288539Y2156205D01*
X-2288539Y2135631D01*
X-2295397Y2121915D01*
X-2302255Y2115057D01*
X-2322576Y2108454D01*
X-2384044Y2108454D01*
X-2195829Y2183384D02*
G01*
X-2195829Y2040128D01*
X-2243581Y2183384D02*
G01*
X-2148078Y2183384D01*
X-1923034Y2115057D02*
G01*
X-1929892Y2128773D01*
X-1950465Y2135631D01*
X-1970786Y2135631D01*
X-1991360Y2128773D01*
X-1998218Y2115057D01*
X-1991360Y2101595D01*
X-1977644Y2094737D01*
X-1943607Y2087879D01*
X-1929892Y2081021D01*
X-1923034Y2067560D01*
X-1923034Y2060702D01*
X-1929892Y2046986D01*
X-1950465Y2040128D01*
X-1970786Y2040128D01*
X-1991360Y2046986D01*
X-1998218Y2060702D01*
X-1871218Y2135631D02*
G01*
X-1830323Y2040128D01*
X-1789429Y2135631D02*
G01*
X-1830323Y2040128D01*
X-1844039Y2012950D01*
X-1857755Y1999234D01*
X-1871218Y1992376D01*
X-1878076Y1992376D01*
X-1669542Y2115057D02*
G01*
X-1676400Y2128773D01*
X-1696720Y2135631D01*
X-1717294Y2135631D01*
X-1737613Y2128773D01*
X-1744471Y2115057D01*
X-1737613Y2101595D01*
X-1724152Y2094737D01*
X-1689862Y2087879D01*
X-1676400Y2081021D01*
X-1669542Y2067560D01*
X-1669542Y2060702D01*
X-1676400Y2046986D01*
X-1696720Y2040128D01*
X-1717294Y2040128D01*
X-1737613Y2046986D01*
X-1744471Y2060702D01*
X-1604010Y2183384D02*
G01*
X-1604010Y2067560D01*
X-1597152Y2046986D01*
X-1583689Y2040128D01*
X-1569973Y2040128D01*
X-1624584Y2135631D02*
G01*
X-1576831Y2135631D01*
X-1525015Y2094737D02*
G01*
X-1443228Y2094737D01*
X-1443228Y2108454D01*
X-1449831Y2121915D01*
X-1456689Y2128773D01*
X-1470405Y2135631D01*
X-1490979Y2135631D01*
X-1504442Y2128773D01*
X-1518157Y2115057D01*
X-1525015Y2094737D01*
X-1525015Y2081021D01*
X-1518157Y2060702D01*
X-1504442Y2046986D01*
X-1490979Y2040128D01*
X-1470405Y2040128D01*
X-1456689Y2046986D01*
X-1443228Y2060702D01*
X-1398015Y2135631D02*
G01*
X-1398015Y2040128D01*
X-1398015Y2108454D02*
G01*
X-1377695Y2128773D01*
X-1363979Y2135631D01*
X-1343660Y2135631D01*
X-1329944Y2128773D01*
X-1323086Y2108454D01*
X-1323086Y2040128D01*
X-1323086Y2108454D02*
G01*
X-1302765Y2128773D01*
X-1289050Y2135631D01*
X-1268476Y2135631D01*
X-1255013Y2128773D01*
X-1248155Y2108454D01*
X-1248155Y2040128D01*
X-1023112Y2115057D02*
G01*
X-1029970Y2128773D01*
X-1050289Y2135631D01*
X-1070863Y2135631D01*
X-1091437Y2128773D01*
X-1098042Y2115057D01*
X-1091437Y2101595D01*
X-1077721Y2094737D01*
X-1043686Y2087879D01*
X-1029970Y2081021D01*
X-1023112Y2067560D01*
X-1023112Y2060702D01*
X-1029970Y2046986D01*
X-1050289Y2040128D01*
X-1070863Y2040128D01*
X-1091437Y2046986D01*
X-1098042Y2060702D01*
X-978154Y2183384D02*
G01*
X-978154Y2040128D01*
X-978154Y2108454D02*
G01*
X-957579Y2128773D01*
X-944118Y2135631D01*
X-923544Y2135631D01*
X-909828Y2128773D01*
X-903223Y2108454D01*
X-903223Y2040128D01*
X-858012Y2183384D02*
G01*
X-851407Y2176526D01*
X-844550Y2183384D01*
X-851407Y2190242D01*
X-858012Y2183384D01*
X-851407Y2135631D02*
G01*
X-851407Y2040128D01*
X-799592Y2094737D02*
G01*
X-717550Y2094737D01*
X-717550Y2108454D01*
X-724407Y2121915D01*
X-731265Y2128773D01*
X-744981Y2135631D01*
X-765302Y2135631D01*
X-779018Y2128773D01*
X-792734Y2115057D01*
X-799592Y2094737D01*
X-799592Y2081021D01*
X-792734Y2060702D01*
X-779018Y2046986D01*
X-765302Y2040128D01*
X-744981Y2040128D01*
X-731265Y2046986D01*
X-717550Y2060702D01*
X-672592Y2183384D02*
G01*
X-672592Y2040128D01*
X-545845Y2183384D02*
G01*
X-545845Y2040128D01*
X-545845Y2115057D02*
G01*
X-559562Y2128773D01*
X-573023Y2135631D01*
X-593597Y2135631D01*
X-607313Y2128773D01*
X-620776Y2115057D01*
X-627634Y2094737D01*
X-627634Y2081021D01*
X-620776Y2060702D01*
X-607313Y2046986D01*
X-593597Y2040128D01*
X-573023Y2040128D01*
X-559562Y2046986D01*
X-545845Y2060702D01*
X-1383284Y2425700D02*
G01*
X-1280921Y2425700D01*
X-1260602Y2432557D01*
X-1246886Y2446273D01*
X-1240028Y2466594D01*
X-1240028Y2480310D01*
X-1246886Y2500629D01*
X-1260602Y2514345D01*
X-1280921Y2521204D01*
X-1383284Y2521204D01*
X-1362710Y2661665D02*
G01*
X-1376426Y2647950D01*
X-1383284Y2627629D01*
X-1383284Y2600197D01*
X-1376426Y2579878D01*
X-1362710Y2566162D01*
X-1349247Y2566162D01*
X-1335531Y2573020D01*
X-1328673Y2579878D01*
X-1321815Y2593339D01*
X-1308354Y2634234D01*
X-1301495Y2647950D01*
X-1294637Y2654807D01*
X-1280921Y2661665D01*
X-1260602Y2661665D01*
X-1246886Y2647950D01*
X-1240028Y2627629D01*
X-1240028Y2600197D01*
X-1246886Y2579878D01*
X-1260602Y2566162D01*
X-1383284Y2706623D02*
G01*
X-1240028Y2706623D01*
X-1383284Y2706623D02*
G01*
X-1383284Y2795270D01*
X-1314957Y2706623D02*
G01*
X-1314957Y2761234D01*
X-1240028Y2706623D02*
G01*
X-1240028Y2795270D01*
X-1383284Y2840228D02*
G01*
X-1240028Y2840228D01*
X-1383284Y2840228D02*
G01*
X-1383284Y2901695D01*
X-1376426Y2922015D01*
X-1369568Y2928873D01*
X-1356105Y2935731D01*
X-1342389Y2935731D01*
X-1328673Y2928873D01*
X-1321815Y2922015D01*
X-1314957Y2901695D01*
X-1314957Y2840228D01*
X-1314957Y2887979D02*
G01*
X-1240028Y2935731D01*
X229615Y2349500D02*
G01*
X372871Y2349500D01*
X229615Y2349500D02*
G01*
X229615Y2410968D01*
X236473Y2431287D01*
X243331Y2438145D01*
X256794Y2445004D01*
X270510Y2445004D01*
X284226Y2438145D01*
X291084Y2431287D01*
X297942Y2410968D01*
X297942Y2349500D01*
X297942Y2397252D02*
G01*
X372871Y2445004D01*
X229615Y2489962D02*
G01*
X372871Y2489962D01*
X229615Y2489962D02*
G01*
X229615Y2578607D01*
X297942Y2489962D02*
G01*
X297942Y2544571D01*
X372871Y2489962D02*
G01*
X372871Y2578607D01*
X250189Y2719070D02*
G01*
X236473Y2705354D01*
X229615Y2685034D01*
X229615Y2657602D01*
X236473Y2637281D01*
X250189Y2623565D01*
X263652Y2623565D01*
X277368Y2630423D01*
X284226Y2637281D01*
X291084Y2650744D01*
X304545Y2691892D01*
X311404Y2705354D01*
X318262Y2712212D01*
X331978Y2719070D01*
X352297Y2719070D01*
X366013Y2705354D01*
X372871Y2685034D01*
X372871Y2657602D01*
X366013Y2637281D01*
X352297Y2623565D01*
X229615Y2764028D02*
G01*
X372871Y2764028D01*
X229615Y2764028D02*
G01*
X229615Y2852673D01*
X297942Y2764028D02*
G01*
X297942Y2818637D01*
X372871Y2764028D02*
G01*
X372871Y2852673D01*
X229615Y2945384D02*
G01*
X372871Y2945384D01*
X229615Y2897631D02*
G01*
X229615Y2993136D01*
D11*
X-582421Y165607D02*
G01*
X-587755Y176021D01*
X-598170Y186436D01*
X-608329Y191515D01*
X-629157Y191515D01*
X-639571Y186436D01*
X-649986Y176021D01*
X-655320Y165607D01*
X-660400Y149860D01*
X-660400Y123952D01*
X-655320Y108457D01*
X-649986Y98044D01*
X-639571Y87629D01*
X-629157Y82550D01*
X-608329Y82550D01*
X-598170Y87629D01*
X-587755Y98044D01*
X-582421Y108457D01*
X-543052Y165607D02*
G01*
X-543052Y170687D01*
X-537718Y181102D01*
X-532637Y186436D01*
X-522223Y191515D01*
X-501395Y191515D01*
X-490981Y186436D01*
X-485902Y181102D01*
X-480568Y170687D01*
X-480568Y160273D01*
X-485902Y149860D01*
X-496315Y134365D01*
X-548131Y82550D01*
X-475487Y82550D01*
D10*
X-529081Y241300D02*
G01*
X-529081Y323087D01*
X-582676Y-22605D02*
G01*
X-500634Y-22605D01*
X-541781Y-63500D02*
G01*
X-541781Y18287D01*
D11*
X355600Y2248915D02*
G01*
X355600Y2139950D01*
X355600Y2248915D02*
G01*
X402336Y2248915D01*
X417829Y2243836D01*
X423163Y2238502D01*
X428244Y2228087D01*
X428244Y2217673D01*
X423163Y2207260D01*
X417829Y2202179D01*
X402336Y2197100D01*
X355600Y2197100D01*
X391921Y2197100D02*
G01*
X428244Y2139950D01*
X530097Y2212594D02*
G01*
X525018Y2197100D01*
X514604Y2186686D01*
X499110Y2181352D01*
X493776Y2181352D01*
X478281Y2186686D01*
X467868Y2197100D01*
X462534Y2212594D01*
X462534Y2217673D01*
X467868Y2233421D01*
X478281Y2243836D01*
X493776Y2248915D01*
X499110Y2248915D01*
X514604Y2243836D01*
X525018Y2233421D01*
X530097Y2212594D01*
X530097Y2186686D01*
X525018Y2160523D01*
X514604Y2145029D01*
X499110Y2139950D01*
X488695Y2139950D01*
X472947Y2145029D01*
X467868Y2155444D01*
X317500Y1969515D02*
G01*
X317500Y1860550D01*
X317500Y1969515D02*
G01*
X364236Y1969515D01*
X379729Y1964436D01*
X385063Y1959102D01*
X390144Y1948687D01*
X390144Y1938273D01*
X385063Y1927860D01*
X379729Y1922779D01*
X364236Y1917700D01*
X317500Y1917700D01*
X353821Y1917700D02*
G01*
X390144Y1860550D01*
X424434Y1948687D02*
G01*
X434847Y1954021D01*
X450595Y1969515D01*
X450595Y1860550D01*
X515873Y1969515D02*
G01*
X500379Y1964436D01*
X489965Y1948687D01*
X484886Y1922779D01*
X484886Y1907286D01*
X489965Y1881123D01*
X500379Y1865629D01*
X515873Y1860550D01*
X526287Y1860550D01*
X542036Y1865629D01*
X552450Y1881123D01*
X557529Y1907286D01*
X557529Y1922779D01*
X552450Y1948687D01*
X542036Y1964436D01*
X526287Y1969515D01*
X515873Y1969515D01*
X2324100Y2693415D02*
G01*
X2324100Y2584450D01*
X2363470Y2667507D02*
G01*
X2363470Y2672587D01*
X2368804Y2683002D01*
X2373884Y2688336D01*
X2384297Y2693415D01*
X2405125Y2693415D01*
X2415540Y2688336D01*
X2420620Y2683002D01*
X2425954Y2672587D01*
X2425954Y2662173D01*
X2420620Y2651760D01*
X2410459Y2636265D01*
X2358390Y2584450D01*
X2431034Y2584450D01*
X2543302Y2667507D02*
G01*
X2538222Y2677921D01*
X2527808Y2688336D01*
X2517393Y2693415D01*
X2496565Y2693415D01*
X2486152Y2688336D01*
X2475738Y2677921D01*
X2470658Y2667507D01*
X2465324Y2651760D01*
X2465324Y2625852D01*
X2470658Y2610357D01*
X2475738Y2599944D01*
X2486152Y2589529D01*
X2496565Y2584450D01*
X2517393Y2584450D01*
X2527808Y2589529D01*
X2538222Y2599944D01*
X2543302Y2610357D01*
D12*
X-2082924Y2693220D02*
G01*
X-2082924Y2788470D01*
X-2082924Y2693220D02*
G01*
X-2123818Y2693220D01*
X-2137280Y2697538D01*
X-2141852Y2702110D01*
X-2146424Y2711254D01*
X-2146424Y2720398D01*
X-2141852Y2729542D01*
X-2137280Y2734114D01*
X-2123818Y2738432D01*
X-2082924Y2738432D01*
X-2114674Y2738432D02*
G01*
X-2146424Y2788470D01*
X-2176396Y2693220D02*
G01*
X-2212718Y2788470D01*
X-2249040Y2693220D02*
G01*
X-2212718Y2788470D01*
X-2279266Y2711254D02*
G01*
X-2288156Y2706682D01*
X-2301872Y2693220D01*
X-2301872Y2788470D01*
D11*
X419100Y-595884D02*
G01*
X419100Y-704850D01*
X419100Y-595884D02*
G01*
X465836Y-595884D01*
X481329Y-600963D01*
X486663Y-606297D01*
X491744Y-616712D01*
X491744Y-627126D01*
X486663Y-637539D01*
X481329Y-642620D01*
X465836Y-647700D01*
X419100Y-647700D01*
X455421Y-647700D02*
G01*
X491744Y-704850D01*
X598931Y-595884D02*
G01*
X546862Y-704850D01*
X526034Y-595884D02*
G01*
X598931Y-595884D01*
X204215Y469900D02*
G01*
X95250Y469900D01*
X204215Y469900D02*
G01*
X204215Y423163D01*
X199136Y407670D01*
X193802Y402336D01*
X183387Y397255D01*
X172973Y397255D01*
X162560Y402336D01*
X157479Y407670D01*
X152400Y423163D01*
X152400Y469900D01*
X152400Y433578D02*
G01*
X95250Y397255D01*
X204215Y336804D02*
G01*
X199136Y352552D01*
X188721Y357631D01*
X178307Y357631D01*
X167894Y352552D01*
X162560Y342137D01*
X157479Y321310D01*
X152400Y305815D01*
X141986Y295402D01*
X131571Y290068D01*
X115823Y290068D01*
X105410Y295402D01*
X100329Y300481D01*
X95250Y316229D01*
X95250Y336804D01*
X100329Y352552D01*
X105410Y357631D01*
X115823Y362965D01*
X131571Y362965D01*
X141986Y357631D01*
X152400Y347218D01*
X157479Y331723D01*
X162560Y310895D01*
X167894Y300481D01*
X178307Y295402D01*
X188721Y295402D01*
X199136Y300481D01*
X204215Y316229D01*
X204215Y336804D01*
X1055865Y-177292D02*
G01*
X1050531Y-166878D01*
X1040117Y-156463D01*
X1029957Y-151384D01*
X1009129Y-151384D01*
X998715Y-156463D01*
X988301Y-166878D01*
X982967Y-177292D01*
X977887Y-193039D01*
X977887Y-218947D01*
X982967Y-234442D01*
X988301Y-244855D01*
X998715Y-255270D01*
X1009129Y-260350D01*
X1029957Y-260350D01*
X1040117Y-255270D01*
X1050531Y-244855D01*
X1055865Y-234442D01*
X1090155Y-172212D02*
G01*
X1100569Y-166878D01*
X1116063Y-151384D01*
X1116063Y-260350D01*
X1970277Y-50292D02*
G01*
X1964943Y-39878D01*
X1954529Y-29463D01*
X1944370Y-24384D01*
X1923542Y-24384D01*
X1913128Y-29463D01*
X1902713Y-39878D01*
X1897379Y-50292D01*
X1892300Y-66039D01*
X1892300Y-91947D01*
X1897379Y-107442D01*
X1902713Y-117855D01*
X1913128Y-128270D01*
X1923542Y-133350D01*
X1944370Y-133350D01*
X1954529Y-128270D01*
X1964943Y-117855D01*
X1970277Y-107442D01*
X2014981Y-24384D02*
G01*
X2072131Y-24384D01*
X2040890Y-66039D01*
X2056384Y-66039D01*
X2066797Y-71120D01*
X2072131Y-76200D01*
X2077211Y-91947D01*
X2077211Y-102362D01*
X2072131Y-117855D01*
X2061718Y-128270D01*
X2045970Y-133350D01*
X2030475Y-133350D01*
X2014981Y-128270D01*
X2009647Y-123189D01*
X2004568Y-112776D01*
D10*
X1898395Y-385381D02*
G01*
X1816607Y-385381D01*
X2162302Y-438975D02*
G01*
X2162302Y-356933D01*
X2203195Y-398081D02*
G01*
X2121408Y-398081D01*
D11*
X1596085Y397238D02*
G01*
X1601165Y386824D01*
X1611579Y376410D01*
X1621993Y371076D01*
X1637741Y365996D01*
X1663649Y365996D01*
X1679143Y371076D01*
X1689557Y376410D01*
X1699971Y386824D01*
X1705051Y397238D01*
X1705051Y418066D01*
X1699971Y428226D01*
X1689557Y438640D01*
X1679143Y443974D01*
X1663649Y449054D01*
X1637741Y449054D01*
X1621993Y443974D01*
X1611579Y438640D01*
X1601165Y428226D01*
X1596085Y418066D01*
X1596085Y397238D01*
X1684477Y412732D02*
G01*
X1715465Y443974D01*
X1616913Y483344D02*
G01*
X1611579Y493758D01*
X1596085Y509506D01*
X1705051Y509506D01*
X1596085Y1249840D02*
G01*
X1601165Y1239426D01*
X1611579Y1229012D01*
X1621993Y1223678D01*
X1637741Y1218598D01*
X1663649Y1218598D01*
X1679143Y1223678D01*
X1689557Y1229012D01*
X1699971Y1239426D01*
X1705051Y1249840D01*
X1705051Y1270668D01*
X1699971Y1280828D01*
X1689557Y1291242D01*
X1679143Y1296576D01*
X1663649Y1301656D01*
X1637741Y1301656D01*
X1621993Y1296576D01*
X1611579Y1291242D01*
X1601165Y1280828D01*
X1596085Y1270668D01*
X1596085Y1249840D01*
X1684477Y1265334D02*
G01*
X1715465Y1296576D01*
X1621993Y1341280D02*
G01*
X1616913Y1341280D01*
X1606499Y1346360D01*
X1601165Y1351694D01*
X1596085Y1362108D01*
X1596085Y1382682D01*
X1601165Y1393096D01*
X1606499Y1398430D01*
X1616913Y1403510D01*
X1627327Y1403510D01*
X1637741Y1398430D01*
X1653235Y1388016D01*
X1705051Y1335946D01*
X1705051Y1408844D01*
X2500884Y-152400D02*
G01*
X2609850Y-152400D01*
X2500884Y-152400D02*
G01*
X2500884Y-105663D01*
X2505963Y-90170D01*
X2511297Y-84836D01*
X2521711Y-79755D01*
X2532125Y-79755D01*
X2542540Y-84836D01*
X2547620Y-90170D01*
X2552700Y-105663D01*
X2552700Y-152400D01*
X2552700Y-116078D02*
G01*
X2609850Y-79755D01*
X2521711Y-45465D02*
G01*
X2516377Y-35052D01*
X2500884Y-19304D01*
X2609850Y-19304D01*
X2345385Y1244003D02*
G01*
X2454351Y1244003D01*
X2345385Y1244003D02*
G01*
X2345385Y1290739D01*
X2350465Y1306233D01*
X2355799Y1311567D01*
X2366213Y1316647D01*
X2376627Y1316647D01*
X2387041Y1311567D01*
X2392121Y1306233D01*
X2397201Y1290739D01*
X2397201Y1244003D01*
X2397201Y1280325D02*
G01*
X2454351Y1316647D01*
X2371293Y1356271D02*
G01*
X2366213Y1356271D01*
X2355799Y1361351D01*
X2350465Y1366685D01*
X2345385Y1377099D01*
X2345385Y1397673D01*
X2350465Y1408087D01*
X2355799Y1413421D01*
X2366213Y1418501D01*
X2376627Y1418501D01*
X2387041Y1413421D01*
X2402535Y1403007D01*
X2454351Y1350937D01*
X2454351Y1423835D01*
X-1219200Y-891082D02*
G01*
X-1219200Y-1000048D01*
X-1219200Y-891082D02*
G01*
X-1172463Y-891082D01*
X-1156970Y-896162D01*
X-1151636Y-901496D01*
X-1146555Y-911910D01*
X-1146555Y-922324D01*
X-1151636Y-932738D01*
X-1156970Y-937818D01*
X-1172463Y-942898D01*
X-1219200Y-942898D01*
X-1182878Y-942898D02*
G01*
X-1146555Y-1000048D01*
X-1101852Y-891082D02*
G01*
X-1044702Y-891082D01*
X-1075689Y-932738D01*
X-1060195Y-932738D01*
X-1049781Y-937818D01*
X-1044702Y-942898D01*
X-1039368Y-958646D01*
X-1039368Y-969060D01*
X-1044702Y-984554D01*
X-1055115Y-994968D01*
X-1070610Y-1000048D01*
X-1086104Y-1000048D01*
X-1101852Y-994968D01*
X-1106931Y-989888D01*
X-1112265Y-979474D01*
X-1206500Y-586282D02*
G01*
X-1206500Y-695248D01*
X-1206500Y-586282D02*
G01*
X-1159763Y-586282D01*
X-1144270Y-591362D01*
X-1138936Y-596696D01*
X-1133855Y-607110D01*
X-1133855Y-617524D01*
X-1138936Y-627938D01*
X-1144270Y-633018D01*
X-1159763Y-638098D01*
X-1206500Y-638098D01*
X-1170178Y-638098D02*
G01*
X-1133855Y-695248D01*
X-1047495Y-586282D02*
G01*
X-1099565Y-658926D01*
X-1021587Y-658926D01*
X-1047495Y-586282D02*
G01*
X-1047495Y-695248D01*
X-1219200Y-303784D02*
G01*
X-1219200Y-412750D01*
X-1219200Y-303784D02*
G01*
X-1172463Y-303784D01*
X-1156970Y-308863D01*
X-1151636Y-314197D01*
X-1146555Y-324612D01*
X-1146555Y-335026D01*
X-1151636Y-345439D01*
X-1156970Y-350520D01*
X-1172463Y-355600D01*
X-1219200Y-355600D01*
X-1182878Y-355600D02*
G01*
X-1146555Y-412750D01*
X-1049781Y-303784D02*
G01*
X-1101852Y-303784D01*
X-1106931Y-350520D01*
X-1101852Y-345439D01*
X-1086104Y-340105D01*
X-1070610Y-340105D01*
X-1055115Y-345439D01*
X-1044702Y-355600D01*
X-1039368Y-371347D01*
X-1039368Y-381762D01*
X-1044702Y-397255D01*
X-1055115Y-407670D01*
X-1070610Y-412750D01*
X-1086104Y-412750D01*
X-1101852Y-407670D01*
X-1106931Y-402589D01*
X-1112265Y-392176D01*
X419100Y-900684D02*
G01*
X419100Y-1009650D01*
X419100Y-900684D02*
G01*
X465836Y-900684D01*
X481329Y-905763D01*
X486663Y-911097D01*
X491744Y-921512D01*
X491744Y-931926D01*
X486663Y-942339D01*
X481329Y-947420D01*
X465836Y-952500D01*
X419100Y-952500D01*
X455421Y-952500D02*
G01*
X491744Y-1009650D01*
X588518Y-916178D02*
G01*
X583184Y-905763D01*
X567689Y-900684D01*
X557276Y-900684D01*
X541781Y-905763D01*
X531368Y-921512D01*
X526034Y-947420D01*
X526034Y-973328D01*
X531368Y-994155D01*
X541781Y-1004570D01*
X557276Y-1009650D01*
X562610Y-1009650D01*
X578104Y-1004570D01*
X588518Y-994155D01*
X593597Y-978662D01*
X593597Y-973328D01*
X588518Y-957834D01*
X578104Y-947420D01*
X562610Y-942339D01*
X557276Y-942339D01*
X541781Y-947420D01*
X531368Y-957834D01*
X526034Y-973328D01*
X1798408Y-2120379D02*
G01*
X1798408Y-2198357D01*
X1803488Y-2213851D01*
X1813902Y-2224265D01*
X1829650Y-2229345D01*
X1840064Y-2229345D01*
X1855558Y-2224265D01*
X1865972Y-2213851D01*
X1871052Y-2198357D01*
X1871052Y-2120379D01*
X1915756Y-2120379D02*
G01*
X1972906Y-2120379D01*
X1941918Y-2162035D01*
X1957412Y-2162035D01*
X1967826Y-2167115D01*
X1972906Y-2172195D01*
X1978240Y-2187943D01*
X1978240Y-2198357D01*
X1972906Y-2213851D01*
X1962492Y-2224265D01*
X1946998Y-2229345D01*
X1931504Y-2229345D01*
X1915756Y-2224265D01*
X1910676Y-2219185D01*
X1905342Y-2208771D01*
X-1038999Y-1980184D02*
G01*
X-1038999Y-2058162D01*
X-1033919Y-2073655D01*
X-1023505Y-2084070D01*
X-1007757Y-2089150D01*
X-997343Y-2089150D01*
X-981849Y-2084070D01*
X-971435Y-2073655D01*
X-966355Y-2058162D01*
X-966355Y-1980184D01*
X-879995Y-1980184D02*
G01*
X-932065Y-2052828D01*
X-854087Y-2052828D01*
X-879995Y-1980184D02*
G01*
X-879995Y-2089150D01*
X-1816100Y407415D02*
G01*
X-1816100Y329437D01*
X-1811020Y313944D01*
X-1800605Y303529D01*
X-1784857Y298450D01*
X-1774444Y298450D01*
X-1758950Y303529D01*
X-1748536Y313944D01*
X-1743455Y329437D01*
X-1743455Y407415D01*
X-1703831Y381507D02*
G01*
X-1703831Y386587D01*
X-1698752Y397002D01*
X-1693418Y402336D01*
X-1683004Y407415D01*
X-1662429Y407415D01*
X-1652015Y402336D01*
X-1646681Y397002D01*
X-1641602Y386587D01*
X-1641602Y376173D01*
X-1646681Y365760D01*
X-1657095Y350265D01*
X-1709165Y298450D01*
X-1636268Y298450D01*
G36*
X-387858Y460552D02*
G01*
X-404317Y460146D01*
X-420776Y458825D01*
X-437134Y456692D01*
X-453339Y453694D01*
X-469392Y449834D01*
X-485190Y445160D01*
X-493014Y442518D01*
X-508406Y436575D01*
X-523443Y429869D01*
X-538175Y422401D01*
X-552450Y414121D01*
X-566267Y405180D01*
X-579628Y395478D01*
X-592429Y385114D01*
X-604672Y374040D01*
X-610666Y368198D01*
X-165100Y368300D01*
X-177038Y379628D01*
X-189585Y390347D01*
X-202692Y400405D01*
X-216255Y409752D01*
X-230327Y418338D01*
X-237540Y422401D01*
X-252221Y429869D01*
X-267309Y436575D01*
X-282702Y442518D01*
X-298399Y447598D01*
X-314299Y451866D01*
X-322326Y453694D01*
X-338582Y456692D01*
X-354939Y458825D01*
X-371348Y460146D01*
G37*
G36*
X1771396Y-21386D02*
G01*
X1760067Y-33375D01*
X1754581Y-39573D01*
X1744218Y-52374D01*
X1734515Y-65735D01*
X1725574Y-79552D01*
X1717293Y-93827D01*
X1709826Y-108508D01*
X1703120Y-123596D01*
X1697177Y-138988D01*
X1692097Y-154686D01*
X1687830Y-170586D01*
X1684426Y-186740D01*
X1683004Y-194868D01*
X1680870Y-211226D01*
X1679549Y-227634D01*
X1679143Y-244144D01*
X1679549Y-260654D01*
X1680870Y-277063D01*
X1683004Y-293420D01*
X1686001Y-309626D01*
X1689862Y-325678D01*
X1694535Y-341477D01*
X1697177Y-349300D01*
X1703120Y-364693D01*
X1709826Y-379780D01*
X1717293Y-394462D01*
X1725574Y-408736D01*
X1734515Y-422554D01*
X1744218Y-435914D01*
X1754581Y-448716D01*
X1765655Y-461009D01*
X1771497Y-467004D01*
G37*
G36*
X1645970Y-2553208D02*
G01*
X1582470Y-2616708D01*
X1620570Y-2616708D01*
X1620570Y-2705608D01*
X1671370Y-2705608D01*
X1671370Y-2616708D01*
X1709470Y-2616708D01*
G37*
G36*
X2145995Y-2553208D02*
G01*
X2082495Y-2616708D01*
X2120595Y-2616708D01*
X2120595Y-2705608D01*
X2171395Y-2705608D01*
X2171395Y-2616708D01*
X2209495Y-2616708D01*
G37*
D13*
X762000Y2286000D02*
G01*
X762000Y2108200D01*
X736600Y2082800D02*
G01*
X698500Y2082800D01*
X685800Y2095500D02*
G01*
X698500Y2082800D01*
X736600Y2311400D02*
G01*
X698500Y2311400D01*
X685800Y2298700D02*
G01*
X698500Y2311400D01*
X203200Y2095500D02*
G01*
X190500Y2082800D01*
X203200Y2095500D02*
G01*
X685800Y2095500D01*
X203200Y2298700D02*
G01*
X190500Y2311400D01*
X203200Y2298700D02*
G01*
X685800Y2298700D01*
X152400Y2082800D02*
G01*
X190500Y2082800D01*
X152400Y2311400D02*
G01*
X190500Y2311400D01*
X127000Y2286000D02*
G01*
X127000Y2108200D01*
X762000Y2006600D02*
G01*
X762000Y1828800D01*
X736600Y1803400D02*
G01*
X698500Y1803400D01*
X685800Y1816100D02*
G01*
X698500Y1803400D01*
X736600Y2032000D02*
G01*
X698500Y2032000D01*
X685800Y2019300D02*
G01*
X698500Y2032000D01*
X203200Y1816100D02*
G01*
X190500Y1803400D01*
X203200Y1816100D02*
G01*
X685800Y1816100D01*
X203200Y2019300D02*
G01*
X190500Y2032000D01*
X203200Y2019300D02*
G01*
X685800Y2019300D01*
X152400Y1803400D02*
G01*
X190500Y1803400D01*
X152400Y2032000D02*
G01*
X190500Y2032000D01*
X127000Y2006600D02*
G01*
X127000Y1828800D01*
X1953447Y2514600D02*
G01*
X1193800Y2514600D01*
X1193800Y2768600D01*
X2209800Y2768600D01*
X2209800Y2514600D01*
X1953447Y2514600D01*
X1953447Y2514600D02*
G01*
X1953447Y2768600D01*
D14*
X-2521701Y2889991D02*
G01*
X-1821700Y2889991D01*
X-1821700Y3389993D01*
X-2521701Y3389993D01*
X-2521701Y2889991D01*
X-2646692Y2350013D02*
G01*
X-1696684Y2350013D01*
X-1696684Y2889991D01*
X-2646692Y2889991D01*
X-2646692Y2350013D01*
X-2421702Y3389993D02*
G01*
X-1921700Y3389993D01*
X-1921700Y4089986D01*
X-2421702Y4089986D01*
X-2421702Y3389993D01*
D13*
X182626Y-738886D02*
G01*
X182626Y-561086D01*
X208026Y-535686D02*
G01*
X246126Y-535686D01*
X258826Y-548386D02*
G01*
X246126Y-535686D01*
X208026Y-764286D02*
G01*
X246126Y-764286D01*
X258826Y-751586D02*
G01*
X246126Y-764286D01*
X741426Y-548386D02*
G01*
X754126Y-535686D01*
X741426Y-548386D02*
G01*
X258826Y-548386D01*
X741426Y-751586D02*
G01*
X754126Y-764286D01*
X741426Y-751586D02*
G01*
X258826Y-751586D01*
X792226Y-535686D02*
G01*
X754126Y-535686D01*
X792226Y-764286D02*
G01*
X754126Y-764286D01*
X817626Y-738886D02*
G01*
X817626Y-561086D01*
X50800Y673100D02*
G01*
X228600Y673100D01*
X254000Y647700D02*
G01*
X254000Y609600D01*
X241300Y596900D02*
G01*
X254000Y609600D01*
X25400Y647700D02*
G01*
X25400Y609600D01*
X38100Y596900D02*
G01*
X25400Y609600D01*
X241300Y114300D02*
G01*
X254000Y101600D01*
X241300Y114300D02*
G01*
X241300Y596900D01*
X38100Y114300D02*
G01*
X25400Y101600D01*
X38100Y114300D02*
G01*
X38100Y596900D01*
X254000Y63500D02*
G01*
X254000Y101600D01*
X25400Y63500D02*
G01*
X25400Y101600D01*
X50800Y38100D02*
G01*
X228600Y38100D01*
X725995Y-2006D02*
G01*
X1376006Y-2006D01*
X1376006Y-402005D02*
G01*
X725995Y-402005D01*
X725995Y-2006D02*
G01*
X725995Y-133964D01*
X725995Y-266034D02*
G01*
X725995Y-402005D01*
X1376006Y-2006D02*
G01*
X1376006Y-136296D01*
X1376006Y-263702D02*
G01*
X1376006Y-402005D01*
X1536898Y407969D02*
G01*
X1476898Y407969D01*
X1476898Y607999D01*
X1536898Y607999D01*
X1396634Y883003D02*
G01*
X1396634Y807999D01*
X1476900Y807999D01*
X1476900Y707997D01*
X1536900Y707997D01*
X1536898Y883000D02*
G01*
X1536898Y132996D01*
X1396631Y132996D02*
G01*
X1396631Y208000D01*
X1476898Y208000D01*
X1476898Y308000D01*
X1536898Y308000D01*
X1326898Y133002D02*
G01*
X1326898Y208000D01*
X996899Y208000D01*
X996899Y807999D01*
X1326898Y807999D01*
X1326898Y882995D01*
X946899Y883000D02*
G01*
X946899Y132996D01*
X946899Y882995D02*
G01*
X1536898Y882995D01*
X946899Y132996D02*
G01*
X1536898Y132996D01*
X1536898Y1284269D02*
G01*
X1476898Y1284269D01*
X1476898Y1484299D01*
X1536898Y1484299D01*
X1396634Y1759303D02*
G01*
X1396634Y1684299D01*
X1476900Y1684299D01*
X1476900Y1584297D01*
X1536900Y1584297D01*
X1536898Y1759300D02*
G01*
X1536898Y1009296D01*
X1396631Y1009296D02*
G01*
X1396631Y1084300D01*
X1476898Y1084300D01*
X1476898Y1184300D01*
X1536898Y1184300D01*
X1326898Y1009302D02*
G01*
X1326898Y1084300D01*
X996899Y1084300D01*
X996899Y1684299D01*
X1326898Y1684299D01*
X1326898Y1759295D01*
X946899Y1759300D02*
G01*
X946899Y1009296D01*
X946899Y1759295D02*
G01*
X1536898Y1759295D01*
X946899Y1009296D02*
G01*
X1536898Y1009296D01*
X1899965Y-1439997D02*
G01*
X1899965Y-1379997D01*
X2099995Y-1379997D01*
X2099995Y-1439997D01*
X2374999Y-1299733D02*
G01*
X2299995Y-1299733D01*
X2299995Y-1379999D01*
X2199993Y-1379999D01*
X2199993Y-1439999D01*
X2374996Y-1439997D02*
G01*
X1624992Y-1439997D01*
X1624992Y-1299730D02*
G01*
X1699996Y-1299730D01*
X1699996Y-1379997D01*
X1799996Y-1379997D01*
X1799996Y-1439997D01*
X1624998Y-1229997D02*
G01*
X1699996Y-1229997D01*
X1699996Y-899998D01*
X2299995Y-899998D01*
X2299995Y-1229997D01*
X2374991Y-1229997D01*
X2374996Y-849998D02*
G01*
X1624992Y-849998D01*
X2374991Y-849998D02*
G01*
X2374991Y-1439997D01*
X1624992Y-849998D02*
G01*
X1624992Y-1439997D01*
X2146884Y655990D02*
G01*
X2146884Y260009D01*
X2166188Y1492793D02*
G01*
X2166188Y1096812D01*
X2638894Y-417499D02*
G01*
X2461094Y-417499D01*
X2435694Y-392099D02*
G01*
X2435694Y-353999D01*
X2448394Y-341299D02*
G01*
X2435694Y-353999D01*
X2664294Y-392099D02*
G01*
X2664294Y-353999D01*
X2651594Y-341299D02*
G01*
X2664294Y-353999D01*
X2448394Y141300D02*
G01*
X2435694Y154000D01*
X2448394Y141300D02*
G01*
X2448394Y-341299D01*
X2651594Y141300D02*
G01*
X2664294Y154000D01*
X2651594Y141300D02*
G01*
X2651594Y-341299D01*
X2435694Y192100D02*
G01*
X2435694Y154000D01*
X2664294Y192100D02*
G01*
X2664294Y154000D01*
X2638894Y217500D02*
G01*
X2461094Y217500D01*
X2486101Y977303D02*
G01*
X2308301Y977303D01*
X2282901Y1002703D02*
G01*
X2282901Y1040803D01*
X2295601Y1053503D02*
G01*
X2282901Y1040803D01*
X2511501Y1002703D02*
G01*
X2511501Y1040803D01*
X2498801Y1053503D02*
G01*
X2511501Y1040803D01*
X2295601Y1536103D02*
G01*
X2282901Y1548803D01*
X2295601Y1536103D02*
G01*
X2295601Y1053503D01*
X2498801Y1536103D02*
G01*
X2511501Y1548803D01*
X2498801Y1536103D02*
G01*
X2498801Y1053503D01*
X2282901Y1586903D02*
G01*
X2282901Y1548803D01*
X2511501Y1586903D02*
G01*
X2511501Y1548803D01*
X2486101Y1612303D02*
G01*
X2308301Y1612303D01*
X-1447800Y-1041400D02*
G01*
X-1447800Y-863600D01*
X-1422400Y-838200D02*
G01*
X-1384300Y-838200D01*
X-1371600Y-850900D02*
G01*
X-1384300Y-838200D01*
X-1422400Y-1066800D02*
G01*
X-1384300Y-1066800D01*
X-1371600Y-1054100D02*
G01*
X-1384300Y-1066800D01*
X-889000Y-850900D02*
G01*
X-876300Y-838200D01*
X-889000Y-850900D02*
G01*
X-1371600Y-850900D01*
X-889000Y-1054100D02*
G01*
X-876300Y-1066800D01*
X-889000Y-1054100D02*
G01*
X-1371600Y-1054100D01*
X-838200Y-838200D02*
G01*
X-876300Y-838200D01*
X-838200Y-1066800D02*
G01*
X-876300Y-1066800D01*
X-812800Y-1041400D02*
G01*
X-812800Y-863600D01*
X-812800Y-566699D02*
G01*
X-812800Y-744499D01*
X-838200Y-769899D02*
G01*
X-876300Y-769899D01*
X-889000Y-757199D02*
G01*
X-876300Y-769899D01*
X-838200Y-541299D02*
G01*
X-876300Y-541299D01*
X-889000Y-553999D02*
G01*
X-876300Y-541299D01*
X-1371600Y-757199D02*
G01*
X-1384300Y-769899D01*
X-1371600Y-757199D02*
G01*
X-889000Y-757199D01*
X-1371600Y-553999D02*
G01*
X-1384300Y-541299D01*
X-1371600Y-553999D02*
G01*
X-889000Y-553999D01*
X-1422400Y-769899D02*
G01*
X-1384300Y-769899D01*
X-1422400Y-541299D02*
G01*
X-1384300Y-541299D01*
X-1447800Y-566699D02*
G01*
X-1447800Y-744499D01*
X-812800Y-266700D02*
G01*
X-812800Y-444500D01*
X-838200Y-469900D02*
G01*
X-876300Y-469900D01*
X-889000Y-457200D02*
G01*
X-876300Y-469900D01*
X-838200Y-241300D02*
G01*
X-876300Y-241300D01*
X-889000Y-254000D02*
G01*
X-876300Y-241300D01*
X-1371600Y-457200D02*
G01*
X-1384300Y-469900D01*
X-1371600Y-457200D02*
G01*
X-889000Y-457200D01*
X-1371600Y-254000D02*
G01*
X-1384300Y-241300D01*
X-1371600Y-254000D02*
G01*
X-889000Y-254000D01*
X-1422400Y-469900D02*
G01*
X-1384300Y-469900D01*
X-1422400Y-241300D02*
G01*
X-1384300Y-241300D01*
X-1447800Y-266700D02*
G01*
X-1447800Y-444500D01*
X182498Y-1038898D02*
G01*
X182498Y-861098D01*
X207898Y-835698D02*
G01*
X245998Y-835698D01*
X258698Y-848398D02*
G01*
X245998Y-835698D01*
X207898Y-1064298D02*
G01*
X245998Y-1064298D01*
X258698Y-1051598D02*
G01*
X245998Y-1064298D01*
X741298Y-848398D02*
G01*
X753998Y-835698D01*
X741298Y-848398D02*
G01*
X258698Y-848398D01*
X741298Y-1051598D02*
G01*
X753998Y-1064298D01*
X741298Y-1051598D02*
G01*
X258698Y-1051598D01*
X792098Y-835698D02*
G01*
X753998Y-835698D01*
X792098Y-1064298D02*
G01*
X753998Y-1064298D01*
X817498Y-1038898D02*
G01*
X817498Y-861098D01*
X2018982Y-2680195D02*
G01*
X2018982Y-2527795D01*
X2285682Y-2527795D01*
X2285682Y-2680195D01*
X1518983Y-2680195D02*
G01*
X1518983Y-2527795D01*
X1785683Y-2527795D01*
X1785683Y-2680195D01*
X1399984Y-1940013D02*
G01*
X2399982Y-1940013D01*
X2399982Y-2700007D01*
X1399984Y-2700007D01*
X1399984Y-1940013D01*
X1029997Y-2704995D02*
G01*
X-2629994Y-2704995D01*
X-2629994Y-2704995D02*
G01*
X-2629994Y-1269994D01*
X1029997Y-2704995D02*
G01*
X1029997Y-1269994D01*
X1029997Y-1269994D02*
G01*
X-2629994Y-1269994D01*
X-3302000Y2540000D02*
G01*
X-3048000Y2540000D01*
X-2857500Y2540000D01*
X-2794000Y2476500D01*
X-2794000Y2349500D01*
X-2857500Y2286000D01*
X-2794000Y2222500D01*
X-2794000Y2095500D01*
X-2857500Y2032000D01*
X-2794000Y1968500D01*
X-2794000Y1841500D01*
X-2857500Y1778000D01*
X-2794000Y1714500D01*
X-2794000Y1587500D01*
X-2857500Y1524000D01*
X-2794000Y1460500D01*
X-2794000Y1333500D01*
X-2857500Y1270000D01*
X-2794000Y1206500D01*
X-2794000Y1079500D01*
X-2857500Y1016000D01*
X-2794000Y952500D01*
X-2794000Y825500D01*
X-2857500Y762000D01*
X-2794000Y698500D01*
X-2794000Y571500D01*
X-2857500Y508000D01*
X-2794000Y444500D01*
X-2794000Y317500D01*
X-2857500Y254000D01*
X-2794000Y190500D01*
X-2794000Y63500D01*
X-2857500Y0D01*
X-2794000Y-63500D01*
X-2794000Y-190500D01*
X-2857500Y-254000D01*
X-2794000Y-317500D01*
X-2794000Y-444500D01*
X-2857500Y-508000D01*
X-2794000Y-571500D01*
X-2794000Y-698500D01*
X-2857500Y-762000D01*
X-2794000Y-825500D01*
X-2794000Y-952500D01*
X-2857500Y-1016000D01*
X-2794000Y-1079500D01*
X-2794000Y-1206500D01*
X-2857500Y-1270000D01*
X-2794000Y-1333500D01*
X-2794000Y-1460500D01*
X-2857500Y-1524000D01*
X-2794000Y-1587500D01*
X-2794000Y-1714500D01*
X-2857500Y-1778000D01*
X-2794000Y-1841500D01*
X-2794000Y-1968500D01*
X-2857500Y-2032000D01*
X-2794000Y-2095500D01*
X-2794000Y-2222500D01*
X-2857500Y-2286000D01*
X-2794000Y-2349500D01*
X-2794000Y-2476500D01*
X-2857500Y-2540000D01*
X-3238500Y-2540000D01*
X-3302000Y-2476500D01*
X-3302000Y-2349500D01*
X-3238500Y-2286000D01*
X-3302000Y-2222500D01*
X-3302000Y-2095500D01*
X-3238500Y-2032000D01*
X-3302000Y-1968500D01*
X-3302000Y-1841500D01*
X-3238500Y-1778000D01*
X-3302000Y-1714500D01*
X-3302000Y-1587500D01*
X-3238500Y-1524000D01*
X-3302000Y-1460500D01*
X-3302000Y-1333500D01*
X-3238500Y-1270000D01*
X-3302000Y-1206500D01*
X-3302000Y-1079500D01*
X-3238500Y-1016000D01*
X-3302000Y-952500D01*
X-3302000Y-825500D01*
X-3238500Y-762000D01*
X-3302000Y-698500D01*
X-3302000Y-571500D01*
X-3238500Y-508000D01*
X-3302000Y-444500D01*
X-3302000Y-317500D01*
X-3238500Y-254000D01*
X-3302000Y-190500D01*
X-3302000Y-63500D01*
X-3238500Y0D01*
X-3302000Y63500D01*
X-3302000Y190500D01*
X-3238500Y254000D01*
X-3302000Y317500D01*
X-3302000Y444500D01*
X-3238500Y508000D01*
X-3302000Y571500D01*
X-3302000Y698500D01*
X-3238500Y762000D01*
X-3302000Y825500D01*
X-3302000Y952500D01*
X-3238500Y1016000D01*
X-3302000Y1079500D01*
X-3302000Y1206500D01*
X-3238500Y1270000D01*
X-3302000Y1333500D01*
X-3302000Y1460500D01*
X-3238500Y1524000D01*
X-3302000Y1587500D01*
X-3302000Y1714500D01*
X-3238500Y1778000D01*
X-3302000Y1841500D01*
X-3302000Y1968500D01*
X-3238500Y2032000D01*
X-3302000Y2095500D01*
X-3302000Y2286000D01*
X-3302000Y2527300D01*
X-3302000Y2286000D02*
G01*
X-3048000Y2286000D01*
X-3048000Y2540000D01*
X2794000Y2540000D02*
G01*
X3048000Y2540000D01*
X3238500Y2540000D01*
X3302000Y2476500D01*
X3302000Y2349500D01*
X3238500Y2286000D01*
X3302000Y2222500D01*
X3302000Y2095500D01*
X3238500Y2032000D01*
X3302000Y1968500D01*
X3302000Y1841500D01*
X3238500Y1778000D01*
X3302000Y1714500D01*
X3302000Y1587500D01*
X3238500Y1524000D01*
X3302000Y1460500D01*
X3302000Y1333500D01*
X3238500Y1270000D01*
X3302000Y1206500D01*
X3302000Y1079500D01*
X3238500Y1016000D01*
X3302000Y952500D01*
X3302000Y825500D01*
X3238500Y762000D01*
X3302000Y698500D01*
X3302000Y571500D01*
X3238500Y508000D01*
X3302000Y444500D01*
X3302000Y317500D01*
X3238500Y254000D01*
X3302000Y190500D01*
X3302000Y63500D01*
X3238500Y0D01*
X3302000Y-63500D01*
X3302000Y-190500D01*
X3238500Y-254000D01*
X3302000Y-317500D01*
X3302000Y-444500D01*
X3238500Y-508000D01*
X3302000Y-571500D01*
X3302000Y-698500D01*
X3238500Y-762000D01*
X3302000Y-825500D01*
X3302000Y-952500D01*
X3238500Y-1016000D01*
X3302000Y-1079500D01*
X3302000Y-1206500D01*
X3238500Y-1270000D01*
X3302000Y-1333500D01*
X3302000Y-1460500D01*
X3238500Y-1524000D01*
X3302000Y-1587500D01*
X3302000Y-1714500D01*
X3238500Y-1778000D01*
X3302000Y-1841500D01*
X3302000Y-1968500D01*
X3238500Y-2032000D01*
X3302000Y-2095500D01*
X3302000Y-2222500D01*
X3238500Y-2286000D01*
X3302000Y-2349500D01*
X3302000Y-2476500D01*
X3238500Y-2540000D01*
X2857500Y-2540000D01*
X2794000Y-2476500D01*
X2794000Y-2349500D01*
X2857500Y-2286000D01*
X2794000Y-2222500D01*
X2794000Y-2095500D01*
X2857500Y-2032000D01*
X2794000Y-1968500D01*
X2794000Y-1841500D01*
X2857500Y-1778000D01*
X2794000Y-1714500D01*
X2794000Y-1587500D01*
X2857500Y-1524000D01*
X2794000Y-1460500D01*
X2794000Y-1333500D01*
X2857500Y-1270000D01*
X2794000Y-1206500D01*
X2794000Y-1079500D01*
X2857500Y-1016000D01*
X2794000Y-952500D01*
X2794000Y-825500D01*
X2857500Y-762000D01*
X2794000Y-698500D01*
X2794000Y-571500D01*
X2857500Y-508000D01*
X2794000Y-444500D01*
X2794000Y-317500D01*
X2857500Y-254000D01*
X2794000Y-190500D01*
X2794000Y-63500D01*
X2857500Y0D01*
X2794000Y63500D01*
X2794000Y190500D01*
X2857500Y254000D01*
X2794000Y317500D01*
X2794000Y444500D01*
X2857500Y508000D01*
X2794000Y571500D01*
X2794000Y698500D01*
X2857500Y762000D01*
X2794000Y825500D01*
X2794000Y952500D01*
X2857500Y1016000D01*
X2794000Y1079500D01*
X2794000Y1206500D01*
X2857500Y1270000D01*
X2794000Y1333500D01*
X2794000Y1460500D01*
X2857500Y1524000D01*
X2794000Y1587500D01*
X2794000Y1714500D01*
X2857500Y1778000D01*
X2794000Y1841500D01*
X2794000Y1968500D01*
X2857500Y2032000D01*
X2794000Y2095500D01*
X2794000Y2286000D01*
X2794000Y2527300D01*
X2794000Y2286000D02*
G01*
X3048000Y2286000D01*
X3048000Y2540000D01*
D15*
X-2588996Y95999D02*
G01*
X-810996Y95999D01*
X-810996Y603999D01*
X-2588996Y603999D01*
X-2588996Y95999D01*
D13*
X1711985Y-1559991D02*
G01*
X2287981Y-1559991D01*
X2287981Y-1838985D01*
X1711985Y-1838985D01*
X1711985Y-1559991D01*
X456895Y1096289D02*
G01*
X456895Y1672285D01*
X735888Y1672285D01*
X735888Y1096289D01*
X456895Y1096289D01*
X456895Y219989D02*
G01*
X456895Y795985D01*
X735888Y795985D01*
X735888Y219989D01*
X456895Y219989D01*
G75*
G01*
X-393700Y454711D02*
G02*
X-393700Y-175311I0J-315011D01*
G75*
G01*
X-393700Y-175311D02*
G02*
X-393700Y454711I0J315011D01*
G75*
G01*
X762000Y2108200D02*
G02*
X736600Y2082800I-25400J0D01*
G75*
G01*
X762000Y2286000D02*
G03*
X736600Y2311400I-25400J0D01*
G75*
G01*
X152400Y2311400D02*
G03*
X127000Y2286000I0J-25400D01*
G75*
G01*
X152400Y2082800D02*
G02*
X127000Y2108200I0J25400D01*
G75*
G01*
X762000Y1828800D02*
G02*
X736600Y1803400I-25400J0D01*
G75*
G01*
X762000Y2006600D02*
G03*
X736600Y2032000I-25400J0D01*
G75*
G01*
X152400Y2032000D02*
G03*
X127000Y2006600I0J-25400D01*
G75*
G01*
X152400Y1803400D02*
G02*
X127000Y1828800I0J25400D01*
G75*
G01*
X182626Y-561086D02*
G02*
X208026Y-535686I25400J0D01*
G75*
G01*
X182626Y-738886D02*
G03*
X208026Y-764286I25400J0D01*
G75*
G01*
X792226Y-764286D02*
G03*
X817626Y-738886I0J25400D01*
G75*
G01*
X792226Y-535686D02*
G02*
X817626Y-561086I0J-25400D01*
G75*
G01*
X228600Y673100D02*
G02*
X254000Y647700I0J-25400D01*
G75*
G01*
X50800Y673100D02*
G03*
X25400Y647700I0J-25400D01*
G75*
G01*
X25400Y63500D02*
G03*
X50800Y38100I25400J0D01*
G75*
G01*
X254000Y63500D02*
G02*
X228600Y38100I-25400J0D01*
G75*
G01*
X1684985Y-250000D02*
G02*
X2315007Y-250000I315011J1D01*
G75*
G01*
X2315007Y-250000D02*
G02*
X1684985Y-250000I-315011J0D01*
G75*
G01*
X2147011Y656120D02*
G03*
X2147011Y259880I-149840J-198120D01*
G75*
G01*
X2166315Y1492923D02*
G03*
X2166315Y1096683I-149840J-198120D01*
G75*
G01*
X2461095Y-417500D02*
G02*
X2435695Y-392100I0J25400D01*
G75*
G01*
X2638895Y-417500D02*
G03*
X2664295Y-392100I0J25400D01*
G75*
G01*
X2664295Y192100D02*
G03*
X2638895Y217500I-25400J0D01*
G75*
G01*
X2435695Y192100D02*
G02*
X2461095Y217500I25400J0D01*
G75*
G01*
X2308301Y977303D02*
G02*
X2282901Y1002703I0J25400D01*
G75*
G01*
X2486101Y977303D02*
G03*
X2511501Y1002703I0J25400D01*
G75*
G01*
X2511501Y1586903D02*
G03*
X2486101Y1612303I-25400J0D01*
G75*
G01*
X2282901Y1586903D02*
G02*
X2308301Y1612303I25400J0D01*
G75*
G01*
X-1447800Y-863600D02*
G02*
X-1422400Y-838200I25400J0D01*
G75*
G01*
X-1447800Y-1041400D02*
G03*
X-1422400Y-1066800I25400J0D01*
G75*
G01*
X-838200Y-1066800D02*
G03*
X-812800Y-1041400I0J25400D01*
G75*
G01*
X-838200Y-838200D02*
G02*
X-812800Y-863600I0J-25400D01*
G75*
G01*
X-812800Y-744499D02*
G02*
X-838200Y-769899I-25400J0D01*
G75*
G01*
X-812800Y-566699D02*
G03*
X-838200Y-541299I-25400J0D01*
G75*
G01*
X-1422400Y-541299D02*
G03*
X-1447800Y-566699I0J-25400D01*
G75*
G01*
X-1422400Y-769899D02*
G02*
X-1447800Y-744499I0J25400D01*
G75*
G01*
X-812800Y-444500D02*
G02*
X-838200Y-469900I-25400J0D01*
G75*
G01*
X-812800Y-266700D02*
G03*
X-838200Y-241300I-25400J0D01*
G75*
G01*
X-1422400Y-241300D02*
G03*
X-1447800Y-266700I0J-25400D01*
G75*
G01*
X-1422400Y-469900D02*
G02*
X-1447800Y-444500I0J25400D01*
G75*
G01*
X182499Y-861098D02*
G02*
X207899Y-835698I25400J0D01*
G75*
G01*
X182499Y-1038898D02*
G03*
X207899Y-1064298I25400J0D01*
G75*
G01*
X792099Y-1064298D02*
G03*
X817499Y-1038898I0J25400D01*
G75*
G01*
X792099Y-835698D02*
G02*
X817499Y-861098I0J-25400D01*
G75*
G01
X-78689Y139700D02*
G03X-78689Y139700I-315011J0D01*
G75*
G01
X2315007Y-250012D02*
G03X2315007Y-250012I-315011J0D01*
G75*
G01
X1018159Y-1199109D02*
G03X1018159Y-1199109I-40157J0D01*
G75*
G01
X-2436597Y197587D02*
G03X-2436597Y197587I-25400J0D01*
M02*
